<?xml version="1.0" encoding="UTF-8" standalone="no"?>
<!DOCTYPE svg PUBLIC "-//W3C//DTD SVG 1.1//EN" "http://www.w3.org/Graphics/SVG/1.1/DTD/svg11.dtd">
<svg width="100%" height="100%" viewBox="0 0 3508 2481" version="1.1" xmlns="http://www.w3.org/2000/svg" xmlns:xlink="http://www.w3.org/1999/xlink" xml:space="preserve" xmlns:serif="http://www.serif.com/" style="fill-rule:evenodd;clip-rule:evenodd;stroke-linejoin:round;stroke-miterlimit:1.41421;">
    <g id="B" transform="matrix(1,0,0,1,-56.448,-90.1081)">
        <path d="M343.347,2263.5C343.347,2263.5 543.803,1943.47 709.252,1840.79C709.252,1840.79 631.046,1844.13 374.176,2095.38C374.176,2095.38 386.35,1678.91 712.181,1233.11L706.138,1098.99C706.138,1098.99 680.942,1118.27 644.2,1145.73C545.978,1219.12 338.452,1423.37 325.935,1446.81C325.935,1446.81 381.013,937.045 774.043,516.966L785.787,438.775C785.787,438.775 274.046,867.677 262.733,1590.77C262.733,1590.77 390.698,1379.8 661.411,1191.58C661.411,1191.58 184.865,1868.7 343.347,2263.5Z" style="fill:rgb(242,242,242);"/>
    </g>
    <g id="A" transform="matrix(1,0,0,1,-56.448,-90.1081)">
        <g transform="matrix(1,0,0,1,-1,0)">
            <path d="M776.634,508.792C776.634,508.792 745.42,835.231 785.064,1205.95C785.064,1205.95 828.752,763.202 995.253,570.968L983.905,687.278C983.905,687.278 779.197,1023.36 819.567,1701.39C819.567,1701.39 706.191,1504.35 731.109,564.169L776.634,508.792Z" style="fill:rgb(242,242,242);"/>
        </g>
        <path d="M1021.5,1225.61L1059.92,1233.34C1149.93,2229.41 1216.28,2257.96 1216.28,2257.96C1164.51,2234 1176.48,2237.37 1176.48,2237.37C1123.25,2139.73 1066.05,1675.01 1021.5,1225.61ZM1016.73,1177.11C972.621,724.629 941.815,328.053 941.815,328.053L988.623,289.833C988.623,289.833 1033.08,927.84 1053.8,1164.52L1053.8,1164.52L1016.73,1177.11Z" style="fill:rgb(242,242,242);"/>
        <g transform="matrix(1,0,0,1,5,0)">
            <path d="M842.569,1250.84C842.569,1250.84 916.606,1187.21 1012.49,1133.24L1012.49,1176.86C1012.49,1176.86 960.824,1196.86 948.944,1219.95C948.944,1219.95 978.546,1217.19 1022.82,1226.88L1022.82,1268.98C1022.82,1268.98 908.523,1251.93 842.569,1250.84Z" style="fill:rgb(242,242,242);"/>
        </g>
    </g>
    <g id="b" transform="matrix(1,0,0,1,-56.448,-90.1081)">
        <path d="M1190.08,2245.59C1190.08,2245.59 1028.37,2196.39 858.557,1799.05C858.557,1799.05 891.045,1819.26 1428.64,1823.51C1428.64,1823.51 1240.13,1447.32 1089.63,1220.44L1237.13,935.049C1237.13,935.049 1191.65,769.016 1005.01,600.907L997.056,533.479C997.056,533.479 1232.11,725.171 1287.19,922.594C1287.19,922.594 1267.71,976.349 1149.48,1218.96C1149.48,1218.96 1403.39,1649.18 1508.51,1876.69L932.275,1856.08C932.275,1856.08 1045.51,2109.69 1162.87,2190.74L1190.08,2245.59Z" style="fill:rgb(242,242,242);"/>
    </g>
    <g transform="matrix(1,0,0,1,-58.448,-92.1081)">
        <g id="i">
            <path d="M990.275,292.648C990.275,292.648 1206.06,338.337 1459.95,322.567C1459.95,322.567 1363.31,578.086 1364.12,914.418C1364.85,1218.64 1450.14,1611.75 1515.88,1677.24C1515.88,1677.24 1477.21,1685.13 1455.2,1634.18C1423.1,1559.88 1322.44,1380.46 1313.85,911.016C1311.21,766.789 1332.43,587.207 1369.57,386.437C1369.57,386.437 1183.97,403.749 991.958,342.334L990.275,292.648Z" style="fill:rgb(242,242,242);"/>
        </g>
    </g>
    <g transform="matrix(1,0,0,1,-54.448,-91.1081)">
        <g id="n">
            <path d="M1480.23,1591.81C1480.23,1591.81 1226.22,781.13 1524.97,237.063C1524.97,237.063 1404.71,509.669 1426.41,984.269C1431.67,1099.4 1445.28,1226.41 1470.99,1364.31C1470.99,1364.31 1690.75,608.975 1835.24,375.726L1836.21,512.392C1836.21,512.392 1464.15,1408.96 1480.23,1591.81Z" style="fill:rgb(242,242,242);"/>
        </g>
    </g>
    <g id="a" transform="matrix(1,0,0,1,-56.448,-90.1081)">
        <path d="M1829.99,1355.48L1882.98,1377.7L1882.98,2316.8L1833.41,2277.9L1829.99,1355.48ZM1882.98,1283.55L1829.99,1289.99L1835.94,374.895L1882.98,340.04L1882.98,1283.55Z" style="fill:rgb(242,242,242);"/>
        <g transform="matrix(1,0,0,1,2,0)">
            <path d="M1606.29,1270.54L1829.99,1243.67L1828.89,1289.87L1703.28,1304.6L1829.65,1356.12L1830.72,1407.01C1830.72,1407.01 1700.99,1366.86 1606.29,1270.54Z" style="fill:rgb(242,242,242);"/>
        </g>
    </g>
    <g id="Ra" transform="matrix(1,0,0,1,-56.448,-90.1081)">
        <g transform="matrix(-0.897523,0,0,1,3603.32,-0.123881)">
            <path d="M1829.99,1355.48L1882.98,1377.7L1882.98,2316.8L1833.41,2277.9L1829.99,1355.48ZM1882.98,1377.7L1829.99,1355.48L1835.94,374.895L1882.98,340.04L1882.98,1377.7Z" style="fill:rgb(242,242,242);"/>
        </g>
        <path d="M1953.56,373.037L2323.85,708.309C2323.85,708.309 2175.43,1016.6 2076.7,1277.78C2076.7,1277.78 2136.18,1194.71 2215.16,1094.45L2352.3,1238.05C2352.3,1238.05 2351.34,1216.38 2175.22,1382.24C2175.22,1382.24 2261.88,1327.73 2378.26,1270.42C2378.26,1270.42 2621.84,1689.67 2771.88,2092.27C2783.9,2124.52 2808.99,2183.5 2808.99,2183.5L2785.76,2236.57C2785.76,2236.57 2685.37,1980.52 2611.97,1816.43C2523.01,1617.56 2406.91,1388.32 2361.82,1330.75C2361.82,1330.75 2071.73,1481.83 2020.49,1592.89C2020.49,1592.89 2029.48,1453.82 2280.97,1229.82L2215.67,1169.78C2215.67,1169.78 2042.62,1354.02 1988.42,1534.14C1988.42,1534.14 1986.33,1259.46 2266.32,715.89L1955.52,451.698L1953.56,373.037Z" style="fill:rgb(242,242,242);"/>
    </g>
    <g id="k" transform="matrix(1,0,0,1,-127.851,-82.8396)">
        <g transform="matrix(0.986843,0.16168,-0.16168,0.986843,195.621,-455.613)">
            <path d="M2542.35,1067.89C2542.35,1067.89 2801.85,1270.56 2916.88,1381.65C2916.88,1381.65 2825.79,1189.98 2524.59,993.503L2487.64,873.791L2717.72,387.553L2661.75,414.794C2661.75,414.794 2535.01,673.379 2467.67,807.976" style="fill:rgb(242,242,242);"/>
        </g>
        <g transform="matrix(-0.934668,0,0,0.995969,3830.72,-3.847)">
            <path d="M1480.23,1591.81C1480.23,1591.81 1226.22,781.13 1524.97,237.063C1524.97,237.063 1404.71,509.669 1426.41,984.269C1431.67,1099.4 1464.15,1408.96 1480.23,1591.81Z" style="fill:rgb(242,242,242);"/>
        </g>
    </g>
    <g transform="matrix(-1,-2.77556e-17,-2.77556e-17,1,3801.49,-90.2227)">
        <g id="i1" serif:id="i">
            <path d="M1320.53,917.171C1325.55,563.5 1405.6,345.979 1405.6,345.979C1405.6,345.979 1442.28,334.456 1459.95,322.567C1459.95,322.567 1363.31,578.086 1364.12,914.418C1364.85,1218.64 1445.11,1623.38 1510.85,1688.87C1510.85,1688.87 1461.69,1656.01 1439.68,1605.06C1420.83,1561.44 1370.66,1461.01 1351.84,1313.82C1337.71,1203.28 1317.75,1113.04 1320.53,917.171Z" style="fill:rgb(242,242,242);"/>
        </g>
    </g>
    <g transform="matrix(0.999332,0.0365439,-0.0666103,1.82153,-162.146,-1241.58)">
        <g id="j">
            <path d="M2718.65,795.748C2718.65,795.748 2864.88,1263.48 2787.49,1731.34C2787.49,1731.34 2595.32,1717.94 2512.59,1532.35C2512.59,1532.35 2519.42,1581.01 2545.68,1638.72C2569.75,1691.62 2815.02,1810.96 2815.02,1810.96C2815.02,1810.96 2840.41,1775.14 2855.01,1566.61C2862.11,1465.12 2857.09,1273.51 2835.68,1128.38C2815.44,991.184 2780.84,900.613 2718.65,795.748" style="fill:rgb(242,242,242);"/>
        </g>
    </g>
    <g id="A1" serif:id="A" transform="matrix(1,0,0,1,-69.448,-90.1081)">
        <g transform="matrix(1,0,0,1,-1,0)">
            <path d="M2794,2128.14C2803.06,2105.51 2859.82,1978.68 2877.35,1913.56C2895.42,1846.44 2914.93,1776.47 2926.8,1707.88C2937.76,1644.51 2943.47,1546.78 2938.16,1482.68C2921.71,1284.16 2893.97,1177.09 2844.23,997.298C2789.28,798.683 2693.05,595.998 2603.12,410.798C2614.32,418.449 2625.53,426.103 2636.48,434.106C2649.6,443.684 2662.57,453.466 2675.31,463.529C2714.43,494.417 2750.79,525.064 2787.66,558.878C2887.61,650.542 2982.46,749.913 3062.66,859.519C3080.52,883.921 3097.73,908.794 3114.83,933.727C3134.67,962.649 3154.09,991.863 3173.5,1021.08L3065.72,1104.95C3065.72,1104.95 3113.26,1102.35 3215.3,1105.34C3215.3,1105.34 3289.07,1233.86 3329.4,1405.93C3329.4,1405.93 3357.17,1368.78 3386.06,1329.19C3389.56,1329.58 3388.16,1335.93 3388.84,1339.38C3390.83,1349.46 3392.86,1359.55 3394.07,1369.75C3402.28,1438.93 3399.37,1507.71 3391.95,1576.92C3382.86,1661.81 3368.14,1746.32 3348.16,1829.32C3332.34,1895.03 3314.13,1960.99 3285.56,2022.46C3261.78,2073.63 3230.93,2120.99 3197.25,2166.14C3200.89,2158.24 3204.52,2150.35 3207.88,2142.33C3217.09,2120.3 3226.5,2098.33 3234.95,2075.99C3256.42,2019.26 3273.7,1970.26 3290.68,1913.43C3318.88,1819.03 3340.5,1722.79 3354.54,1625.26C3363.93,1560.03 3371.56,1493.01 3367.58,1426.99C3367.58,1426.99 3332.64,1463.86 3308.32,1506.16C3308.32,1506.16 3248.23,1234.68 3182.27,1145.62L2955.23,1147.24C2955.23,1147.24 2988.82,1105.53 3109.66,1018.9C3109.66,1018.9 2902.3,690.374 2726.89,569.51C2734.28,585.253 2743.39,602.699 2750.46,618.588C2768.6,659.335 2786.81,705.631 2802.63,746.586C2841.73,847.781 2875.27,950.403 2905.07,1054.7C2928.62,1137.11 2946.17,1221.43 2962.55,1305.46C2978.91,1389.37 2988.07,1475.72 2985.51,1561.26C2981.7,1688.36 2958.37,1815.04 2918.59,1935.1C2886.05,2033.28 2822.49,2193.73 2812.62,2205.13" style="fill:rgb(242,242,242);"/>
        </g>
        <g transform="matrix(1,0,0,1,16,-21)">
            <path d="M3199.44,1126.29C3199.44,1126.29 3289.07,1233.86 3329.4,1405.93C3329.4,1405.93 3357.17,1368.78 3386.06,1329.19C3386.64,1329.25 3402.68,1383.58 3398.55,1490.32C3394.51,1594.66 3370.73,1749.96 3335.5,1878.69C3305.78,1987.26 3278.14,2057.69 3197.25,2166.14C3197.25,2166.14 3260.32,2032.39 3309.68,1846.23C3345.73,1710.31 3373.95,1532.65 3367.58,1426.99C3367.58,1426.99 3328.43,1463.86 3304.11,1506.16C3304.11,1506.16 3248.23,1234.68 3182.27,1145.62" style="fill:rgb(242,242,242);"/>
        </g>
    </g>
</svg>
