<?xml version="1.0" encoding="UTF-8" standalone="no"?>
<!DOCTYPE svg PUBLIC "-//W3C//DTD SVG 1.1//EN" "http://www.w3.org/Graphics/SVG/1.1/DTD/svg11.dtd">
<svg width="100%" height="100%" viewBox="0 0 851 315" version="1.1" xmlns="http://www.w3.org/2000/svg" xmlns:xlink="http://www.w3.org/1999/xlink" xml:space="preserve" xmlns:serif="http://www.serif.com/" style="fill-rule:evenodd;clip-rule:evenodd;stroke-linejoin:round;stroke-miterlimit:1.41421;">
    <path d="M639,132C635.959,135.377 633.583,139.197 630,142L630,137C627.113,139.414 624.494,142.204 620.999,143.772C618.427,144.926 615.561,144.853 613,146.004C610.907,146.945 608.724,149.268 606.225,148.504C603.624,147.709 602.783,144.219 602,142C599.65,147.601 601.418,154.371 603,160C599.6,161.239 596.623,161.915 593,162C593.767,165.919 595.251,168.9 595,173C603.371,173.84 607.15,178.03 609,186C611.332,185.438 613.58,184.729 616.002,185.11C619.874,185.718 624.851,187.442 626.821,191.058C630.587,197.971 627.065,205.039 634,211C632.059,200.544 634.861,184.254 649,187.684C651.166,188.21 653.193,189.041 654.956,190.43C659.164,193.744 658.684,197.643 661.023,201.83C663.259,205.832 666.156,207.02 666,212C671.003,207.039 665.254,203.685 666.789,198.185C667.56,195.422 670.723,194.045 673.001,192.767C677.784,190.083 681.327,186.959 687,188C686.369,182.819 683.382,177.3 684.458,172C685.178,168.458 687.725,165.369 689,162C687.203,162 687.479,162.014 686,163C683.865,156.359 686.544,152.387 687.076,146C687.489,141.048 684.796,137.24 686,132C673.786,132.401 681.81,147.424 673,152C674.72,154.6 675.966,154.524 679,154C676.607,158.563 673.913,162.884 673,168L677,165C676.038,176.018 670.328,186.457 660,191C656.397,184.117 648.905,182.614 645,176C631.757,179.189 618.602,175.883 607,169C607.957,167.483 608.387,166.662 609,165L611,168C614.471,164.408 614.39,158.68 618.228,155.472C621.07,153.096 625.616,153.368 629,152C628.027,159.737 628.868,163.84 636,168C635.215,163.755 635.215,160.245 636,156L639,157C639.438,148.994 644.864,147.54 648.991,141.741C651.036,138.866 650.97,135.366 651,132C644.982,132.2 642.936,135.866 639,140C639.11,137.283 639.629,134.616 639,132Z" style="fill:rgb(245,247,246);"/>
    <path d="M699,132C699.779,137.166 703.055,141.746 706,146C705.678,143.416 705.027,141.398 704,139C707.835,140.415 710.165,143.109 713,146C713.251,144.549 713.315,144.248 714,143C716.306,147.376 718.16,152.118 719,157C717.338,156.387 716.517,155.957 715,155C716.651,158.934 718.142,161.996 722,164C721.997,167.786 721.879,171.306 721,175C722.186,173.814 722.584,173.472 724,173C722.894,175.513 721.477,177.678 720,180C726.055,176.38 731.965,174.387 736.895,168.996C741.664,163.782 743.749,156.813 749,152C747.566,158.952 746.404,165.734 742.532,171.83C739.07,177.283 734.219,180.271 733,187C717.054,181.975 724.209,205.995 717,212C719.679,204.478 716.544,200.003 714,193L710,194L712,189C704.805,189.33 696.596,192.274 695,200L693,200C693,193.923 693.555,191.559 697.833,187C700.026,184.664 705,182.965 705,180C708.979,178.644 711.186,176.797 713,173C711.203,173 711.479,172.986 710,172C710.444,168.891 710.33,166.116 710,163C706.375,162.247 705.063,158.925 702.896,156C697.271,148.41 693.874,141.234 697,132L699,132Z" style="fill:rgb(245,247,246);"/>
    <path d="M536,132C538.79,141.923 540.783,151.719 540,162L543,161C542.851,163.941 541.748,167.087 542.059,170C542.315,172.408 543.785,174.502 543.354,177C542.268,183.294 537.055,185.931 538,193C543.485,186.841 547.994,193.304 547.798,200C547.65,205.042 543.671,208.178 540,211C545.322,212.841 551.561,208.055 553.296,202.985C555.087,197.754 553.257,189.281 552,184L556,184C554.28,178.574 554,173.658 554,168C559.098,170.763 567.294,177.648 569.622,183.054C573.497,192.052 566.449,205.092 557,207C561.547,210.427 566.523,207.677 570.995,205.138C580.235,199.894 580.633,188.575 593,188C590.628,185.696 587.624,184.685 585.094,182.582C580.306,178.6 580.004,173.771 580,168C572.168,170.439 569.21,167.728 562,165C565.399,154.333 572.225,142.125 584,140C584.117,137.27 584.499,134.686 585,132C574.692,132.036 567.598,140.428 557,141C560.769,149.039 560.397,151.458 554,158C553.499,150.456 548.994,143.697 548,136C546.984,137.14 546.691,137.611 546,139C542.889,135.861 540.48,132.751 536,132Z" style="fill:rgb(245,247,246);"/>
    <path d="M183,132C185.79,141.923 187.783,151.719 187,162L190,161C189.851,163.941 188.748,167.087 189.059,170C189.315,172.408 190.785,174.502 190.354,177C189.268,183.294 184.055,185.931 185,193C190.485,186.841 194.994,193.304 194.798,200C194.65,205.042 190.671,208.178 187,211C192.322,212.841 198.561,208.055 200.296,202.985C202.087,197.754 200.257,189.281 199,184L203,184C201.28,178.574 201,173.658 201,168C206.098,170.763 214.294,177.648 216.622,183.054C220.497,192.052 213.449,205.092 204,207C208.547,210.427 213.523,207.677 217.995,205.138C227.235,199.894 227.633,188.575 240,188C237.628,185.696 234.624,184.686 232.094,182.582C227.306,178.6 227.004,173.771 227,168C219.168,170.439 216.21,167.728 209,165C212.399,154.333 219.225,142.125 231,140C231.117,137.27 231.499,134.686 232,132C221.692,132.036 214.598,140.428 204,141C207.769,149.039 207.397,151.458 201,158C200.499,150.456 195.994,143.697 195,136C193.985,137.139 193.691,137.612 193,139C189.889,135.861 187.48,132.751 183,132Z" style="fill:rgb(245,247,246);"/>
    <path d="M765,191L766,196C766.473,193.857 766.133,192.899 765,191Z" style="fill:rgb(245,247,246);"/>
    <path d="M155,191L156,196C156.473,193.857 156.133,192.899 155,191Z" style="fill:rgb(245,247,246);"/>
    <path d="M314,191L315,196C315.473,193.857 315.133,192.899 314,191Z" style="fill:rgb(245,247,246);"/>
    <path d="M508,191L509,196C509.473,193.857 509.133,192.899 508,191Z" style="fill:rgb(245,247,246);"/>
    <path d="M141,132C141.001,141.285 146.607,148.932 145,158L141,156C141.032,167.747 142.641,180.805 139,192C147.168,192.623 147.221,198.822 144,205C145.406,209.258 143.032,212.771 142.326,217C141.496,221.971 142.09,227.096 143,232L147,232C146.772,229.111 145.827,225.868 146.472,223C147.678,217.642 152.794,213.111 155,208C157.203,210.045 160.046,213.337 161,209C168.84,211.941 176.037,212.527 180,221C183.935,211.349 173.567,207.834 170.042,200.91C166.391,193.739 175.077,185.762 180,182C173.676,171.385 175.484,165.988 182,156C178.12,152.973 175.115,149.673 173.326,145C171.41,139.996 172.265,133.088 166,132C164.882,136.056 162.788,143.283 157.96,144.307C151.85,145.603 144.228,136.065 141,132ZM162,150C158.119,154.01 158.011,156.653 159,162C157.814,160.814 157.472,160.416 157,159C149.64,161.384 152.056,171.04 150,177C153.242,175.302 154.274,173.573 155,170C156.564,175.343 154.753,180.573 156,186C157.195,185.402 156.977,185.534 158,184C158.501,186.686 158.883,189.27 159,192C161.468,188.701 164.182,183.157 164.556,179C164.828,175.965 163.398,173.044 163.784,170C164.653,163.142 166.735,156.218 162,150Z" style="fill:rgb(245,247,246);"/>
    <path d="M234,152C236.171,150.824 238.184,148.825 240.59,148.162C245.541,146.798 250.928,148.499 256,147L255,151C257.551,150.622 259.627,150.012 262,149C262.245,153.257 261.917,156.838 261,161C263.817,161 263.653,164.628 262.5,167C260.732,170.637 257.902,173.308 254,173C255.226,175.035 255.703,175.326 258,176C257.839,179.734 257.716,184.633 255.265,187.687C253.834,189.47 251.537,190.09 249.86,191.58C243.468,197.263 238.08,202.112 238,211C245.361,206.332 257.625,187.319 268,197C270.534,190.904 265.873,185.209 266.279,179.001C266.604,174.032 270.97,171.198 273,167C265.243,161.966 276.632,149.578 282,147C284.338,150.477 287.751,151.68 289,156C292.074,153.66 291.5,150.277 293.175,147C294.769,143.883 297.57,141.452 300,139C301.365,146.081 305.346,150.404 304,158L300,156C300.032,167.747 301.641,180.805 298,192C306.168,192.623 306.221,198.822 303,205C304.406,209.258 302.032,212.771 301.326,217C300.496,221.971 301.09,227.096 302,232L306,232C305.772,229.111 304.827,225.868 305.472,223C306.678,217.642 311.794,213.111 314,208C316.203,210.045 319.046,213.337 320,209C327.84,211.941 335.038,212.527 339,221C342.935,211.349 332.567,207.833 329.042,200.91C325.391,193.739 334.077,185.762 339,182C332.676,171.385 334.484,165.988 341,156C337.12,152.973 334.115,149.673 332.326,145C330.41,139.996 331.265,133.088 325,132C323.882,136.056 321.788,143.283 316.96,144.307C310.776,145.619 303.385,137.523 305,132C297.487,132.182 294.448,137.087 288,139.891C283.073,142.034 277.709,141.487 273,144L276,132C270.327,133.545 266.513,138.339 261,140.312C253.052,143.157 241.331,137.969 236.09,146.1C234.927,147.904 234.493,149.953 234,152ZM321,150C317.119,154.01 317.011,156.653 318,162C316.814,160.814 316.472,160.416 316,159C308.64,161.384 311.056,171.04 309,177C312.242,175.302 313.274,173.573 314,170C314.375,171.28 314.556,172.553 314.632,173.824C314.873,177.859 314.052,181.872 315,186C316.195,185.402 315.977,185.534 317,184C317.501,186.686 317.883,189.27 318,192C320.468,188.701 323.182,183.157 323.556,179C323.828,175.965 322.398,173.044 322.784,170C323.653,163.142 325.735,156.218 321,150Z" style="fill:rgb(245,247,246);"/>
    <path d="M494,132C494.001,141.285 499.607,148.932 498,158L494,156C494.032,167.747 495.641,180.805 492,192C500.168,192.623 500.221,198.822 497,205C498.406,209.258 496.032,212.771 495.326,217C494.496,221.971 495.09,227.096 496,232L500,232C499.772,229.111 498.827,225.868 499.472,223C500.678,217.642 505.794,213.111 508,208C510.203,210.045 513.046,213.337 514,209C521.84,211.941 529.037,212.527 533,221C536.935,211.349 526.567,207.833 523.042,200.91C519.391,193.739 528.076,185.762 533,182C526.676,171.385 528.484,165.988 535,156C531.121,152.973 528.115,149.673 526.326,145C524.41,139.996 525.265,133.088 519,132C517.882,136.055 515.788,143.283 510.96,144.307C504.85,145.603 497.228,136.065 494,132ZM515,150C511.119,154.01 511.011,156.653 512,162C510.814,160.814 510.472,160.416 510,159C502.64,161.384 505.056,171.04 503,177C506.242,175.302 507.274,173.573 508,170C509.565,175.343 507.753,180.572 509,186C510.195,185.402 509.977,185.534 511,184C511.501,186.686 511.883,189.27 512,192C514.468,188.701 517.182,183.157 517.556,179C517.828,175.965 516.398,173.044 516.784,170C517.653,163.142 519.735,156.218 515,150Z" style="fill:rgb(245,247,246);"/>
    <path d="M751,132C751.001,141.285 756.607,148.932 755,158L751,156C751.032,167.747 752.641,180.805 749,192C757.168,192.623 757.221,198.822 754,205C755.406,209.258 753.032,212.771 752.326,217C751.496,221.971 752.09,227.096 753,232L757,232C756.772,229.111 755.827,225.868 756.472,223C757.678,217.642 762.794,213.111 765,208C767.203,210.045 770.046,213.337 771,209C778.84,211.941 786.037,212.527 790,221C793.935,211.349 783.567,207.833 780.042,200.91C776.391,193.739 785.076,185.762 790,182C783.676,171.385 785.484,165.988 792,156C788.121,152.973 785.115,149.673 783.326,145C781.41,139.996 782.265,133.088 776,132C774.882,136.055 772.788,143.283 767.96,144.307C761.85,145.603 754.228,136.065 751,132ZM772,150C768.119,154.01 768.011,156.653 769,162C767.814,160.814 767.472,160.416 767,159C759.64,161.384 762.056,171.04 760,177C763.242,175.302 764.274,173.573 765,170C766.565,175.343 764.753,180.572 766,186C767.195,185.402 766.977,185.534 768,184C768.501,186.686 768.883,189.27 769,192C771.468,188.701 774.182,183.157 774.556,179C774.828,175.965 773.398,173.044 773.784,170C774.653,163.142 776.735,156.218 772,150Z" style="fill:rgb(245,247,246);"/>
    <path d="M61,132C61.814,142.762 77.36,144.207 77,154C82.543,156.882 86.01,166.886 82.784,172.775C81.582,174.969 79.108,175.926 77,177C77,178.797 77.014,178.521 78,180C69.134,182.627 63.427,188.677 63,198C69.369,190.942 74.309,187.792 84,187C86.909,195.918 93.78,201.69 94,212C99.293,205.913 95.011,197.919 98.009,191.055C99.362,187.957 102.241,186.476 105.004,184.811C106.597,183.851 108.174,182.801 109.998,182.329C112.437,181.698 114.655,182.364 117,183C119.11,176.751 121.325,166.517 129.998,167.495C132.416,167.767 134.773,169.093 137,170C135.321,166.408 134.279,162.506 132.458,159C129.902,154.082 126.197,149.656 125.343,144C124.752,140.083 125.918,135.951 126,132C119.817,132.481 120.444,137.103 115.891,140.142C111.956,142.769 108.204,141.353 104,140.684C97.347,139.624 93.653,140.872 90,134L82,136C81.032,133.036 80.066,132.497 77,132L77,137C71.059,134.3 67.766,132.005 61,132ZM88,146C89.87,150.846 92.068,155.434 94.11,160.17C95.921,164.367 95.585,167.469 101,167L97,176C103.131,173.451 109.651,171.093 114.995,167.076C117,165.569 119.633,163.683 119.978,160.985C120.392,157.759 117.238,153.873 116,151C117.618,149.686 117.693,149.123 118,147C113.399,148.052 109.611,148.377 105.449,148.293C103.725,148.258 101.937,148.153 100,148L100,152C96.033,149.422 92.569,147.338 88,146Z" style="fill:rgb(245,247,246);"/>
    <path d="M460,143C466.088,148.52 472.713,141.6 478,138C476.82,146.826 468.941,150.736 462,155C468.333,154.978 477.717,154.223 482.958,150.35C485.973,148.121 487.641,144.803 490,142C491.664,151.381 485.493,159.957 488,169C477.735,167.341 473.296,174.153 471,183C468.741,182.301 466.41,181.292 463.999,181.458C447.034,182.629 457.294,205.138 447,211C448.865,203.165 446.872,185.556 434.985,186.681C427.791,187.361 422.918,194.86 417,198C418.123,187.914 431.016,186.963 432,178C437.45,177.58 440.024,174.337 443,170L439,169C441.221,163.653 441.074,157.771 434,158C433.308,149.008 424.302,148.819 419.603,142.671C417.367,139.745 418,135.46 418,132C424.686,132.222 427.954,137.153 433,141L430,134C434.946,134.999 437.687,137.582 440,142L442,142L443,138C447.855,141.056 451.853,147.584 458,143L460,143ZM466,166L465,161C458.83,161.561 454.9,164.567 452,170L455,169L453,176C456.746,174.923 460.05,172.964 464,173C467.765,168.335 472.855,165.208 476,160C471.689,161.157 468.55,162.218 466,166ZM444,149L448,158C451.68,155.642 455.259,153.417 458,150C452.671,151.272 449.054,150.91 444,149Z" style="fill:rgb(245,247,246);"/>
    <path d="M358,184C360.698,195.334 361.356,208.03 348,212C351.426,206.312 353.804,202.776 352.18,196C351.684,193.931 350.816,190.232 347.945,190.627C345.716,190.933 343.806,193.787 342,195C342.828,191.647 343.177,188.039 345.005,185.039C346.481,182.619 349.375,180.725 350.116,177.91C350.743,175.528 349.255,173.346 349.138,171C349.007,168.387 349.867,165.633 350,163L346,164C347.444,152.565 342.489,143.217 342,132L346,132C347.391,135.595 349.41,138.154 352,141L352,137C354.985,138.881 357.212,141.771 360,144L359,139C361.546,140.229 363.568,142.701 366.17,143.677C373.046,146.254 377.68,139.849 378,134C381.809,137.145 383.693,141.769 389,142C386.536,145.512 383.646,149.573 380.407,152.416C377.953,154.57 375.252,155.487 373,158C382.162,160.72 386.298,155.104 393,150C392.226,159.459 385.839,169.738 395,177L395,179C388.165,183.275 377.72,191.993 375.354,200C374.377,203.307 375.353,206.732 376,210C368.055,205.829 368.672,199.799 370.627,192C371.242,189.543 371.655,186.546 373.475,184.638C376.064,181.924 380.917,180.366 384,178L379,179C379,174.562 378.967,170.338 380,166L369,168L368,163C365.623,163.572 363.442,163.89 361,164L363,174C359.934,177.328 360.76,179.907 362,184L358,184ZM355,149C357.017,151.999 359.029,154.5 360,158C366.485,157.645 370.345,154.174 374,149C370.199,149.601 367.323,151.103 364,153C363.131,148.947 358.557,149.957 355,149Z" style="fill:rgb(245,247,246);"/>
    <path d="M625,123C622.587,117.839 617.327,107.017 610.998,106.056C608.432,105.666 606.029,107.742 604,109L604,111C611.725,115.351 616.008,123.975 621,131C627.985,127.734 631.884,120.468 637.17,115.093C641.643,110.545 647.204,107.979 650,102C639.248,106.077 633.741,116.315 625,123Z" style="fill:rgb(245,247,246);"/>
</svg>
