<?xml version="1.0" encoding="UTF-8" standalone="no"?>
<!DOCTYPE svg PUBLIC "-//W3C//DTD SVG 1.1//EN" "http://www.w3.org/Graphics/SVG/1.1/DTD/svg11.dtd">
<svg width="100%" height="100%" viewBox="0 0 3508 2481" version="1.1" xmlns="http://www.w3.org/2000/svg" xmlns:xlink="http://www.w3.org/1999/xlink" xml:space="preserve" xmlns:serif="http://www.serif.com/" style="fill-rule:evenodd;clip-rule:evenodd;stroke-linejoin:round;stroke-miterlimit:1.41421;">
    <g transform="matrix(6.2146,0,0,6.2146,-1352.23,-670.194)">
        <path d="M485.766,435.843L479.868,435.843C492.884,432.318 503.189,428.114 510.782,423.233C524.206,414.555 533.222,403.912 537.832,391.302C539.597,386.511 540.815,382.45 541.486,379.118L548.045,379.118L541.895,369.2C540.504,354.264 532.167,343.53 516.884,336.998L542.103,308.117L542.103,259.508C538.578,257.881 534.917,256.322 531.121,254.831L520.951,250.763C511.731,255.644 507.121,261.203 507.121,267.44C507.121,273 510.918,278.559 518.511,284.118L515.053,282.694C500.41,276.728 493.088,268.051 493.088,256.661C493.088,248.255 498.444,240.051 509.155,232.052C511.398,234.487 514.087,236.876 517.223,239.22L510.668,244.563L525.278,244.563C534.69,250.159 546.807,255.48 561.628,260.525L561.628,313.812L546.375,331.71C556.544,343.1 561.628,357.133 561.628,373.811C561.628,384.115 559.527,392.861 555.323,400.047C547.73,412.928 536.273,422.284 520.951,428.114C507.393,433.267 495.665,435.843 485.766,435.843ZM409.862,244.563L413.39,246.085L413.39,370.353C413.39,389.2 416.44,399.64 422.542,401.674C417.525,401.268 412.915,399.437 408.712,396.183C405.593,404.183 401.729,410.284 397.119,414.488C385.865,424.521 371.764,430.487 354.815,432.385C366.882,431.029 376.238,423.843 382.882,410.827C388.712,399.437 391.627,387.505 391.627,375.031L391.63,374.231L394.666,356.965C393.42,353.327 392.438,351.14 391.714,349.14L391.802,322.646C392.915,316.815 394.191,312.414 394.191,312.414C393.055,306.773 392.337,301.836 391.884,297.86L392.034,252.797L378.204,234.492L382.272,232.662L403.38,241.767L401.373,244.563L409.862,244.563ZM487.65,296.003L487.65,304.456C483.447,307.304 477.548,310.897 469.955,315.236C460.193,320.931 451.854,326.422 444.939,331.71C450.769,351.235 461.142,362.014 476.057,364.048C472.938,363.777 469.752,363.302 466.498,362.624C435.312,355.981 419.719,336.591 419.719,304.456L419.719,255.644L422.77,255.441C425.753,255.305 431.109,253.746 438.838,250.763C448.6,247.102 456.464,242.763 462.43,237.746L468.532,232.662L487.65,253.61L487.65,280.673L481.97,287.188L487.65,287.188L487.65,293.387L486.557,296.003L487.65,296.003ZM636.734,318.506C637.127,335.373 639.822,344.18 644.819,344.93C630.854,344.93 621.566,338.354 616.956,325.202C612.21,327.236 607.125,330.219 601.702,334.151C598.786,336.281 595.082,339.107 590.59,342.629L587.781,334.29L585.126,342.174L568.347,323.981L568.347,271.305L569.567,271.101L576.279,267.034C578.313,265.813 582.38,263.644 588.482,260.525C600.685,252.39 608.481,246.695 611.871,243.441C604.685,217.543 588.889,204.256 564.482,203.578L569.974,203.374C571.194,203.103 573.364,203.035 576.482,203.171C577.702,203.171 580.007,203.307 583.397,203.578C609.315,206.15 625.779,217.527 632.787,237.709L631.585,244.563L634.729,244.563C636.032,250.362 636.684,256.767 636.684,263.78L636.684,307.828L631.585,318.506L636.734,318.506ZM615.125,319.507L615.125,263.78C615.125,259.712 614.515,254.898 613.295,249.339C600.685,258.153 592.143,263.644 587.668,265.813L587.668,314.219L599.261,325.608C603.058,323.981 608.346,321.948 615.125,319.507ZM466.498,310.558L466.498,262.559L455.108,249.339L440.871,254.22L441.278,310.558C441.278,314.897 442.024,319.778 443.515,325.202C454.227,317.88 461.888,312.999 466.498,310.558ZM414.61,178.951C398.546,178.951 385.503,189.321 385.503,202.093C385.503,214.865 398.546,225.235 414.61,225.235C409.791,219.835 405.878,211.324 405.878,202.093C405.878,192.862 409.791,184.351 414.61,178.951Z" style="fill:white;fill-rule:nonzero;"/>
    </g>
</svg>
