<?xml version="1.0" encoding="UTF-8" standalone="no"?>
<!DOCTYPE svg PUBLIC "-//W3C//DTD SVG 1.1//EN" "http://www.w3.org/Graphics/SVG/1.1/DTD/svg11.dtd">
<svg width="100%" height="100%" viewBox="0 0 2290 379" version="1.1" xmlns="http://www.w3.org/2000/svg" xmlns:xlink="http://www.w3.org/1999/xlink" xml:space="preserve" xmlns:serif="http://www.serif.com/" style="fill-rule:evenodd;clip-rule:evenodd;stroke-linejoin:round;stroke-miterlimit:1.41421;">
    <g transform="matrix(1,0,0,1,-528.462,-1518.28)">
        <g id="Logo" transform="matrix(1,0,0,1,107.293,605.485)">
            <path d="M431.57,1246.06C430.77,1243.4 429.836,1238.06 428.77,1230.06C427.703,1222.06 426.703,1213.46 425.77,1204.26C424.836,1195.06 423.97,1186.4 423.17,1178.26C422.37,1170.13 421.836,1164.6 421.57,1161.66L421.57,1158.86C421.57,1156.73 421.503,1154.4 421.37,1151.86C421.236,1149.33 421.17,1146.73 421.17,1144.06L421.17,1137.26L421.17,1129.66C421.17,1126.2 421.236,1122.93 421.37,1119.86C421.503,1116.8 421.57,1113.93 421.57,1111.26L421.57,1106.46C421.836,1099.53 422.236,1090.6 422.77,1079.66C423.303,1068.73 423.836,1058.13 424.37,1047.86C424.903,1037.6 425.37,1028.73 425.77,1021.26C426.17,1013.8 426.37,1009.93 426.37,1009.66L430.77,1005.26C430.77,1005.26 432.903,1005.06 437.17,1004.66C441.436,1004.26 446.503,1003.8 452.37,1003.26C458.236,1002.73 464.303,1002.2 470.57,1001.66C476.836,1001.13 481.97,1000.73 485.97,1000.46L500.37,1000.46C502.503,1000.46 503.836,1002.06 504.37,1005.26C506.236,1012.46 508.303,1020.13 510.57,1028.26C512.836,1036.4 515.57,1044.4 518.77,1052.26C521.97,1060.13 525.77,1067.6 530.17,1074.66C534.57,1081.73 539.836,1087.66 545.97,1092.46L550.37,1088.06C547.97,1071.26 546.503,1055 545.97,1039.26C545.436,1023.53 545.17,1007.26 545.17,990.464C549.17,990.464 554.17,992.064 560.17,995.264C566.17,998.464 571.903,1002.46 577.37,1007.26C582.836,1012.06 587.503,1017.06 591.37,1022.26C595.236,1027.46 597.17,1032.06 597.17,1036.06C597.17,1051.8 596.836,1066.8 596.17,1081.06C595.503,1095.33 594.77,1109.66 593.97,1124.06C593.17,1138.46 592.503,1153.26 591.97,1168.46C591.436,1183.66 591.436,1199.8 591.97,1216.86L582.77,1253.66C581.97,1255.26 581.103,1257.8 580.17,1261.26C579.236,1264.73 578.503,1266.73 577.97,1267.26C577.436,1268.06 576.703,1269.06 575.77,1270.26C574.836,1271.46 574.103,1272.06 573.57,1272.06L527.57,1272.06C527.036,1272.06 526.236,1269.6 525.17,1264.66C524.103,1259.73 522.903,1254.06 521.57,1247.66C520.236,1241.26 518.836,1235.06 517.37,1229.06C515.903,1223.06 514.636,1219 513.57,1216.86C511.703,1212.86 509.236,1207.73 506.17,1201.46C503.103,1195.2 500.036,1189.06 496.97,1183.06C493.903,1177.06 491.303,1172 489.17,1167.86C487.036,1163.73 485.97,1161.66 485.97,1161.66L481.57,1161.66C480.77,1161.66 480.036,1163 479.37,1165.66C478.703,1168.33 478.17,1171.4 477.77,1174.86C477.37,1178.33 477.103,1181.8 476.97,1185.26C476.836,1188.73 476.77,1191.26 476.77,1192.86L476.77,1202.86C476.77,1205.26 476.903,1209.8 477.17,1216.46C477.436,1223.13 477.836,1230.2 478.37,1237.66C478.903,1245.13 479.436,1252.13 479.97,1258.66C480.503,1265.2 481.036,1269.66 481.57,1272.06L476.77,1276.46C475.436,1275.66 472.836,1274.13 468.97,1271.86C465.103,1269.6 460.903,1267.2 456.37,1264.66C451.836,1262.13 447.636,1259.6 443.77,1257.06C439.903,1254.53 437.303,1252.46 435.97,1250.86C435.436,1250.6 434.636,1249.93 433.57,1248.86C432.503,1247.8 431.836,1246.86 431.57,1246.06Z" style="fill:white;fill-rule:nonzero;"/>
            <path d="M614.77,1158.86C614.77,1155.13 614.636,1152.33 614.37,1150.46C614.103,1148.6 612.903,1145.66 610.77,1141.66L610.77,1136.06C610.77,1133.13 610.703,1130.06 610.57,1126.86C610.436,1123.66 610.37,1120.6 610.37,1117.66L610.37,1111.66L610.37,1090.46C610.37,1085.66 610.436,1081 610.57,1076.46C610.703,1071.93 610.97,1067.33 611.37,1062.66C611.77,1058 612.236,1053 612.77,1047.66C613.303,1042.33 613.97,1036.33 614.77,1029.66L621.97,1029.66C625.703,1029.66 629.636,1029.6 633.77,1029.46C637.903,1029.33 641.703,1029.26 645.17,1029.26L652.77,1029.26C662.37,1029.26 671.636,1029.6 680.57,1030.26C689.503,1030.93 698.503,1031.6 707.57,1032.26C716.636,1032.93 725.703,1033.46 734.77,1033.86C743.836,1034.26 753.17,1034.2 762.77,1033.66C760.636,1038.46 758.503,1043.46 756.37,1048.66C754.236,1053.86 762.277,1060.59 759.477,1065.39C756.677,1070.19 760.089,1082.9 756.489,1086.76C752.889,1090.63 731.57,1083.53 726.77,1085.66C721.436,1088.33 716.303,1089.6 711.37,1089.46C706.436,1089.33 702.103,1089.86 698.37,1091.06C694.636,1092.26 691.703,1095.06 689.57,1099.46C687.436,1103.86 686.37,1112.06 686.37,1124.06C686.37,1125.93 686.503,1127.86 686.77,1129.86C687.036,1131.86 688.37,1133.13 690.77,1133.66C692.636,1133.93 696.103,1134.46 701.17,1135.26C706.236,1136.06 711.503,1136.86 716.97,1137.66C722.436,1138.46 727.636,1139.26 732.57,1140.06C737.503,1140.86 740.903,1141.4 742.77,1141.66C743.303,1141.93 744.636,1142.53 746.77,1143.46C748.903,1144.4 750.236,1145.13 750.77,1145.66C749.97,1147.26 748.636,1149.46 746.77,1152.26C744.903,1155.06 742.97,1157.86 740.97,1160.66C738.97,1163.46 737.036,1166.06 735.17,1168.46C733.303,1170.86 731.836,1172.6 730.77,1173.66C726.77,1177.66 722.436,1180.06 717.77,1180.86C713.103,1181.66 708.703,1182.46 704.57,1183.26C700.436,1184.06 697.036,1185.6 694.37,1187.86C691.703,1190.13 690.37,1194.6 690.37,1201.26L690.37,1208.86C690.37,1212.6 690.903,1216.66 691.97,1221.06C693.036,1225.46 695.303,1228.33 698.77,1229.66C711.036,1232.06 723.57,1233.46 736.37,1233.86C749.17,1234.26 755.5,1235.05 768.3,1234.52C766.7,1237.98 770.703,1240.86 767.37,1244.86C764.036,1248.86 760.57,1252.8 756.97,1256.66C753.37,1260.53 749.903,1263.93 746.57,1266.86C743.236,1269.8 740.636,1272.06 738.77,1273.66C738.503,1273.4 736.37,1273.26 732.37,1273.26L722.77,1273.26L698.77,1273.26L674.37,1273.26L664.77,1273.26C661.036,1273.26 659.036,1273.4 658.77,1273.66C657.703,1273.66 655.036,1274.06 650.77,1274.86C646.503,1275.66 641.836,1276.53 636.77,1277.46C631.703,1278.4 627.036,1279.26 622.77,1280.06C618.503,1280.86 615.836,1281.4 614.77,1281.66C614.503,1281.66 613.77,1281.73 612.57,1281.86C611.37,1282 610.503,1282.06 609.97,1282.06C609.97,1261.26 610.77,1240.73 612.37,1220.46C613.97,1200.2 614.77,1179.66 614.77,1158.86Z" style="fill:white;fill-rule:nonzero;"/>
            <g transform="matrix(1,0,0,1,-5.26986,-7.6)">
                <path d="M855.17,1129.66L854.77,1129.66C854.77,1124.06 854.57,1118.8 854.17,1113.86C853.77,1108.93 853.236,1104.13 852.57,1099.46C851.903,1094.8 851.37,1090 850.97,1085.06C850.57,1080.13 850.37,1074.73 850.37,1068.86L850.37,1065.26C850.103,1063.13 849.77,1060.26 849.37,1056.66C848.97,1053.06 848.57,1049.53 848.17,1046.06C847.77,1042.6 847.37,1039.6 846.97,1037.06C846.57,1034.53 846.37,1033.26 846.37,1033.26L839.17,1030.86L776.37,1034.06C775.303,1034.86 774.57,1036.33 774.17,1038.46C773.77,1040.6 773.57,1042.86 773.57,1045.26C773.57,1047.66 773.636,1050.06 773.77,1052.46C773.903,1054.86 773.97,1056.6 773.97,1057.66L776.77,1074.86C777.036,1076.73 777.57,1080.86 778.37,1087.26C779.17,1093.66 780.103,1101.13 781.17,1109.66C782.236,1118.2 783.436,1127.26 784.77,1136.86C786.103,1146.46 787.303,1155.53 788.37,1164.06C789.436,1172.6 790.37,1180.06 791.17,1186.46C791.97,1192.86 792.503,1197 792.77,1198.86C792.77,1199.4 792.836,1200.93 792.97,1203.46C793.103,1206 793.17,1207.93 793.17,1209.26L788.37,1216.86C784.636,1233.4 782.37,1245.86 781.57,1254.26C780.77,1262.66 780.903,1268.6 781.97,1272.06C783.036,1275.53 784.836,1277.4 787.37,1277.66C789.903,1277.93 792.636,1278.06 795.57,1278.06C804.636,1278.06 814.703,1278.26 825.77,1278.66C836.836,1279.06 846.903,1279.26 855.97,1279.26C855.97,1262.46 855.636,1244.73 854.97,1226.06C854.303,1207.4 853.703,1189.66 853.17,1172.86C862.503,1177.66 869.97,1184.73 875.57,1194.06C881.17,1203.4 885.57,1213.46 888.77,1224.26C891.97,1235.06 894.17,1245.86 895.37,1256.66C896.57,1267.46 897.436,1276.6 897.97,1284.06L901.97,1284.06C905.436,1280.86 909.17,1278.53 913.17,1277.06C917.17,1275.6 921.37,1274.13 925.77,1272.66C930.17,1271.2 934.836,1269.26 939.77,1266.86C944.703,1264.46 949.836,1260.6 955.17,1255.26C954.37,1243.26 953.37,1231.6 952.17,1220.26C950.97,1208.93 949.303,1198.46 947.17,1188.86C945.036,1179.26 942.17,1170.93 938.57,1163.86C934.97,1156.8 930.236,1151.66 924.37,1148.46C927.57,1142.86 930.836,1137.33 934.17,1131.86C937.503,1126.4 940.57,1120.33 943.37,1113.66C946.17,1107 948.636,1099.33 950.77,1090.66C952.903,1082 954.37,1071.8 955.17,1060.06C950.103,1059.26 946.303,1058.06 943.77,1056.46C941.236,1054.86 939.103,1052.86 937.37,1050.46C935.636,1048.06 933.836,1045.4 931.97,1042.46C930.103,1039.53 927.436,1036.46 923.97,1033.26L897.97,1031.26C897.17,1041.4 896.103,1049.8 894.77,1056.46C893.436,1063.13 891.836,1068.93 889.97,1073.86C888.103,1078.8 885.903,1083.13 883.37,1086.86C880.836,1090.6 877.97,1094.46 874.77,1098.46L855.17,1129.66Z" style="fill:white;fill-rule:nonzero;"/>
            </g>
            <g transform="matrix(1,0,0,1,-13.2699,-5.2)">
                <path d="M967.17,1171.66L967.17,1169.66L971.17,1073.66L971.17,1064.46L971.17,1058.46C971.17,1055.53 970.57,1052.93 969.37,1050.66C968.17,1048.4 966.103,1045.4 963.17,1041.66L971.17,1037.66C971.703,1037.4 975.703,1036.93 983.17,1036.26C990.636,1035.6 999.503,1034.86 1009.77,1034.06C1020.04,1033.26 1030.5,1032.46 1041.17,1031.66C1051.84,1030.86 1060.5,1030.2 1067.17,1029.66L1084.37,1029.66C1086.77,1029.66 1089.37,1029.73 1092.17,1029.86C1094.97,1030 1097.57,1030.06 1099.97,1030.06L1105.17,1030.06C1107.84,1032.46 1112.24,1036.8 1118.37,1043.06C1124.5,1049.33 1130.77,1055.93 1137.17,1062.86C1143.57,1069.8 1149.17,1076.4 1153.97,1082.66C1158.77,1088.93 1161.17,1093.4 1161.17,1096.06C1161.17,1106.73 1159.84,1115.26 1157.17,1121.66C1154.5,1128.06 1150.97,1133.2 1146.57,1137.06C1142.17,1140.93 1137.17,1143.93 1131.57,1146.06C1125.97,1148.2 1120.37,1150.4 1114.77,1152.66C1109.17,1154.93 1103.77,1157.6 1098.57,1160.66C1093.37,1163.73 1088.9,1168.2 1085.17,1174.06C1085.7,1174.6 1087.04,1175.33 1089.17,1176.26C1091.3,1177.2 1092.64,1177.8 1093.17,1178.06C1094.77,1178.6 1097.44,1179.26 1101.17,1180.06C1104.9,1180.86 1108.9,1181.66 1113.17,1182.46C1117.44,1183.26 1121.44,1184 1125.17,1184.66C1128.9,1185.33 1131.57,1185.8 1133.17,1186.06L1137.17,1190.06C1136.37,1200.73 1136.04,1210.13 1136.17,1218.26C1136.3,1226.4 1137.5,1233.66 1139.77,1240.06C1142.04,1246.46 1145.77,1252.06 1150.97,1256.86C1156.17,1261.66 1163.57,1266.06 1173.17,1270.06C1166.77,1273.8 1159.84,1276.33 1152.37,1277.66C1144.9,1279 1137.3,1279.66 1129.57,1279.66C1121.84,1279.66 1115.5,1279.2 1110.57,1278.26C1105.64,1277.33 1099.57,1276.86 1092.37,1276.86L1092.37,1276.46L1084.37,1268.46C1083.04,1266.6 1080.64,1263.4 1077.17,1258.86C1073.7,1254.33 1070.1,1249.53 1066.37,1244.46C1062.64,1239.4 1059.04,1234.6 1055.57,1230.06C1052.1,1225.53 1049.7,1222.33 1048.37,1220.46L1016.78,1221.65C1011.98,1235.78 1022.84,1247.4 1012.57,1256.46C1002.3,1265.53 991.17,1273.93 979.17,1281.66L975.17,1269.66C975.17,1269.66 975.036,1267.93 974.77,1264.46C974.503,1261 974.103,1256.46 973.57,1250.86C973.036,1245.26 972.503,1239 971.97,1232.06C971.436,1225.13 970.903,1218.13 970.37,1211.06C969.836,1204 969.236,1197.2 968.57,1190.66C967.903,1184.13 967.436,1178.46 967.17,1173.66L967.17,1171.66ZM1023.17,1081.66C1017.3,1089.13 1013.7,1098.13 1012.37,1108.66C1011.04,1119.2 1010.37,1129.13 1010.37,1138.46C1015.44,1138.46 1021.24,1138.13 1027.77,1137.46C1034.3,1136.8 1040.77,1136.06 1047.17,1135.26C1053.57,1134.46 1059.57,1133.53 1065.17,1132.46C1070.77,1131.4 1075.44,1130.46 1079.17,1129.66C1079.17,1128.33 1079.24,1125.66 1079.37,1121.66C1079.5,1117.66 1079.57,1115 1079.57,1113.66C1079.57,1106.2 1078.44,1100.33 1076.17,1096.06C1073.9,1091.8 1070.77,1088.6 1066.77,1086.46C1062.77,1084.33 1057.9,1082.93 1052.17,1082.26C1046.44,1081.6 1040.1,1081.26 1033.17,1081.26C1032.37,1081.26 1030.7,1081.33 1028.17,1081.46C1025.64,1081.6 1023.97,1081.66 1023.17,1081.66Z" style="fill:white;fill-rule:nonzero;"/>
            </g>
            <g transform="matrix(1,0,0,1,-17.4737,-2.4)">
                <path d="M1165.17,1206.86C1165.44,1205 1165.84,1201.6 1166.37,1196.66C1166.9,1191.73 1167.37,1186.53 1167.77,1181.06C1168.17,1175.6 1168.5,1170.4 1168.77,1165.46C1169.04,1160.53 1169.17,1157 1169.17,1154.86C1169.17,1154.06 1169.1,1151.86 1168.97,1148.26C1168.84,1144.66 1168.77,1140.86 1168.77,1136.86L1168.77,1125.66C1168.77,1121.4 1168.9,1119.13 1169.17,1118.86C1169.97,1115.4 1171.57,1110.86 1173.97,1105.26C1176.37,1099.66 1179.17,1093.53 1182.37,1086.86C1185.57,1080.2 1189.17,1073.53 1193.17,1066.86C1197.17,1060.2 1201.17,1054.2 1205.17,1048.86C1209.17,1043.53 1213.04,1039.13 1216.77,1035.66C1220.5,1032.2 1223.7,1030.46 1226.37,1030.46C1227.17,1030.46 1228.44,1030.53 1230.17,1030.66C1231.9,1030.8 1232.9,1030.86 1233.17,1030.86L1305.17,1038.86L1313.17,1054.86C1314.5,1058.06 1316.7,1063.6 1319.77,1071.46C1322.84,1079.33 1326.04,1087.73 1329.37,1096.66C1332.7,1105.6 1335.9,1114.06 1338.97,1122.06C1342.04,1130.06 1344.1,1135.66 1345.17,1138.86C1345.17,1139.66 1345.24,1141.33 1345.37,1143.86C1345.5,1146.4 1345.57,1148.06 1345.57,1148.86C1345.57,1153.13 1345.3,1159.86 1344.77,1169.06C1344.24,1178.26 1343.24,1187.73 1341.77,1197.46C1340.3,1207.2 1338.24,1216.06 1335.57,1224.06C1332.9,1232.06 1329.44,1237 1325.17,1238.86L1241.17,1278.86L1229.17,1278.86C1229.17,1278.86 1227.44,1277.46 1223.97,1274.66C1220.5,1271.86 1216.44,1268.6 1211.77,1264.86C1207.1,1261.13 1202.3,1257.2 1197.37,1253.06C1192.44,1248.93 1188.37,1245.53 1185.17,1242.86C1182.24,1240.46 1179.84,1237.33 1177.97,1233.46C1176.1,1229.6 1174.44,1225.8 1172.97,1222.06C1171.5,1218.33 1170.17,1215 1168.97,1212.06C1167.77,1209.13 1166.5,1207.4 1165.17,1206.86ZM1238.77,1106.86C1237.7,1106.86 1236.37,1107.46 1234.77,1108.66C1233.17,1109.86 1231.7,1111.26 1230.37,1112.86C1229.04,1114.46 1227.84,1116.2 1226.77,1118.06C1225.7,1119.93 1225.17,1121.53 1225.17,1122.86L1225.17,1182.86C1225.17,1183.4 1225.7,1184.2 1226.77,1185.26C1227.84,1186.33 1228.64,1186.86 1229.17,1186.86C1229.44,1186.86 1231.04,1186.93 1233.97,1187.06C1236.9,1187.2 1239.17,1187.26 1240.77,1187.26C1245.84,1187.26 1250.64,1187 1255.17,1186.46C1259.7,1185.93 1263.64,1184.66 1266.97,1182.66C1270.3,1180.66 1272.9,1177.8 1274.77,1174.06C1276.64,1170.33 1277.57,1165.4 1277.57,1159.26C1277.57,1151.53 1276.77,1144.33 1275.17,1137.66C1273.57,1131 1271.57,1123.4 1269.17,1114.86C1264.64,1113.26 1259.57,1111.53 1253.97,1109.66C1248.37,1107.8 1243.3,1106.86 1238.77,1106.86Z" style="fill:white;fill-rule:nonzero;"/>
            </g>
            <g transform="matrix(1,0,0,1,-24.5126,-1.2)">
                <path d="M1357.17,1154.86C1357.17,1145 1357.3,1134.73 1357.57,1124.06C1357.84,1113.4 1358.17,1102.8 1358.57,1092.26C1358.97,1081.73 1359.37,1071.46 1359.77,1061.46C1360.17,1051.46 1360.64,1042.2 1361.17,1033.66C1365.97,1032.86 1370.1,1032.2 1373.57,1031.66C1377.04,1031.13 1380.3,1030.66 1383.37,1030.26C1386.44,1029.86 1389.57,1029.6 1392.77,1029.46C1395.97,1029.33 1399.84,1029.26 1404.37,1029.26C1405.17,1029.26 1407.3,1029.33 1410.77,1029.46C1414.24,1029.6 1416.37,1029.66 1417.17,1029.66C1421.7,1032.86 1424.17,1037 1424.57,1042.06C1424.97,1047.13 1425.17,1052.2 1425.17,1057.26C1425.17,1090.86 1424.97,1123.66 1424.57,1155.66C1424.17,1187.66 1421.7,1220.33 1417.17,1253.66C1407.84,1255 1399.04,1258.33 1390.77,1263.66C1382.5,1269 1375.04,1275 1368.37,1281.66L1364.77,1281.66C1363.97,1260.6 1362.5,1239.46 1360.37,1218.26C1358.24,1197.06 1357.17,1175.93 1357.17,1154.86Z" style="fill:white;fill-rule:nonzero;"/>
            </g>
            <g transform="matrix(1,0,0,1,-33.1126,-0.8)">
                <path d="M1447.57,1250.86C1447.04,1248.46 1446.3,1243.73 1445.37,1236.66C1444.44,1229.6 1443.57,1222.13 1442.77,1214.26C1441.97,1206.4 1441.24,1198.93 1440.57,1191.86C1439.9,1184.8 1439.44,1179.93 1439.17,1177.26L1439.17,1174.86C1439.17,1173 1439.1,1170.93 1438.97,1168.66C1438.84,1166.4 1438.77,1164.2 1438.77,1162.06L1438.77,1156.06L1438.77,1149.66C1438.77,1146.73 1438.84,1143.86 1438.97,1141.06C1439.1,1138.26 1439.17,1135.8 1439.17,1133.66L1439.17,1129.26C1439.44,1123.13 1439.77,1115.33 1440.17,1105.86C1440.57,1096.4 1440.97,1087.2 1441.37,1078.26C1441.77,1069.33 1442.17,1061.6 1442.57,1055.06C1442.97,1048.53 1443.17,1045.26 1443.17,1045.26L1447.17,1041.26C1447.17,1041.26 1449.04,1041.06 1452.77,1040.66C1456.5,1040.26 1460.9,1039.86 1465.97,1039.46C1471.04,1039.06 1476.3,1038.66 1481.77,1038.26C1487.24,1037.86 1491.7,1037.53 1495.17,1037.26L1507.57,1037.26C1509.7,1037.26 1510.9,1038.6 1511.17,1041.26C1512.77,1047.4 1514.5,1054 1516.37,1061.06C1518.24,1068.13 1520.57,1075.13 1523.37,1082.06C1526.17,1089 1529.5,1095.53 1533.37,1101.66C1537.24,1107.8 1541.84,1113 1547.17,1117.26L1551.17,1113.26C1549.04,1098.86 1547.7,1084.73 1547.17,1070.86C1546.64,1057 1546.37,1042.86 1546.37,1028.46C1549.84,1028.46 1554.17,1029.86 1559.37,1032.66C1564.57,1035.46 1569.57,1038.93 1574.37,1043.06C1579.17,1047.2 1583.24,1051.53 1586.57,1056.06C1589.9,1060.6 1591.57,1064.6 1591.57,1068.06C1591.57,1081.66 1591.24,1094.73 1590.57,1107.26C1589.9,1119.8 1589.24,1132.33 1588.57,1144.86C1587.9,1157.4 1587.37,1170.2 1586.97,1183.26C1586.57,1196.33 1586.64,1210.33 1587.17,1225.26L1579.17,1257.26C1578.64,1258.6 1577.9,1260.8 1576.97,1263.86C1576.04,1266.93 1575.44,1268.73 1575.17,1269.26C1574.64,1269.8 1573.97,1270.6 1573.17,1271.66C1572.37,1272.73 1571.7,1273.26 1571.17,1273.26L1531.17,1273.26C1530.64,1273.26 1529.9,1271.13 1528.97,1266.86C1528.04,1262.6 1526.97,1257.66 1525.77,1252.06C1524.57,1246.46 1523.37,1241.06 1522.17,1235.86C1520.97,1230.66 1519.97,1227.13 1519.17,1225.26C1517.57,1221.8 1515.44,1217.33 1512.77,1211.86C1510.1,1206.4 1507.44,1201.06 1504.77,1195.86C1502.1,1190.66 1499.84,1186.26 1497.97,1182.66C1496.1,1179.06 1495.17,1177.26 1495.17,1177.26L1491.17,1177.26C1490.37,1177.26 1489.7,1178.4 1489.17,1180.66C1488.64,1182.93 1488.24,1185.6 1487.97,1188.66C1487.7,1191.73 1487.5,1194.73 1487.37,1197.66C1487.24,1200.6 1487.17,1202.86 1487.17,1204.46L1487.17,1213.26C1487.17,1215.4 1487.3,1219.33 1487.57,1225.06C1487.84,1230.8 1488.17,1236.86 1488.57,1243.26C1488.97,1249.66 1489.44,1255.73 1489.97,1261.46C1490.5,1267.2 1490.9,1271.13 1491.17,1273.26L1487.17,1277.26C1486.1,1276.46 1483.84,1275.13 1480.37,1273.26C1476.9,1271.4 1473.24,1269.33 1469.37,1267.06C1465.5,1264.8 1461.84,1262.53 1458.37,1260.26C1454.9,1258 1452.64,1256.2 1451.57,1254.86C1451.04,1254.6 1450.3,1254 1449.37,1253.06C1448.44,1252.13 1447.84,1251.4 1447.57,1250.86Z" style="fill:white;fill-rule:nonzero;"/>
            </g>
            <g transform="matrix(1,0,0,1,-31,0)">
                <path d="M1712.17,1174.26C1710.17,1177.6 1693.21,1183.13 1692.67,1177.26C1692.14,1171.39 1677.04,1117.68 1673.44,1102.88C1669.84,1088.09 1666.49,1076.99 1663.96,1065.92C1661.42,1054.86 1651.5,1031.53 1647.37,1032.86C1643.24,1034.2 1639.3,1035.46 1635.57,1036.66C1631.84,1037.86 1629.17,1038.73 1627.57,1039.26C1624.37,1040.33 1620.97,1041.2 1617.37,1041.86C1613.77,1042.53 1610.44,1043.46 1607.37,1044.66C1604.3,1045.86 1601.77,1047.6 1599.77,1049.86C1597.77,1052.13 1596.77,1055.4 1596.77,1059.66L1597.17,1065.66C1604.1,1081.66 1610.7,1097.93 1616.97,1114.46C1623.24,1131 1628.84,1147.73 1633.77,1164.66C1638.7,1181.6 1642.77,1198.73 1645.97,1216.06C1649.17,1233.4 1651.17,1250.86 1651.97,1268.46L1655.97,1276.46C1655.97,1276.46 1657.9,1276.73 1661.77,1277.26C1665.64,1277.8 1670.3,1278.33 1675.77,1278.86C1681.24,1279.4 1686.97,1279.93 1692.97,1280.46C1698.97,1281 1704.37,1281.4 1709.17,1281.66L1722.37,1281.66C1722.9,1281.66 1723.97,1281.73 1725.57,1281.86C1727.17,1282 1728.77,1282.06 1730.37,1282.06C1731.97,1282.06 1733.44,1281.73 1734.77,1281.06C1736.1,1280.4 1736.9,1279.26 1737.17,1277.66C1738.24,1275.26 1739.7,1271.53 1741.57,1266.46C1743.44,1261.4 1745.44,1255.53 1747.57,1248.86C1749.7,1242.2 1751.97,1235.2 1754.37,1227.86C1756.77,1220.53 1758.97,1213.6 1760.97,1207.06C1762.97,1200.53 1764.7,1194.6 1766.17,1189.26C1767.64,1183.93 1768.64,1180.06 1769.17,1177.66C1769.7,1175.8 1770.77,1171.13 1772.37,1163.66C1773.97,1156.2 1775.64,1148.2 1777.37,1139.66C1779.1,1131.13 1780.77,1123.13 1782.37,1115.66C1783.97,1108.2 1784.9,1103.53 1785.17,1101.66C1786.77,1094.46 1788.84,1088.33 1791.37,1083.26C1793.9,1078.2 1796.5,1073.33 1799.17,1068.66C1801.84,1064 1804.44,1059 1806.97,1053.66C1809.5,1048.33 1811.57,1041.66 1813.17,1033.66L1793.17,1033.66L1789.97,1033.26C1783.3,1033.26 1777.17,1033.46 1771.57,1033.86C1765.97,1034.26 1759.84,1035.53 1753.17,1037.66L1721.97,1141.66C1721.97,1144.6 1721.57,1148 1720.77,1151.86C1719.97,1155.73 1718.84,1159.6 1717.37,1163.46C1715.9,1167.33 1714.17,1170.93 1712.17,1174.26Z" style="fill:white;fill-rule:nonzero;"/>
            </g>
            <g transform="matrix(1,0,0,1,-29,0)">
                <path d="M1823.57,1158.86C1823.57,1155.13 1823.44,1152.33 1823.17,1150.46C1822.9,1148.6 1821.7,1145.66 1819.57,1141.66L1819.57,1136.06C1819.57,1133.13 1819.5,1130.06 1819.37,1126.86C1819.24,1123.66 1819.17,1120.6 1819.17,1117.66L1819.17,1111.66L1819.17,1090.46C1819.17,1085.66 1819.24,1081 1819.37,1076.46C1819.5,1071.93 1819.77,1067.33 1820.17,1062.66C1820.57,1058 1821.04,1053 1821.57,1047.66C1822.1,1042.33 1822.77,1036.33 1823.57,1029.66L1830.77,1029.66C1834.5,1029.66 1838.44,1029.6 1842.57,1029.46C1846.7,1029.33 1850.5,1029.26 1853.97,1029.26L1861.57,1029.26C1871.17,1029.26 1880.44,1029.6 1889.37,1030.26C1898.3,1030.93 1907.3,1031.6 1916.37,1032.26C1925.44,1032.93 1934.5,1033.46 1943.57,1033.86C1952.64,1034.26 1961.97,1034.2 1971.57,1033.66C1969.44,1038.46 1969.65,1043.68 1967.52,1048.88C1965.38,1054.08 1968.9,1058.42 1966.1,1063.22C1963.3,1068.02 1966.88,1076.87 1963.28,1080.73C1959.68,1084.6 1940.37,1083.53 1935.57,1085.66C1930.24,1088.33 1925.1,1089.6 1920.17,1089.46C1915.24,1089.33 1910.9,1089.86 1907.17,1091.06C1903.44,1092.26 1900.5,1095.06 1898.37,1099.46C1896.24,1103.86 1895.17,1112.06 1895.17,1124.06C1895.17,1125.93 1895.3,1127.86 1895.57,1129.86C1895.84,1131.86 1897.17,1133.13 1899.57,1133.66C1901.44,1133.93 1904.9,1134.46 1909.97,1135.26C1915.04,1136.06 1920.3,1136.86 1925.77,1137.66C1931.24,1138.46 1936.44,1139.26 1941.37,1140.06C1946.3,1140.86 1949.7,1141.4 1951.57,1141.66C1952.1,1141.93 1953.44,1142.53 1955.57,1143.46C1957.7,1144.4 1959.04,1145.13 1959.57,1145.66C1958.77,1147.26 1957.44,1149.46 1955.57,1152.26C1953.7,1155.06 1951.77,1157.86 1949.77,1160.66C1947.77,1163.46 1945.84,1166.06 1943.97,1168.46C1942.1,1170.86 1940.64,1172.6 1939.57,1173.66C1935.57,1177.66 1931.24,1180.06 1926.57,1180.86C1921.9,1181.66 1917.5,1182.46 1913.37,1183.26C1909.24,1184.06 1905.84,1185.6 1903.17,1187.86C1900.5,1190.13 1899.17,1194.6 1899.17,1201.26L1899.17,1208.86C1899.17,1212.6 1899.7,1216.66 1900.77,1221.06C1901.84,1225.46 1904.1,1228.33 1907.57,1229.66C1919.84,1232.06 1932.37,1233.46 1945.17,1233.86C1957.97,1234.26 1970.77,1234.2 1983.57,1233.66C1981.97,1237.13 1979.5,1240.86 1976.17,1244.86C1972.84,1248.86 1977.49,1254.93 1973.89,1258.8C1970.29,1262.66 1972.83,1265.43 1969.49,1268.36C1966.16,1271.29 1949.44,1272.06 1947.57,1273.66C1947.3,1273.4 1945.17,1273.26 1941.17,1273.26L1931.57,1273.26L1907.57,1273.26L1883.17,1273.26L1873.57,1273.26C1869.84,1273.26 1867.84,1273.4 1867.57,1273.66C1866.5,1273.66 1863.84,1274.06 1859.57,1274.86C1855.3,1275.66 1850.64,1276.53 1845.57,1277.46C1840.5,1278.4 1835.84,1279.26 1831.57,1280.06C1827.3,1280.86 1824.64,1281.4 1823.57,1281.66C1823.3,1281.66 1822.57,1281.73 1821.37,1281.86C1820.17,1282 1819.3,1282.06 1818.77,1282.06C1818.77,1261.26 1819.57,1240.73 1821.17,1220.46C1822.77,1200.2 1823.57,1179.66 1823.57,1158.86Z" style="fill:white;fill-rule:nonzero;"/>
            </g>
            <g transform="matrix(-1,0,-0,1,4150.74,-3)">
                <path d="M1988.37,1171.66L1988.37,1169.66L1992.37,1073.66L1992.37,1064.46L1992.37,1058.46C1992.37,1055.53 1991.77,1052.93 1990.57,1050.66C1989.37,1048.4 1987.3,1045.4 1984.37,1041.66L1992.37,1037.66C1992.9,1037.4 1996.9,1036.93 2004.37,1036.26C2011.84,1035.6 2020.7,1034.86 2030.97,1034.06C2041.24,1033.26 2051.7,1032.46 2062.37,1031.66C2073.04,1030.86 2081.7,1030.2 2088.37,1029.66L2105.57,1029.66C2107.97,1029.66 2110.57,1029.73 2113.37,1029.86C2116.17,1030 2118.77,1030.06 2121.17,1030.06L2126.37,1030.06C2129.04,1032.46 2133.44,1036.8 2139.57,1043.06C2145.7,1049.33 2151.97,1055.93 2158.37,1062.86C2164.77,1069.8 2170.37,1076.4 2175.17,1082.66C2179.97,1088.93 2182.37,1093.4 2182.37,1096.06C2182.37,1106.73 2181.04,1115.26 2178.37,1121.66C2175.7,1128.06 2172.17,1133.2 2167.77,1137.06C2163.37,1140.93 2158.37,1143.93 2152.77,1146.06C2147.17,1148.2 2141.57,1150.4 2135.97,1152.66C2130.37,1154.93 2124.97,1157.6 2119.77,1160.66C2114.57,1163.73 2110.1,1168.2 2106.37,1174.06C2106.9,1174.6 2108.24,1175.33 2110.37,1176.26C2112.5,1177.2 2113.84,1177.8 2114.37,1178.06C2115.97,1178.6 2118.64,1179.26 2122.37,1180.06C2126.1,1180.86 2130.1,1181.66 2134.37,1182.46C2138.64,1183.26 2142.64,1184 2146.37,1184.66C2150.1,1185.33 2152.77,1185.8 2154.37,1186.06L2158.37,1190.06C2157.57,1200.73 2157.24,1210.13 2157.37,1218.26C2157.5,1226.4 2158.7,1233.66 2160.97,1240.06C2163.24,1246.46 2166.97,1252.06 2172.17,1256.86C2177.37,1261.66 2184.77,1266.06 2194.37,1270.06C2187.97,1273.8 2181.04,1276.33 2173.57,1277.66C2166.1,1279 2158.5,1279.66 2150.77,1279.66C2143.04,1279.66 2136.7,1279.2 2131.77,1278.26C2126.84,1277.33 2120.77,1276.86 2113.57,1276.86L2113.57,1276.46L2105.57,1268.46C2104.24,1266.6 2101.84,1263.4 2098.37,1258.86C2094.9,1254.33 2091.3,1249.53 2087.57,1244.46C2083.84,1239.4 2080.24,1234.6 2076.77,1230.06C2073.3,1225.53 2070.9,1222.33 2069.57,1220.46L2056.37,1221.66C2051.57,1235.8 2044.04,1247.4 2033.77,1256.46C2023.5,1265.53 2012.37,1273.93 2000.37,1281.66L1996.37,1269.66C1996.37,1269.66 1996.24,1267.93 1995.97,1264.46C1995.7,1261 1995.3,1256.46 1994.77,1250.86C1994.24,1245.26 1993.7,1239 1993.17,1232.06C1992.64,1225.13 1992.1,1218.13 1991.57,1211.06C1991.04,1204 1990.44,1197.2 1989.77,1190.66C1989.1,1184.13 1988.64,1178.46 1988.37,1173.66L1988.37,1171.66ZM2044.37,1081.66C2038.5,1089.13 2034.9,1098.13 2033.57,1108.66C2032.24,1119.2 2031.57,1129.13 2031.57,1138.46C2036.64,1138.46 2042.44,1138.13 2048.97,1137.46C2055.5,1136.8 2061.97,1136.06 2068.37,1135.26C2074.77,1134.46 2080.77,1133.53 2086.37,1132.46C2091.97,1131.4 2096.64,1130.46 2100.37,1129.66C2100.37,1128.33 2100.44,1125.66 2100.57,1121.66C2100.7,1117.66 2100.77,1115 2100.77,1113.66C2100.77,1106.2 2099.64,1100.33 2097.37,1096.06C2095.1,1091.8 2091.97,1088.6 2087.97,1086.46C2083.97,1084.33 2079.1,1082.93 2073.37,1082.26C2067.64,1081.6 2061.3,1081.26 2054.37,1081.26C2053.57,1081.26 2051.9,1081.33 2049.37,1081.46C2046.84,1081.6 2045.17,1081.66 2044.37,1081.66Z" style="fill:white;fill-rule:nonzero;"/>
            </g>
            <g transform="matrix(1,0,0,1,-21,0)">
                <path d="M2321.17,1149.66L2329.17,1141.66C2330.77,1136.86 2332.9,1131.33 2335.57,1125.06C2338.24,1118.8 2340.77,1112.8 2343.17,1107.06C2345.57,1101.33 2347.7,1096.33 2349.57,1092.06C2351.44,1087.8 2352.37,1085.4 2352.37,1084.86C2352.37,1084.6 2352.44,1083.33 2352.57,1081.06C2352.7,1078.8 2352.9,1076.26 2353.17,1073.46C2353.44,1070.66 2353.64,1067.86 2353.77,1065.06C2353.9,1062.26 2353.97,1060.06 2353.97,1058.46C2353.97,1057.4 2353.9,1055.8 2353.77,1053.66C2353.64,1051.53 2353.44,1049.33 2353.17,1047.06C2352.9,1044.8 2352.7,1042.66 2352.57,1040.66C2352.44,1038.66 2352.37,1037.4 2352.37,1036.86L2348.37,1028.86C2347.57,1029.13 2346.04,1029.53 2343.77,1030.06C2341.5,1030.6 2339.04,1031.06 2336.37,1031.46C2333.7,1031.86 2331.24,1032.2 2328.97,1032.46C2326.7,1032.73 2325.17,1032.86 2324.37,1032.86C2321.7,1032.86 2317.24,1032.93 2310.97,1033.06C2304.7,1033.2 2297.84,1033.26 2290.37,1033.26L2288.77,1032.46C2286.64,1032.46 2282.9,1032.53 2277.57,1032.66C2272.24,1032.8 2266.5,1032.86 2260.37,1032.86L2258.77,1033.66C2254.77,1033.66 2250.57,1033.86 2246.17,1034.26C2241.77,1034.66 2237.57,1035.06 2233.57,1035.46C2229.57,1035.86 2226.04,1036.26 2222.97,1036.66C2219.9,1037.06 2217.7,1037.26 2216.37,1037.26L2211.57,1037.26L2203.97,1037.26C2201.3,1037.26 2198.77,1037.2 2196.37,1037.06C2193.97,1036.93 2192.37,1036.73 2191.57,1036.46L2187.57,1044.46C2187.57,1045.26 2187.5,1046.53 2187.37,1048.26C2187.24,1050 2187.1,1051.86 2186.97,1053.86C2186.84,1055.86 2186.7,1057.86 2186.57,1059.86C2186.44,1061.86 2186.37,1063.4 2186.37,1064.46C2186.37,1066.06 2186.44,1068.13 2186.57,1070.66C2186.7,1073.2 2186.9,1075.66 2187.17,1078.06C2187.44,1080.46 2187.64,1082.6 2187.77,1084.46C2187.9,1086.33 2187.97,1087.4 2187.97,1087.66C2187.97,1088.2 2188.9,1090.13 2190.77,1093.46C2192.64,1096.8 2194.9,1100.8 2197.57,1105.46C2200.24,1110.13 2202.9,1115.13 2205.57,1120.46C2208.24,1125.8 2210.37,1130.86 2211.97,1135.66C2214.1,1135.4 2215.97,1133.6 2217.57,1130.26C2219.17,1126.93 2220.64,1122.86 2221.97,1118.06C2223.3,1113.26 2224.77,1108.33 2226.37,1103.26C2227.97,1098.2 2229.84,1093.66 2231.97,1089.66L2243.57,1088.06C2243.57,1100.6 2243.5,1114.06 2243.37,1128.46C2243.24,1142.86 2243.3,1157.4 2243.57,1172.06C2243.84,1186.73 2244.37,1201.26 2245.17,1215.66C2245.97,1230.06 2247.3,1243.4 2249.17,1255.66C2254.24,1259.13 2257.64,1261.8 2259.37,1263.66C2261.1,1265.53 2262.37,1267.26 2263.17,1268.86C2263.97,1270.46 2264.9,1272.2 2265.97,1274.06C2267.04,1275.93 2269.3,1278.46 2272.77,1281.66L2292.37,1282.86C2292.64,1272.46 2293.24,1261.33 2294.17,1249.46C2295.1,1237.6 2296.1,1225.6 2297.17,1213.46C2298.24,1201.33 2299.17,1189.33 2299.97,1177.46C2300.77,1165.6 2301.17,1154.46 2301.17,1144.06C2301.17,1136.06 2301.24,1128.06 2301.37,1120.06C2301.5,1112.06 2301.57,1103.8 2301.57,1095.26L2314.77,1088.86C2317.17,1092.86 2318.77,1097.8 2319.57,1103.66C2320.37,1109.53 2320.84,1115.46 2320.97,1121.46C2321.1,1127.46 2321.1,1133.06 2320.97,1138.26C2320.84,1143.46 2320.9,1147.26 2321.17,1149.66Z" style="fill:white;fill-rule:nonzero;"/>
            </g>
            <g transform="matrix(1,0,0,1,-18,0)">
                <path d="M2369.17,1158.86C2369.17,1155.13 2369.04,1152.33 2368.77,1150.46C2368.5,1148.6 2367.3,1145.66 2365.17,1141.66L2365.17,1136.06C2365.17,1133.13 2365.1,1130.06 2364.97,1126.86C2364.84,1123.66 2364.77,1120.6 2364.77,1117.66L2364.77,1111.66L2364.77,1090.46C2364.77,1085.66 2364.84,1081 2364.97,1076.46C2365.1,1071.93 2365.37,1067.33 2365.77,1062.66C2366.17,1058 2366.64,1053 2367.17,1047.66C2367.7,1042.33 2368.37,1036.33 2369.17,1029.66L2376.37,1029.66C2380.1,1029.66 2384.04,1029.6 2388.17,1029.46C2392.3,1029.33 2396.1,1029.26 2399.57,1029.26L2407.17,1029.26C2416.77,1029.26 2426.04,1029.6 2434.97,1030.26C2443.9,1030.93 2452.9,1031.6 2461.97,1032.26C2471.04,1032.93 2480.1,1033.46 2489.17,1033.86C2498.24,1034.26 2507.57,1034.2 2517.17,1033.66C2515.04,1038.46 2512.9,1043.46 2510.77,1048.66C2508.64,1053.86 2506.17,1058.86 2503.37,1063.66C2500.57,1068.46 2497.37,1072.8 2493.77,1076.66C2490.17,1080.53 2485.97,1083.53 2481.17,1085.66C2475.84,1088.33 2470.7,1089.6 2465.77,1089.46C2460.84,1089.33 2456.5,1089.86 2452.77,1091.06C2449.04,1092.26 2446.1,1095.06 2443.97,1099.46C2441.84,1103.86 2440.77,1112.06 2440.77,1124.06C2440.77,1125.93 2440.9,1127.86 2441.17,1129.86C2441.44,1131.86 2442.77,1133.13 2445.17,1133.66C2447.04,1133.93 2450.5,1134.46 2455.57,1135.26C2460.64,1136.06 2465.9,1136.86 2471.37,1137.66C2476.84,1138.46 2482.04,1139.26 2486.97,1140.06C2491.9,1140.86 2495.3,1141.4 2497.17,1141.66C2497.7,1141.93 2499.04,1142.53 2501.17,1143.46C2503.3,1144.4 2504.64,1145.13 2505.17,1145.66C2504.37,1147.26 2503.04,1149.46 2501.17,1152.26C2499.3,1155.06 2497.37,1157.86 2495.37,1160.66C2493.37,1163.46 2491.44,1166.06 2489.57,1168.46C2487.7,1170.86 2486.24,1172.6 2485.17,1173.66C2481.17,1177.66 2476.84,1180.06 2472.17,1180.86C2467.5,1181.66 2463.1,1182.46 2458.97,1183.26C2454.84,1184.06 2451.44,1185.6 2448.77,1187.86C2446.1,1190.13 2444.77,1194.6 2444.77,1201.26L2444.77,1208.86C2444.77,1212.6 2445.3,1216.66 2446.37,1221.06C2447.44,1225.46 2449.7,1228.33 2453.17,1229.66C2465.44,1232.06 2477.97,1233.46 2490.77,1233.86C2503.57,1234.26 2516.37,1234.2 2529.17,1233.66C2527.57,1237.13 2525.1,1240.86 2521.77,1244.86C2518.44,1248.86 2514.97,1252.8 2511.37,1256.66C2507.77,1260.53 2504.3,1263.93 2500.97,1266.86C2497.64,1269.8 2495.04,1272.06 2493.17,1273.66C2492.9,1273.4 2490.77,1273.26 2486.77,1273.26L2477.17,1273.26L2453.17,1273.26L2428.77,1273.26L2419.17,1273.26C2415.44,1273.26 2413.44,1273.4 2413.17,1273.66C2412.1,1273.66 2409.44,1274.06 2405.17,1274.86C2400.9,1275.66 2396.24,1276.53 2391.17,1277.46C2386.1,1278.4 2381.44,1279.26 2377.17,1280.06C2372.9,1280.86 2370.24,1281.4 2369.17,1281.66C2368.9,1281.66 2368.17,1281.73 2366.97,1281.86C2365.77,1282 2364.9,1282.06 2364.37,1282.06C2364.37,1261.26 2365.17,1240.73 2366.77,1220.46C2368.37,1200.2 2369.17,1179.66 2369.17,1158.86Z" style="fill:white;fill-rule:nonzero;"/>
            </g>
            <g transform="matrix(1,0,0,1.15716,-20,-202.879)">
                <path d="M2544.77,1198.86L2536.77,1186.86C2536.5,1186.6 2536.17,1184.13 2535.77,1179.46C2535.37,1174.8 2534.97,1169.26 2534.57,1162.86C2534.17,1156.46 2533.77,1149.93 2533.37,1143.26C2532.97,1136.6 2532.77,1131.13 2532.77,1126.86L2532.77,1118.06C2532.77,1113 2532.84,1108.06 2532.97,1103.26C2533.1,1098.46 2533.17,1093 2533.17,1086.86L2533.17,1072.86L2533.17,1063.26C2533.17,1059.26 2533.24,1055.26 2533.37,1051.26C2533.5,1047.26 2533.57,1043.8 2533.57,1040.86L2533.57,1035.26L2537.57,1031.26L2669.17,1032.06L2673.97,1041.66C2675.3,1044.33 2676.77,1047 2678.37,1049.66C2679.97,1052.33 2681.57,1054.6 2683.17,1056.46C2685.04,1058.6 2688.24,1062.06 2692.77,1066.86C2697.3,1071.66 2702.1,1076.8 2707.17,1082.26C2712.24,1087.73 2716.97,1092.86 2721.37,1097.66C2725.77,1102.46 2728.77,1105.93 2730.37,1108.06C2730.37,1109.13 2730.44,1111.46 2730.57,1115.06C2730.7,1118.66 2730.77,1121 2730.77,1122.06C2730.77,1123.93 2730.7,1126.6 2730.57,1130.06C2730.44,1133.53 2730.37,1135.53 2730.37,1136.06C2730.37,1137.4 2730.04,1140.66 2729.37,1145.86C2728.7,1151.06 2727.97,1156.86 2727.17,1163.26C2726.37,1169.66 2725.5,1175.93 2724.57,1182.06C2723.64,1188.2 2722.9,1192.86 2722.37,1196.06C2721.84,1199.53 2721.44,1202.6 2721.17,1205.26C2720.9,1207.93 2720.44,1210.33 2719.77,1212.46C2719.1,1214.6 2718.04,1216.6 2716.57,1218.46C2715.1,1220.33 2713.04,1222.2 2710.37,1224.06C2709.04,1224.86 2706.77,1226.53 2703.57,1229.06C2700.37,1231.6 2696.84,1234.33 2692.97,1237.26C2689.1,1240.2 2685.3,1243 2681.57,1245.66C2677.84,1248.33 2674.77,1250.33 2672.37,1251.66C2670.24,1252.73 2668.04,1254.13 2665.77,1255.86C2663.5,1257.6 2661.44,1259.26 2659.57,1260.86C2657.7,1262.46 2656.1,1263.86 2654.77,1265.06C2653.44,1266.26 2652.64,1266.86 2652.37,1266.86L2552.77,1290.86L2548.77,1290.86C2548.5,1290.86 2548.17,1290.26 2547.77,1289.06C2547.37,1287.86 2546.97,1286.4 2546.57,1284.66C2546.17,1282.93 2545.77,1281.2 2545.37,1279.46C2544.97,1277.73 2544.77,1276.2 2544.77,1274.86C2544.77,1272.2 2544.7,1267.26 2544.57,1260.06C2544.44,1252.86 2544.37,1245.26 2544.37,1237.26C2544.37,1229 2544.44,1221.26 2544.57,1214.06C2544.7,1206.86 2544.77,1201.8 2544.77,1198.86ZM2609.97,1088.06C2609.17,1095.26 2608.37,1104.6 2607.57,1116.06C2606.77,1127.53 2606.04,1139.66 2605.37,1152.46C2604.7,1165.26 2604.17,1177.93 2603.77,1190.46C2603.37,1203 2603.17,1213.8 2603.17,1222.86L2612.37,1222.86C2612.37,1222.86 2614.24,1221.66 2617.97,1219.26C2621.7,1216.86 2626.1,1213.93 2631.17,1210.46C2636.24,1207 2641.5,1203.46 2646.97,1199.86C2652.44,1196.26 2656.9,1193.26 2660.37,1190.86L2664.37,1186.86L2664.37,1185.26L2664.37,1182.86C2663.84,1179.4 2662.97,1174.13 2661.77,1167.06C2660.57,1160 2659.3,1152.86 2657.97,1145.66C2656.64,1138.46 2655.44,1131.93 2654.37,1126.06C2653.3,1120.2 2652.64,1116.46 2652.37,1114.86C2652.1,1114.06 2651.64,1112.2 2650.97,1109.26C2650.3,1106.33 2649.64,1103.26 2648.97,1100.06C2648.3,1096.86 2647.64,1094.06 2646.97,1091.66C2646.3,1089.26 2645.97,1088.06 2645.97,1088.06L2609.97,1088.06Z" style="fill:white;fill-rule:nonzero;"/>
            </g>
            <g transform="matrix(1.00047,0,0,0.883238,-52.1406,190.678)">
                <path d="M2440.1,847.336C2424.62,821.036 2399.58,822.168 2399.58,822.168C2467.88,807.391 2561.89,832.997 2561.89,832.997C2561.89,832.997 2471.66,910.372 2418,925.205C2418,925.205 2442.45,900.416 2440.29,881.763C2440.29,881.763 2080.92,926.591 1911.41,908.72C1911.41,908.72 1603.07,885.926 1538.26,883.821C1476.51,881.816 1447.14,964.228 1441.59,1018.64C1436.04,1073.05 1388.12,953.077 1388.12,953.077C1388.12,953.077 1414.26,802.964 1558.21,830.325C1681.03,853.667 2174.87,891.749 2440.1,847.336Z" style="fill:white;"/>
            </g>
        </g>
    </g>
</svg>
