<?xml version="1.0" encoding="UTF-8" standalone="no"?>
<!DOCTYPE svg PUBLIC "-//W3C//DTD SVG 1.1//EN" "http://www.w3.org/Graphics/SVG/1.1/DTD/svg11.dtd">
<svg width="100%" height="100%" viewBox="0 0 1024 600" version="1.1" xmlns="http://www.w3.org/2000/svg" xmlns:xlink="http://www.w3.org/1999/xlink" xml:space="preserve" xmlns:serif="http://www.serif.com/" style="fill-rule:evenodd;clip-rule:evenodd;stroke-linejoin:round;stroke-miterlimit:1.41421;">
    <g id="VERSION-3.5" serif:id="VERSION 3.5" transform="matrix(0.379833,0,0,0.379833,-52.6167,16.6948)">
        <g transform="matrix(1.59345,0,0,1.59345,-120.104,-552.13)">
            <path d="M188.985,691.162C192.403,691.748 195.821,693.359 199.239,695.996C202.266,698.34 204.61,701.172 206.27,704.492C208.419,708.789 209.493,713.769 209.493,719.433L209.493,902.099C209.493,912.549 206.075,920.361 199.239,925.537C195.821,928.174 192.403,929.785 188.985,930.371L258.272,930.371C254.854,929.785 251.436,928.174 248.018,925.537C245.089,923.291 242.745,920.459 240.987,917.041C238.936,912.842 237.911,907.861 237.911,902.099L238.057,717.236L305.294,717.236C312.227,718.603 318.477,720.801 324.044,723.828C341.231,733.203 349.825,749.17 349.825,771.728C349.825,772.217 349.776,772.705 349.678,773.193C349.678,773.974 349.63,774.756 349.532,775.537C349.337,777.783 349.044,780.029 348.653,782.275C347.286,788.818 345.089,794.726 342.061,800C332.784,815.918 316.817,823.877 294.161,823.877C284.2,823.877 276.094,827.734 269.844,835.449C263.594,843.066 260.469,853.076 260.469,865.478C260.469,862.549 262.813,859.375 267.501,855.957C271.798,852.832 276.192,850.732 280.684,849.658C282.54,849.17 284.786,848.877 287.423,848.779L290.792,848.779L294.161,848.926C322.481,848.926 343.868,839.502 358.321,820.654C369.259,806.494 374.727,790.185 374.727,771.728C374.727,743.506 364.766,722.119 344.844,707.568C337.13,702.002 328.341,697.754 318.477,694.824C310.176,692.383 302.071,691.162 294.161,691.162L188.985,691.162Z" style="fill:white;fill-rule:nonzero;"/>
        </g>
        <g transform="matrix(1,0,0,1,57.8034,0)">
            <path d="M612.325,902.099C605.684,886.67 592.598,856.25 573.067,810.84C553.048,764.453 539.913,733.984 533.663,719.433C529.268,709.082 529.317,701.269 533.809,695.996C536.153,693.359 538.887,691.748 542.012,691.162L479.171,691.162C482.296,691.748 485.03,693.359 487.374,695.996C491.866,701.269 491.915,709.082 487.52,719.433C481.075,734.277 467.94,764.746 448.116,810.84C428.389,856.64 415.303,887.06 408.858,902.099C404.366,912.549 397.579,920.361 388.497,925.537C383.907,928.174 379.805,929.785 376.192,930.371L448.995,930.371C445.87,929.785 443.184,928.222 440.938,925.683C438.985,923.437 437.862,920.605 437.569,917.187C437.178,913.086 438.155,908.203 440.499,902.539C442.745,898.926 445.675,895.996 449.288,893.75C454.073,890.918 459.932,889.502 466.866,889.502L522.969,889.502C531.563,889.502 538.35,886.963 543.331,881.885C547.335,877.783 550.118,872.168 551.68,865.039C553.438,856.933 553.585,848.779 552.12,840.576C551.046,843.994 548.848,847.412 545.528,850.83C542.696,853.857 539.376,856.201 535.567,857.861C530.88,860.01 525.557,861.084 519.6,861.084L466.866,861.084C463.741,861.084 460.811,861.279 458.077,861.67C459.444,858.545 460.518,856.103 461.3,854.345L464.522,846.728C467.061,840.967 469.356,835.693 471.407,830.908C476.68,818.701 481.368,807.812 485.469,798.242C496.309,773.047 504.708,753.564 510.665,739.795C518.38,757.861 531.124,787.5 548.897,828.711C551.534,834.765 554.854,842.48 558.858,851.855L561.202,857.275L563.399,862.549C565.157,866.552 566.622,869.922 567.794,872.656C574.044,887.207 578.292,897.021 580.538,902.099C584.932,912.549 584.884,920.361 580.391,925.537C578.048,928.174 575.313,929.785 572.188,930.371L644.991,930.371C641.378,929.785 637.276,928.174 632.686,925.537C628.682,923.291 625.118,920.459 621.993,917.041C617.989,912.842 614.766,907.861 612.325,902.099Z" style="fill:white;fill-rule:nonzero;"/>
        </g>
        <g transform="matrix(1,0,0,1.35359,-193.287,-819.06)">
            <path d="M891.602,1011.42L920.02,1011.42L920.009,1039.83L891.591,1039.83L833.437,1039.83C827.675,1039.83 822.695,1040.91 818.495,1043.06C815.077,1044.72 812.245,1047.06 809.999,1050.09C807.363,1053.51 805.751,1056.92 805.165,1060.34L805.165,1011.42L891.602,1011.42Z" style="fill:white;fill-rule:nonzero;"/>
        </g>
        <g transform="matrix(-1,0,0,1.35359,1674.65,-819.193)">
            <path d="M891.602,1011.42L920.02,1011.42L920.009,1039.83L891.591,1039.83L833.437,1039.83C827.675,1039.83 822.695,1040.91 818.495,1043.06C815.077,1044.72 812.245,1047.06 809.999,1050.09C807.363,1053.51 805.751,1056.92 805.165,1060.34L805.165,1011.42L891.602,1011.42Z" style="fill:white;fill-rule:nonzero;"/>
        </g>
        <g transform="matrix(2.63274,0,0,2.63274,138.526,-43.9529)">
            <path d="M236.709,326.595L236.765,326.595L236.765,395.922C236.765,399.891 238.593,402.858 242.248,404.824C244.075,405.826 245.903,406.438 247.73,406.661L210.606,406.661C212.434,406.438 214.261,405.826 216.089,404.824C219.744,402.858 221.571,399.891 221.571,395.922L221.571,342.078L221.507,342.078L221.561,240.205L190.533,240.205C188.345,240.205 186.453,240.758 184.858,241.862C183.56,242.716 182.484,243.921 181.631,245.477C180.63,247.235 180.018,248.992 179.795,250.749L179.795,225.595L221.568,225.595L221.571,220.119L221.571,204.157C221.571,200.188 219.744,197.221 216.089,195.255C214.261,194.254 212.434,193.641 210.606,193.419L247.73,193.419C245.903,193.641 244.075,194.254 242.248,195.255C238.593,197.221 236.765,200.188 236.765,204.157L236.765,220.119L236.763,225.544L277.644,225.544L277.644,250.699C277.421,248.941 276.809,247.184 275.808,245.427C274.955,243.87 273.879,242.665 272.581,241.812C270.986,240.707 269.094,240.155 266.906,240.155L236.755,240.155L236.709,326.595Z" style="fill:white;fill-rule:nonzero;"/>
        </g>
        <g transform="matrix(1,0,0,1,-67.8985,0)">
            <path d="M879.219,691.162C882.637,691.748 886.055,693.359 889.473,695.996C892.403,698.34 894.747,701.172 896.505,704.492C898.653,708.789 899.727,713.769 899.727,719.433L899.727,902.099C899.727,912.549 896.309,920.361 889.473,925.537C886.055,928.174 882.637,929.785 879.219,930.371L1061.45,930.371L1061.45,881.445C1060.86,884.863 1059.25,888.281 1056.61,891.699C1054.37,894.726 1051.53,897.07 1048.12,898.73C1043.82,900.879 1038.84,901.953 1033.17,901.953L929.171,901.953L929.171,838.086C929.757,836.328 930.538,834.619 931.514,832.959C932.882,830.713 934.542,828.76 936.495,827.099C941.866,822.412 948.946,820.068 957.735,820.068L1013.84,820.068C1022.43,820.068 1029.27,817.529 1034.35,812.451C1038.25,808.349 1040.99,802.734 1042.55,795.605C1044.31,787.5 1044.5,779.345 1043.13,771.142C1041.96,774.56 1039.77,777.978 1036.54,781.396C1030,788.232 1021.36,791.65 1010.62,791.65L957.735,791.65C948.946,791.65 941.866,793.261 936.495,796.484C934.542,797.656 932.882,799.023 931.514,800.586C930.538,801.66 929.757,802.783 929.171,803.955L929.171,719.58L1031.42,719.58C1041.77,719.58 1049.58,722.998 1054.85,729.834C1057.49,733.252 1059.05,736.67 1059.54,740.088L1059.54,691.162L879.219,691.162Z" style="fill:white;fill-rule:nonzero;"/>
        </g>
        <g transform="matrix(1,0,0,1,-94.1873,0)">
            <path d="M1281.32,899.756C1276.34,886.767 1272.68,877.539 1270.33,872.07C1262.91,855.078 1254.27,843.261 1244.4,836.621C1256.51,832.715 1266.57,823.388 1274.58,808.642C1281.81,795.361 1285.42,781.885 1285.42,768.213C1285.42,741.26 1275.95,720.849 1257,706.982C1249.58,701.611 1241.18,697.558 1231.81,694.824C1223.8,692.48 1216.04,691.308 1208.52,691.308L1106.42,691.308C1109.84,691.894 1113.25,693.506 1116.67,696.142C1123.51,701.318 1126.92,709.131 1126.92,719.58L1126.92,902.246C1126.92,907.91 1125.85,912.89 1123.7,917.187C1121.94,920.508 1119.6,923.34 1116.67,925.683C1113.25,928.32 1109.84,929.931 1106.42,930.517L1175.7,930.517C1172.29,929.931 1168.87,928.32 1165.45,925.683C1158.71,920.41 1155.34,912.597 1155.34,902.246C1155.34,778.711 1155.34,716.699 1155.34,716.211L1209.98,716.211C1210.66,716.308 1211.45,716.357 1212.33,716.357C1214.47,716.552 1216.67,716.894 1218.92,717.383C1225.36,718.554 1231.22,720.556 1236.5,723.388C1252.51,732.177 1260.52,747.119 1260.52,768.213C1260.52,782.373 1256.42,794.238 1248.21,803.808C1240.5,812.793 1232.39,818.799 1223.9,821.826C1215.69,824.756 1205.88,825.342 1194.45,823.584C1210.37,833.838 1222.77,845.947 1231.66,859.912C1239.28,872.021 1244.06,882.617 1246.02,891.699C1251,908.789 1257.78,920.654 1266.38,927.295C1273.31,932.666 1281.66,935.644 1291.43,936.23C1295.24,936.523 1299.24,936.377 1303.44,935.791C1306.86,935.4 1310.23,934.765 1313.55,933.886C1315.99,933.301 1319.11,932.275 1322.92,930.81L1323.07,930.81C1322.38,930.908 1321.55,930.957 1320.58,930.957C1319.21,930.859 1317.79,930.713 1316.33,930.517C1312.42,930.029 1308.66,928.857 1305.05,927.002C1294.21,921.728 1286.3,912.646 1281.32,899.756Z" style="fill:white;fill-rule:nonzero;"/>
        </g>
        <g transform="matrix(1.59345,0,0,1.59345,-963.125,-552.13)">
            <path d="M1437.18,691.162C1440.6,691.748 1444.01,693.359 1447.43,695.996C1450.46,698.34 1452.8,701.172 1454.46,704.492C1456.61,708.789 1457.69,713.769 1457.69,719.433L1457.69,902.099C1457.69,912.549 1454.27,920.361 1447.43,925.537C1444.01,928.174 1440.6,929.785 1437.18,930.371L1506.47,930.371C1503.05,929.785 1499.63,928.174 1496.21,925.537C1493.28,923.291 1490.94,920.459 1489.18,917.041C1487.13,912.842 1486.1,907.861 1486.1,902.099L1486.25,717.236L1553.49,717.236C1560.42,718.603 1566.67,720.801 1572.24,723.828C1589.42,733.203 1598.02,749.17 1598.02,771.728C1598.02,772.217 1597.97,772.705 1597.87,773.193C1597.87,773.974 1597.82,774.756 1597.73,775.537C1597.53,777.783 1597.24,780.029 1596.85,782.275C1595.48,788.818 1593.28,794.726 1590.26,800C1580.98,815.918 1565.01,823.877 1542.35,823.877C1532.39,823.877 1524.29,827.734 1518.04,835.449C1511.79,843.066 1508.66,853.076 1508.66,865.478C1508.66,862.549 1511.01,859.375 1515.69,855.957C1519.99,852.832 1524.38,850.732 1528.88,849.658C1530.73,849.17 1532.98,848.877 1535.62,848.779L1538.99,848.779L1542.35,848.926C1570.67,848.926 1592.06,839.502 1606.51,820.654C1617.45,806.494 1622.92,790.185 1622.92,771.728C1622.92,743.506 1612.96,722.119 1593.04,707.568C1585.32,702.002 1576.53,697.754 1566.67,694.824C1558.37,692.383 1550.26,691.162 1542.35,691.162L1437.18,691.162Z" style="fill:white;fill-rule:nonzero;"/>
        </g>
        <g transform="matrix(1,0,0,1,-48.3248,0)">
            <path d="M1860.52,902.099C1853.88,886.67 1840.79,856.25 1821.26,810.84C1801.24,764.453 1788.11,733.984 1781.86,719.433C1777.46,709.082 1777.51,701.269 1782,695.996C1784.35,693.359 1787.08,691.748 1790.21,691.162L1727.36,691.162C1730.49,691.748 1733.22,693.359 1735.57,695.996C1740.06,701.269 1740.11,709.082 1735.71,719.433C1729.27,734.277 1716.13,764.746 1696.31,810.84C1676.58,856.64 1663.5,887.06 1657.05,902.099C1652.56,912.549 1645.77,920.361 1636.69,925.537C1632.1,928.174 1628,929.785 1624.38,930.371L1697.19,930.371C1694.06,929.785 1691.38,928.222 1689.13,925.683C1687.18,923.437 1686.06,920.605 1685.76,917.187C1685.37,913.086 1686.35,908.203 1688.69,902.539C1690.94,898.926 1693.87,895.996 1697.48,893.75C1702.27,890.918 1708.13,889.502 1715.06,889.502L1771.16,889.502C1779.76,889.502 1786.54,886.963 1791.52,881.885C1795.53,877.783 1798.31,872.168 1799.87,865.039C1801.63,856.933 1801.78,848.779 1800.31,840.576C1799.24,843.994 1797.04,847.412 1793.72,850.83C1790.89,853.857 1787.57,856.201 1783.76,857.861C1779.07,860.01 1773.75,861.084 1767.79,861.084L1715.06,861.084C1711.93,861.084 1709.01,861.279 1706.27,861.67C1707.64,858.545 1708.71,856.103 1709.49,854.345L1712.72,846.728C1715.26,840.967 1717.55,835.693 1719.6,830.908C1724.87,818.701 1729.56,807.812 1733.66,798.242C1744.5,773.047 1752.9,753.564 1758.86,739.795C1766.57,757.861 1779.32,787.5 1797.09,828.711C1799.73,834.765 1803.05,842.48 1807.05,851.855L1809.39,857.275L1811.59,862.549C1813.35,866.552 1814.82,869.922 1815.99,872.656C1822.24,887.207 1826.49,897.021 1828.73,902.099C1833.13,912.549 1833.08,920.361 1828.59,925.537C1826.24,928.174 1823.51,929.785 1820.38,930.371L1893.18,930.371C1889.57,929.785 1885.47,928.174 1880.88,925.537C1876.88,923.291 1873.31,920.459 1870.19,917.041C1866.18,912.842 1862.96,907.861 1860.52,902.099Z" style="fill:white;fill-rule:nonzero;"/>
        </g>
        <g transform="matrix(1,0,0,1,-79.8621,0)">
            <path d="M1937.13,691.162C1940.55,691.748 1943.97,693.359 1947.38,695.996C1950.41,698.34 1952.76,701.172 1954.41,704.492C1956.56,708.789 1957.64,713.769 1957.64,719.433L1957.64,902.099C1957.64,912.549 1954.22,920.361 1947.38,925.537C1943.97,928.174 1940.55,929.785 1937.13,930.371L2006.42,930.371C2003,929.785 1999.58,928.174 1996.16,925.537C1993.23,923.291 1990.89,920.459 1989.13,917.041C1987.08,912.842 1986.06,907.861 1986.06,902.099L1986.2,717.236L2053.44,717.236C2060.37,718.603 2066.62,720.801 2072.19,723.828C2089.38,733.203 2097.97,749.17 2097.97,771.728C2097.97,772.217 2097.92,772.705 2097.82,773.193C2097.82,773.974 2097.77,774.756 2097.68,775.537C2097.48,777.783 2097.19,780.029 2096.8,782.275C2095.43,788.818 2093.23,794.726 2090.21,800C2080.93,815.918 2064.96,823.877 2042.31,823.877C2032.34,823.877 2024.24,827.734 2017.99,835.449C2011.74,843.066 2008.61,853.076 2008.61,865.478C2008.61,862.549 2010.96,859.375 2015.64,855.957C2019.94,852.832 2024.34,850.732 2028.83,849.658C2030.68,849.17 2032.93,848.877 2035.57,848.779L2038.94,848.779L2042.31,848.926C2070.63,848.926 2092.01,839.502 2106.47,820.654C2117.4,806.494 2122.87,790.185 2122.87,771.728C2122.87,743.506 2112.91,722.119 2092.99,707.568C2085.27,702.002 2076.49,697.754 2066.62,694.824C2058.32,692.383 2050.22,691.162 2042.31,691.162L1937.13,691.162Z" style="fill:white;fill-rule:nonzero;"/>
        </g>
        <g transform="matrix(1,0,0,1,-109.018,0)">
            <path d="M2377.02,719.433C2377.02,721.777 2377.07,757.47 2377.17,826.513C2377.17,849.951 2369.75,869.629 2354.9,885.547C2339.57,901.953 2320.14,910.156 2296.6,910.156C2272.97,910.156 2253.54,901.953 2238.3,885.547C2223.46,869.629 2216.04,849.951 2216.04,826.513L2216.04,719.433C2216.04,713.769 2217.16,708.838 2219.41,704.638C2221.16,701.22 2223.6,698.34 2226.73,695.996C2230.24,693.359 2233.81,691.797 2237.42,691.308L2166.82,691.308C2170.33,691.797 2173.9,693.359 2177.51,695.996C2180.64,698.34 2183.08,701.22 2184.84,704.638C2187.08,708.838 2188.2,713.769 2188.2,719.433C2188.2,721.777 2188.25,757.47 2188.35,826.513C2188.35,857.275 2198.46,883.203 2218.67,904.297C2239.38,925.879 2265.35,936.67 2296.6,936.67C2327.85,936.67 2353.78,925.879 2374.39,904.297C2394.7,883.203 2404.85,857.275 2404.85,826.513L2404.85,718.261C2404.95,712.89 2406.12,708.154 2408.37,704.052C2410.22,700.83 2412.67,698.095 2415.69,695.849C2419.11,693.31 2422.53,691.797 2425.95,691.308L2355.78,691.308C2359.3,691.797 2362.81,693.359 2366.33,695.996C2369.45,698.34 2371.89,701.22 2373.65,704.638C2375.9,708.838 2377.02,713.769 2377.02,719.433Z" style="fill:white;fill-rule:nonzero;"/>
        </g>
        <g transform="matrix(1,0,0,1,-137.161,0)">
            <path d="M2519.26,901.953L2519.26,719.433C2519.26,713.769 2520.33,708.789 2522.48,704.492C2524.14,701.172 2526.49,698.34 2529.51,695.996C2532.93,693.359 2536.35,691.748 2539.77,691.162L2469.89,691.162C2473.31,691.748 2476.73,693.359 2480.15,695.996C2483.08,698.34 2485.42,701.172 2487.18,704.492C2489.33,708.789 2490.4,713.769 2490.4,719.433L2490.4,902.099C2490.4,912.549 2486.98,920.361 2480.15,925.537C2476.73,928.174 2473.31,929.785 2469.89,930.371L2642.6,930.371L2642.6,881.445C2642.11,884.863 2640.55,888.281 2637.91,891.699C2632.64,898.535 2624.83,901.953 2614.47,901.953L2519.26,901.953Z" style="fill:white;fill-rule:nonzero;"/>
        </g>
        <g transform="matrix(1,0,0,1,-153.736,0)">
            <path d="M2913.01,902.099C2906.37,886.67 2893.28,856.25 2873.75,810.84C2853.73,764.453 2840.6,733.984 2834.35,719.433C2829.95,709.082 2830,701.269 2834.49,695.996C2836.84,693.359 2839.57,691.748 2842.7,691.162L2779.85,691.162C2782.98,691.748 2785.71,693.359 2788.06,695.996C2792.55,701.269 2792.6,709.082 2788.2,719.433C2781.76,734.277 2768.62,764.746 2748.8,810.84C2729.07,856.64 2715.99,887.06 2709.54,902.099C2705.05,912.549 2698.26,920.361 2689.18,925.537C2684.59,928.174 2680.49,929.785 2676.88,930.371L2749.68,930.371C2746.55,929.785 2743.87,928.222 2741.62,925.683C2739.67,923.437 2738.55,920.605 2738.25,917.187C2737.86,913.086 2738.84,908.203 2741.18,902.539C2743.43,898.926 2746.36,895.996 2749.97,893.75C2754.76,890.918 2760.62,889.502 2767.55,889.502L2823.65,889.502C2832.25,889.502 2839.03,886.963 2844.01,881.885C2848.02,877.783 2850.8,872.168 2852.36,865.039C2854.12,856.933 2854.27,848.779 2852.8,840.576C2851.73,843.994 2849.53,847.412 2846.21,850.83C2843.38,853.857 2840.06,856.201 2836.25,857.861C2831.56,860.01 2826.24,861.084 2820.28,861.084L2767.55,861.084C2764.43,861.084 2761.49,861.279 2758.76,861.67C2760.13,858.545 2761.2,856.103 2761.98,854.345L2765.21,846.728C2767.74,840.967 2770.04,835.693 2772.09,830.908C2777.36,818.701 2782.05,807.812 2786.15,798.242C2796.99,773.047 2805.39,753.564 2811.35,739.795C2819.06,757.861 2831.81,787.5 2849.58,828.711C2852.22,834.765 2855.54,842.48 2859.54,851.855L2861.89,857.275L2864.08,862.549C2865.84,866.552 2867.3,869.922 2868.48,872.656C2874.73,887.207 2878.97,897.021 2881.22,902.099C2885.62,912.549 2885.57,920.361 2881.08,925.537C2878.73,928.174 2876,929.785 2872.87,930.371L2945.68,930.371C2942.06,929.785 2937.96,928.174 2933.37,925.537C2929.37,923.291 2925.8,920.459 2922.68,917.041C2918.67,912.842 2915.45,907.861 2913.01,902.099Z" style="fill:white;fill-rule:nonzero;"/>
        </g>
    </g>
</svg>
