<?xml version="1.0" encoding="UTF-8" standalone="no"?>
<!DOCTYPE svg PUBLIC "-//W3C//DTD SVG 1.1//EN" "http://www.w3.org/Graphics/SVG/1.1/DTD/svg11.dtd">
<svg width="100%" height="100%" viewBox="0 0 1000 300" version="1.1" xmlns="http://www.w3.org/2000/svg" xmlns:xlink="http://www.w3.org/1999/xlink" xml:space="preserve" xmlns:serif="http://www.serif.com/" style="fill-rule:evenodd;clip-rule:evenodd;stroke-linejoin:round;stroke-miterlimit:1.41421;">
    <g id="Letters-v2-White" serif:id="Letters v2 White" transform="matrix(1.5609,0,0,1.5609,-1822.22,-256.327)">
        <g transform="matrix(0.295245,0,0,0.295245,807.635,-140.712)">
            <path d="M1415.32,1046.18C1421.76,1046.18 1427.8,1048.67 1433.44,1053.67C1439.08,1058.66 1444.15,1063.26 1448.66,1067.44C1451.24,1075.18 1455.27,1080.98 1460.75,1084.84C1462.68,1087.1 1464.62,1089.52 1466.55,1092.09C1468.48,1094.67 1469.77,1097.73 1470.41,1101.28C1471.7,1101.28 1472.99,1102.65 1474.28,1105.38C1475.57,1108.12 1476.7,1111.35 1477.66,1115.05C1478.63,1118.76 1479.44,1122.22 1480.08,1125.44C1480.73,1128.67 1481.05,1130.76 1481.05,1131.73C1481.05,1136.24 1480.24,1141.23 1478.63,1146.71C1477.02,1152.19 1475.01,1157.67 1472.59,1163.14C1470.17,1168.62 1467.6,1173.86 1464.86,1178.85C1462.12,1183.85 1459.78,1187.95 1457.85,1191.18C1456.56,1193.43 1454.87,1195.2 1452.77,1196.49C1450.68,1197.78 1448.66,1198.99 1446.73,1200.12C1444.8,1201.25 1443.11,1202.78 1441.66,1204.71C1440.21,1206.64 1439.48,1209.22 1439.48,1212.44C1439.48,1215.99 1440.45,1220.66 1442.38,1226.46C1444.32,1232.26 1446.73,1238.06 1449.63,1243.86C1452.53,1249.66 1455.51,1254.82 1458.57,1259.33C1461.63,1263.84 1464.13,1266.58 1466.07,1267.54C1469.93,1270.12 1473.4,1273.34 1476.46,1277.21C1479.52,1281.08 1482.74,1284.94 1486.12,1288.81C1489.51,1292.68 1493.13,1296.14 1497,1299.2C1500.87,1302.26 1505.38,1304.28 1510.53,1305.24C1512.46,1305.89 1515.53,1307.1 1519.71,1308.87C1523.9,1310.64 1527.13,1312.65 1529.38,1314.91C1531.32,1316.84 1532.36,1318.21 1532.52,1319.02C1532.68,1319.82 1532.44,1321.52 1531.8,1324.09C1530.83,1327.64 1528.5,1330.22 1524.79,1331.83C1521.09,1333.44 1517.06,1334.49 1512.71,1334.97C1508.36,1335.45 1504.41,1335.61 1500.87,1335.45C1497.32,1335.29 1495.23,1335.05 1494.58,1334.73C1492.33,1332.79 1489.35,1331.83 1485.64,1331.83C1481.93,1331.83 1478.95,1331.51 1476.7,1330.86C1468,1325.7 1461.88,1321.52 1458.33,1318.29C1454.79,1315.07 1450.6,1312.01 1445.77,1309.11C1443.83,1308.14 1441.41,1306.45 1438.52,1304.04C1435.62,1301.62 1432.47,1298.8 1429.09,1295.58C1425.71,1292.36 1422.32,1288.97 1418.94,1285.43C1415.56,1281.88 1412.41,1278.66 1409.52,1275.76C1405.65,1270.93 1402.35,1266.26 1399.61,1261.74C1396.87,1257.23 1394.45,1252.96 1392.36,1248.93C1390.26,1244.91 1388.25,1241.2 1386.32,1237.82C1384.38,1234.43 1382.29,1231.78 1380.03,1229.84C1375.52,1227.27 1372.22,1224.85 1370.12,1222.59C1368.03,1220.34 1364.73,1219.21 1360.21,1219.21C1356.35,1219.21 1353.37,1220.42 1351.27,1222.84C1349.18,1225.25 1347.57,1228.07 1346.44,1231.29C1345.31,1234.52 1344.59,1237.9 1344.27,1241.44C1343.94,1244.99 1343.78,1247.89 1343.78,1250.14L1349.1,1272.86L1349.1,1282.53C1349.1,1290.26 1351.6,1296.06 1356.59,1299.93C1361.59,1303.79 1366.98,1307.02 1372.78,1309.59C1378.58,1312.17 1383.98,1314.67 1388.97,1317.09C1393.97,1319.5 1396.46,1323.13 1396.46,1327.96C1396.46,1330.22 1395.34,1332.15 1393.08,1333.76C1390.83,1335.37 1388.73,1336.18 1386.8,1336.18L1369.4,1336.18L1342.33,1332.31L1331.7,1332.31L1308.98,1332.31L1300.77,1332.31L1281.91,1332.31C1280.95,1332.31 1277.81,1332.07 1272.49,1331.59C1267.17,1331.1 1261.54,1330.3 1255.57,1329.17C1249.61,1328.04 1244.21,1326.43 1239.38,1324.34C1234.55,1322.24 1232.13,1319.42 1232.13,1315.88C1232.13,1314.91 1232.62,1313.94 1233.58,1312.98C1234.55,1312.01 1235.68,1311.04 1236.96,1310.08C1238.25,1308.79 1239.87,1307.66 1241.8,1306.69C1242.77,1306.69 1244.21,1306.86 1246.15,1307.18C1248.08,1307.5 1250.02,1307.82 1251.95,1308.14C1254.2,1308.47 1256.62,1308.79 1259.2,1309.11L1268.87,1309.11C1275.31,1309.11 1280.71,1307.26 1285.06,1303.55C1289.41,1299.85 1291.58,1295.9 1291.58,1291.71L1291.58,1240.96L1291.58,1162.66L1295.45,1127.86C1294.48,1124.64 1293.84,1120.77 1293.52,1116.26C1293.19,1111.75 1292.63,1107.48 1291.82,1103.45C1291.02,1099.42 1289.57,1095.8 1287.47,1092.58C1285.38,1089.36 1282.24,1087.26 1278.05,1086.29L1259.2,1086.29C1255.65,1086.29 1252.11,1085.97 1248.57,1085.33C1245.02,1084.68 1241.72,1083.56 1238.66,1081.94C1235.6,1080.33 1233.1,1078.08 1231.16,1075.18C1229.23,1072.28 1228.27,1068.41 1228.27,1063.58C1228.27,1062.61 1228.99,1061.56 1230.44,1060.43C1231.89,1059.31 1233.42,1058.26 1235.03,1057.29C1236.96,1056.01 1239.22,1054.88 1241.8,1053.91L1323.48,1050.04L1373.27,1050.04C1374.23,1050.04 1376,1049.88 1378.58,1049.56C1381.16,1049.24 1383.74,1048.76 1386.32,1048.11C1389.54,1047.47 1392.92,1046.82 1396.46,1046.18L1415.32,1046.18ZM1369.4,1095.48C1368.11,1095.8 1366.66,1096.12 1365.05,1096.44C1363.44,1097.09 1361.66,1097.65 1359.73,1098.13C1357.8,1098.62 1355.7,1099.67 1353.45,1101.28C1351.19,1101.28 1349.02,1102.32 1346.92,1104.42C1344.83,1106.51 1343.78,1109.82 1343.78,1114.33L1343.78,1149.61C1343.78,1152.19 1343.14,1154.52 1341.85,1156.62C1340.56,1158.71 1339.91,1160.73 1339.91,1162.66L1341.85,1163.63C1342.49,1164.27 1342.98,1164.84 1343.3,1165.32C1343.62,1165.8 1343.78,1166.85 1343.78,1168.46C1342.82,1171.68 1343.14,1174.66 1344.75,1177.4C1346.36,1180.14 1348.62,1182.56 1351.52,1184.65C1354.41,1186.75 1357.56,1188.36 1360.94,1189.49C1364.32,1190.61 1367.14,1191.18 1369.4,1191.18C1372.3,1189.89 1375.2,1188.6 1378.1,1187.31C1380.68,1186.34 1383.01,1185.38 1385.11,1184.41C1387.2,1183.44 1389.05,1182.96 1390.66,1182.96L1400.33,1186.83C1404.52,1186.83 1408.07,1185.13 1410.96,1181.75C1413.87,1178.37 1416.2,1174.5 1417.97,1170.15C1419.75,1165.8 1421.12,1161.61 1422.08,1157.59C1423.05,1153.56 1423.85,1150.9 1424.5,1149.61L1421.6,1136.08C1421.6,1133.82 1421.36,1131.65 1420.87,1129.55C1420.39,1127.46 1418.86,1125.12 1416.28,1122.54C1416.28,1120.61 1416.04,1117.71 1415.56,1113.84C1415.07,1109.98 1413.54,1107.08 1410.96,1105.14C1410,1105.14 1407.66,1104.66 1403.96,1103.69C1400.25,1102.73 1396.22,1101.6 1391.87,1100.31C1387.52,1099.02 1383.17,1097.89 1378.82,1096.93C1374.47,1095.96 1371.33,1095.48 1369.4,1095.48Z" style="fill-rule:nonzero;"/>
        </g>
        <g transform="matrix(0.295245,0,0,0.295245,807.635,-140.712)">
            <path d="M1730.32,1052.46L1747.72,1056.81L1757.38,1056.81C1761.57,1058.1 1765.44,1059.39 1768.98,1060.68C1772.2,1061.97 1775.27,1063.17 1778.17,1064.3C1781.07,1065.43 1783,1066.48 1783.97,1067.44C1788.8,1070.02 1794.36,1072.2 1800.64,1073.97C1806.92,1075.74 1812.16,1078.88 1816.35,1083.39C1818.93,1085.65 1821.59,1089.52 1824.32,1094.99C1827.06,1100.47 1829.72,1104.34 1832.3,1106.59C1843.26,1115.94 1850.26,1124.88 1853.32,1133.42C1856.38,1141.96 1857.92,1149.61 1857.92,1156.38L1856.47,1188.28L1856.47,1201.81C1856.47,1205.36 1855.1,1210.67 1852.36,1217.76C1849.62,1224.85 1846.4,1232.26 1842.69,1239.99C1838.99,1247.73 1835.52,1254.9 1832.3,1261.5C1829.08,1268.11 1826.98,1272.38 1826.02,1274.31C1823.76,1281.08 1819.81,1286.63 1814.17,1290.99C1808.54,1295.34 1802.98,1298.8 1797.5,1301.38C1788.8,1308.14 1780.66,1314.27 1773.09,1319.74C1765.52,1325.22 1757.06,1327.96 1747.72,1327.96C1743.85,1327.96 1740.06,1327.56 1736.36,1326.75C1732.65,1325.95 1727.58,1325.54 1721.13,1325.54C1719.84,1325.54 1718.23,1325.62 1716.3,1325.79C1714.37,1325.95 1712.27,1326.19 1710.02,1326.51C1707.44,1326.83 1704.86,1326.99 1702.28,1326.99L1694.07,1326.99C1691.49,1326.99 1688.18,1326.51 1684.16,1325.54C1680.13,1324.58 1676.34,1323.29 1672.8,1321.68C1668.61,1320.07 1664.1,1318.13 1659.27,1315.88C1650.57,1312.01 1641.7,1307.74 1632.68,1303.07C1623.66,1298.4 1616.41,1290.58 1610.93,1279.63C1604.17,1263.52 1597.96,1246.76 1592.32,1229.36C1586.68,1211.96 1583.87,1195.2 1583.87,1179.09C1583.87,1175.87 1584.19,1172.97 1584.83,1170.39C1585.48,1167.82 1586.28,1165.16 1587.25,1162.42C1588.22,1159.68 1589.34,1156.86 1590.63,1153.96C1591.92,1151.06 1593.21,1147.36 1594.5,1142.84C1594.5,1138.01 1595.22,1133.5 1596.67,1129.31C1598.12,1125.12 1600.14,1120.61 1602.72,1115.78C1602.72,1114.81 1604.17,1111.75 1607.07,1106.59C1609.97,1101.44 1613.51,1095.96 1617.7,1090.16C1621.89,1084.36 1626.32,1079.12 1630.99,1074.45C1635.66,1069.78 1639.61,1067.44 1642.83,1067.44L1656.37,1062.13C1660.56,1062.13 1664.34,1061.97 1667.72,1061.64C1671.11,1061.32 1674.57,1060.19 1678.12,1058.26C1681.66,1056.65 1685.04,1055.28 1688.27,1054.15C1691.49,1053.02 1694.71,1052.46 1697.93,1052.46L1730.32,1052.46ZM1688.75,1090.16C1683.27,1090.16 1677.79,1093.87 1672.32,1101.28C1666.84,1108.69 1661.92,1117.15 1657.57,1126.65C1653.22,1136.16 1649.68,1145.26 1646.94,1153.96C1644.2,1162.66 1642.83,1168.3 1642.83,1170.88L1642.83,1208.58C1642.83,1213.09 1645.65,1219.93 1651.29,1229.12C1656.93,1238.3 1663.94,1247.49 1672.32,1256.67C1680.69,1265.85 1689.63,1273.99 1699.14,1281.08C1708.65,1288.17 1717.27,1291.71 1725,1291.71L1734.18,1291.71C1740.95,1291.71 1748.28,1289.94 1756.17,1286.39C1764.07,1282.85 1771.32,1278.02 1777.92,1271.89C1784.53,1265.77 1790.09,1258.6 1794.6,1250.38C1799.11,1242.17 1801.37,1233.55 1801.37,1224.53L1801.37,1210.99L1801.37,1179.09C1801.37,1172.33 1800.48,1166.93 1798.71,1162.9C1796.93,1158.87 1794.6,1155.01 1791.7,1151.3C1788.8,1147.6 1785.42,1143.41 1781.55,1138.74C1777.68,1134.06 1773.65,1127.7 1769.47,1119.64C1766.89,1117.71 1764.07,1115.29 1761.01,1112.39C1757.95,1109.49 1754.72,1106.76 1751.34,1104.18C1747.96,1101.6 1744.41,1099.34 1740.71,1097.41C1737,1095.48 1733.54,1094.51 1730.32,1094.51L1721.13,1094.51C1718.56,1094.51 1715.49,1094.35 1711.95,1094.03C1708.4,1093.7 1704.86,1093.22 1701.32,1092.58C1697.45,1091.93 1693.26,1091.13 1688.75,1090.16Z" style="fill-rule:nonzero;"/>
        </g>
        <g transform="matrix(0.295245,0,0,0.295245,807.635,-140.712)">
            <path d="M2233.82,1041.83C2234.78,1041.83 2235.83,1043.04 2236.96,1045.45C2238.09,1047.87 2239.13,1050.69 2240.1,1053.91C2241.07,1057.13 2241.87,1060.36 2242.52,1063.58C2243.16,1066.8 2243.48,1069.06 2243.48,1070.34L2243.48,1105.14C2243.48,1106.43 2243.4,1108.85 2243.24,1112.39C2243.08,1115.94 2242.6,1119.56 2241.79,1123.27C2240.99,1126.97 2239.62,1130.28 2237.68,1133.18C2235.75,1136.08 2233.17,1137.53 2229.95,1137.53C2224.47,1137.53 2220.53,1136.32 2218.11,1133.9C2215.69,1131.49 2213.92,1128.42 2212.79,1124.72C2211.66,1121.01 2210.78,1116.99 2210.13,1112.63C2209.49,1108.29 2208.36,1104.26 2206.75,1100.55C2205.14,1096.85 2202.64,1093.79 2199.26,1091.37C2195.88,1088.95 2190.8,1087.74 2184.03,1087.74L2157.45,1087.74C2155.84,1087.74 2154.07,1087.9 2152.13,1088.23C2150.2,1088.55 2148.43,1089.03 2146.82,1089.68C2144.88,1090.32 2142.95,1090.97 2141.02,1091.61C2134.25,1091.61 2129.01,1093.79 2125.31,1098.13C2121.6,1102.49 2119.75,1107.88 2119.75,1114.33L2119.75,1137.53C2119.75,1140.11 2119.67,1142.44 2119.51,1144.54C2119.35,1146.63 2120.23,1148.64 2122.17,1150.58L2119.75,1169.43L2119.75,1247.73C2119.75,1254.17 2120.23,1259.41 2121.2,1263.43C2122.17,1267.46 2123.45,1270.77 2125.07,1273.34C2126.68,1275.92 2128.45,1278.1 2130.38,1279.87C2132.32,1281.64 2134.09,1283.33 2135.7,1284.94C2140.53,1286.56 2144.88,1288.09 2148.75,1289.54C2152.62,1290.99 2157.29,1291.71 2162.77,1291.71C2172.43,1293.32 2179.68,1296.3 2184.52,1300.65C2189.35,1305 2191.93,1309.51 2192.25,1314.18C2192.57,1318.86 2190.8,1323.21 2186.93,1327.24C2183.07,1331.26 2177.27,1333.76 2169.53,1334.73C2166.63,1334.73 2163.81,1334.24 2161.07,1333.28C2158.34,1332.31 2155.68,1331.51 2153.1,1330.86C2150.2,1330.54 2146.98,1330.38 2143.43,1330.38C2139.89,1330.38 2136.26,1330.3 2132.56,1330.13C2128.85,1329.97 2125.31,1329.57 2121.93,1328.93C2118.54,1328.28 2115.56,1327.15 2112.98,1325.54L2110.08,1325.54L2067.07,1325.54C2065.13,1325.54 2061.19,1326.43 2055.22,1328.2C2049.26,1329.97 2042.58,1330.86 2035.17,1330.86C2030.01,1330.86 2025.34,1330.7 2021.15,1330.38C2017.61,1330.06 2013.98,1329.81 2010.28,1329.65C2006.57,1329.49 2004.07,1329.41 2002.78,1329.41C2001.17,1329.41 1999.88,1330.06 1998.92,1331.34C1997.95,1332.63 1994.73,1333.28 1989.25,1333.28C1988.61,1332.95 1987.96,1332.31 1987.32,1331.34C1986.67,1330.7 1986.19,1329.97 1985.87,1329.17C1985.54,1328.36 1985.38,1327.15 1985.38,1325.54C1986.67,1322 1988.28,1318.45 1990.22,1314.91C1991.83,1312.01 1993.68,1308.95 1995.78,1305.73C1997.87,1302.51 2000.21,1299.61 2002.78,1297.03C2007.29,1295.42 2011.48,1293.97 2015.35,1292.68C2018.57,1291.39 2021.71,1290.26 2024.78,1289.29C2027.84,1288.33 2029.85,1287.84 2030.82,1287.84L2054.02,1282.53C2056.27,1282.53 2058.04,1281 2059.33,1277.93C2060.62,1274.87 2061.59,1271.57 2062.23,1268.03C2062.88,1263.84 2063.2,1258.84 2063.2,1253.04L2063.2,1201.81C2063.2,1200.52 2063.84,1198.27 2065.13,1195.04L2067.07,1191.18L2067.07,1129.31C2067.07,1126.73 2067.31,1124.15 2067.79,1121.58C2068.28,1119 2068.52,1116.58 2068.52,1114.33C2068.52,1113.36 2068.03,1111.91 2067.07,1109.98C2066.1,1108.04 2064.81,1106.11 2063.2,1104.18C2061.59,1102.24 2059.74,1100.55 2057.64,1099.1C2055.55,1097.65 2053.37,1096.93 2051.12,1096.93L1997.47,1096.93C1990.7,1096.93 1985.46,1098.13 1981.76,1100.55C1978.05,1102.97 1975.23,1106.03 1973.3,1109.74C1971.37,1113.44 1969.92,1117.47 1968.95,1121.82C1967.98,1126.17 1966.78,1130.2 1965.33,1133.9C1963.88,1137.61 1961.86,1140.67 1959.28,1143.09C1956.7,1145.5 1952.84,1146.71 1947.68,1146.71C1942.85,1146.71 1939.39,1144.86 1937.29,1141.15C1935.2,1137.45 1934.15,1133.5 1934.15,1129.31C1934.15,1128.02 1934.31,1126.01 1934.63,1123.27C1934.95,1120.53 1935.36,1117.71 1935.84,1114.81C1936.33,1111.91 1936.81,1109.17 1937.29,1106.59C1937.78,1104.02 1938.02,1102.24 1938.02,1101.28L1943.82,1078.08C1943.82,1077.11 1944.06,1074.93 1944.54,1071.55C1945.03,1068.17 1945.83,1064.54 1946.96,1060.68C1948.09,1056.81 1949.45,1053.43 1951.07,1050.53C1952.68,1047.63 1954.61,1046.18 1956.87,1046.18C1961.06,1046.18 1964.36,1046.98 1966.78,1048.59C1969.19,1050.2 1971.85,1051.98 1974.75,1053.91C1976.68,1055.52 1978.7,1056.81 1980.79,1057.78C1982.89,1058.74 1985.71,1059.23 1989.25,1059.23C1991.18,1059.23 1994.08,1058.82 1997.95,1058.02C2001.82,1057.21 2004.72,1056.81 2006.65,1056.81L2016.32,1056.81C2017.28,1057.45 2018.41,1057.86 2019.7,1058.02C2020.99,1058.18 2022.44,1058.42 2024.05,1058.74C2025.66,1059.07 2027.43,1059.23 2029.37,1059.23L2102.35,1059.23L2115.4,1056.81L2128.93,1059.23C2135.7,1059.23 2142.71,1058.82 2149.96,1058.02C2157.21,1057.21 2164.05,1056.81 2170.5,1056.81L2193.7,1056.81C2199.5,1056.81 2204.66,1056.01 2209.17,1054.39C2213.68,1052.78 2217.62,1051.09 2221.01,1049.32C2224.39,1047.55 2227.13,1045.86 2229.22,1044.24C2231.32,1042.63 2232.85,1041.83 2233.82,1041.83Z" style="fill-rule:nonzero;"/>
        </g>
        <g transform="matrix(0.295245,0,0,0.295245,807.635,-140.712)">
            <path d="M2612.62,1041.83C2613.58,1041.83 2614.63,1043.04 2615.76,1045.45C2616.89,1047.87 2617.93,1050.69 2618.9,1053.91C2619.87,1057.13 2620.67,1060.36 2621.32,1063.58C2621.96,1066.8 2622.28,1069.06 2622.28,1070.34L2622.28,1105.14C2622.28,1106.43 2622.2,1108.85 2622.04,1112.39C2621.88,1115.94 2621.4,1119.56 2620.59,1123.27C2619.79,1126.97 2618.42,1130.28 2616.48,1133.18C2614.55,1136.08 2611.97,1137.53 2608.75,1137.53C2603.27,1137.53 2599.33,1136.32 2596.91,1133.9C2594.49,1131.49 2592.72,1128.42 2591.59,1124.72C2590.46,1121.01 2589.58,1116.99 2588.93,1112.63C2588.29,1108.29 2587.16,1104.26 2585.55,1100.55C2583.94,1096.85 2581.44,1093.79 2578.06,1091.37C2574.68,1088.95 2569.6,1087.74 2562.83,1087.74L2536.25,1087.74C2534.64,1087.74 2532.87,1087.9 2530.93,1088.23C2529,1088.55 2527.23,1089.03 2525.62,1089.68C2523.68,1090.32 2521.75,1090.97 2519.82,1091.61C2513.05,1091.61 2507.81,1093.79 2504.11,1098.13C2500.4,1102.49 2498.55,1107.88 2498.55,1114.33L2498.55,1137.53C2498.55,1140.11 2498.47,1142.44 2498.31,1144.54C2498.15,1146.63 2499.03,1148.64 2500.97,1150.58L2498.55,1169.43L2498.55,1247.73C2498.55,1254.17 2499.03,1259.41 2500,1263.43C2500.97,1267.46 2502.26,1270.77 2503.87,1273.34C2505.48,1275.92 2507.25,1278.1 2509.18,1279.87C2511.12,1281.64 2512.89,1283.33 2514.5,1284.94C2519.33,1286.56 2523.68,1288.09 2527.55,1289.54C2531.42,1290.99 2536.09,1291.71 2541.57,1291.71C2551.23,1293.32 2558.48,1296.3 2563.32,1300.65C2568.15,1305 2570.73,1309.51 2571.05,1314.18C2571.37,1318.86 2569.6,1323.21 2565.73,1327.24C2561.87,1331.26 2556.07,1333.76 2548.33,1334.73C2545.43,1334.73 2542.61,1334.24 2539.88,1333.28C2537.14,1332.31 2534.48,1331.51 2531.9,1330.86C2529,1330.54 2525.78,1330.38 2522.23,1330.38C2518.69,1330.38 2515.06,1330.3 2511.36,1330.13C2507.65,1329.97 2504.11,1329.57 2500.72,1328.93C2497.34,1328.28 2494.36,1327.15 2491.78,1325.54L2488.88,1325.54L2445.87,1325.54C2443.93,1325.54 2439.99,1326.43 2434.03,1328.2C2428.06,1329.97 2421.38,1330.86 2413.97,1330.86C2408.81,1330.86 2404.14,1330.7 2399.95,1330.38C2396.41,1330.06 2392.78,1329.81 2389.08,1329.65C2385.37,1329.49 2382.87,1329.41 2381.58,1329.41C2379.97,1329.41 2378.68,1330.06 2377.72,1331.34C2376.75,1332.63 2373.53,1333.28 2368.05,1333.28C2367.41,1332.95 2366.76,1332.31 2366.12,1331.34C2365.47,1330.7 2364.99,1329.97 2364.67,1329.17C2364.34,1328.36 2364.18,1327.15 2364.18,1325.54C2365.47,1322 2367.08,1318.45 2369.02,1314.91C2370.63,1312.01 2372.48,1308.95 2374.58,1305.73C2376.67,1302.51 2379.01,1299.61 2381.58,1297.03C2386.09,1295.42 2390.28,1293.97 2394.15,1292.68C2397.37,1291.39 2400.51,1290.26 2403.58,1289.29C2406.64,1288.33 2408.65,1287.84 2409.62,1287.84L2432.82,1282.53C2435.07,1282.53 2436.84,1281 2438.13,1277.93C2439.42,1274.87 2440.39,1271.57 2441.03,1268.03C2441.68,1263.84 2442,1258.84 2442,1253.04L2442,1201.81C2442,1200.52 2442.64,1198.27 2443.93,1195.04L2445.87,1191.18L2445.87,1129.31C2445.87,1126.73 2446.11,1124.15 2446.59,1121.58C2447.08,1119 2447.32,1116.58 2447.32,1114.33C2447.32,1113.36 2446.83,1111.91 2445.87,1109.98C2444.9,1108.04 2443.61,1106.11 2442,1104.18C2440.39,1102.24 2438.54,1100.55 2436.44,1099.1C2434.35,1097.65 2432.17,1096.93 2429.92,1096.93L2376.27,1096.93C2369.5,1096.93 2364.26,1098.13 2360.56,1100.55C2356.85,1102.97 2354.03,1106.03 2352.1,1109.74C2350.17,1113.44 2348.72,1117.47 2347.75,1121.82C2346.78,1126.17 2345.58,1130.2 2344.12,1133.9C2342.68,1137.61 2340.66,1140.67 2338.08,1143.09C2335.51,1145.5 2331.64,1146.71 2326.48,1146.71C2321.65,1146.71 2318.19,1144.86 2316.09,1141.15C2314,1137.45 2312.95,1133.5 2312.95,1129.31C2312.95,1128.02 2313.11,1126.01 2313.43,1123.27C2313.76,1120.53 2314.16,1117.71 2314.64,1114.81C2315.12,1111.91 2315.61,1109.17 2316.09,1106.59C2316.58,1104.02 2316.82,1102.24 2316.82,1101.28L2322.62,1078.08C2322.62,1077.11 2322.86,1074.93 2323.34,1071.55C2323.83,1068.17 2324.63,1064.54 2325.76,1060.68C2326.89,1056.81 2328.26,1053.43 2329.87,1050.53C2331.48,1047.63 2333.41,1046.18 2335.67,1046.18C2339.86,1046.18 2343.16,1046.98 2345.58,1048.59C2347.99,1050.2 2350.65,1051.98 2353.55,1053.91C2355.48,1055.52 2357.5,1056.81 2359.59,1057.78C2361.69,1058.74 2364.51,1059.23 2368.05,1059.23C2369.98,1059.23 2372.88,1058.82 2376.75,1058.02C2380.62,1057.21 2383.52,1056.81 2385.45,1056.81L2395.12,1056.81C2396.08,1057.45 2397.21,1057.86 2398.5,1058.02C2399.79,1058.18 2401.24,1058.42 2402.85,1058.74C2404.46,1059.07 2406.23,1059.23 2408.17,1059.23L2481.15,1059.23L2494.2,1056.81L2507.73,1059.23C2514.5,1059.23 2521.51,1058.82 2528.76,1058.02C2536.01,1057.21 2542.86,1056.81 2549.3,1056.81L2572.5,1056.81C2578.3,1056.81 2583.46,1056.01 2587.97,1054.39C2592.48,1052.78 2596.43,1051.09 2599.81,1049.32C2603.19,1047.55 2605.93,1045.86 2608.03,1044.24C2610.12,1042.63 2611.65,1041.83 2612.62,1041.83Z" style="fill-rule:nonzero;"/>
        </g>
        <g transform="matrix(0.295245,0,0,0.295245,807.635,-140.712)">
            <path d="M2800.5,1056.81C2802.43,1056.81 2804.29,1056.97 2806.06,1057.29C2807.83,1057.62 2809.93,1057.86 2812.34,1058.02C2814.76,1058.18 2817.66,1058.42 2821.04,1058.74C2824.43,1059.07 2828.86,1059.23 2834.33,1059.23L2850.28,1055.36C2852.86,1054.72 2855.28,1054.07 2857.53,1053.43C2859.47,1052.78 2861.4,1052.3 2863.33,1051.98C2865.27,1051.65 2866.72,1051.49 2867.68,1051.49C2869.94,1051.49 2872.76,1052.3 2876.14,1053.91C2879.53,1055.52 2882.51,1057.29 2885.08,1059.23C2887.34,1063.42 2888.79,1068.41 2889.43,1074.21C2890.08,1080.01 2891.37,1085.01 2893.3,1089.19C2894.27,1090.16 2895.39,1092.01 2896.68,1094.75C2897.97,1097.49 2899.26,1100.15 2900.55,1102.73C2901.84,1106.27 2903.45,1109.82 2905.38,1113.36C2905.38,1119.48 2901.36,1122.54 2893.3,1122.54C2891.37,1122.54 2888.47,1121.01 2884.6,1117.95C2880.73,1114.89 2875.74,1111.51 2869.62,1107.8C2863.49,1104.1 2856.24,1100.71 2847.87,1097.65C2839.49,1094.59 2829.5,1093.06 2817.9,1093.06L2808.72,1095.48C2806.78,1098.38 2804.93,1100.79 2803.16,1102.73C2801.39,1104.66 2800.5,1106.27 2800.5,1107.56L2800.5,1111.91C2799.86,1114.49 2799.21,1116.9 2798.57,1119.16C2797.92,1121.09 2797.44,1123.03 2797.12,1124.96C2796.8,1126.89 2796.63,1128.34 2796.63,1129.31L2796.63,1164.11C2796.63,1168.94 2797.6,1173.54 2799.53,1177.88C2801.47,1182.24 2804.53,1184.41 2808.72,1184.41C2809.68,1184.41 2811.3,1184.25 2813.55,1183.93C2815.81,1183.61 2818.22,1183.12 2820.8,1182.48C2823.7,1181.83 2826.76,1181.19 2829.98,1180.54L2839.65,1180.54C2842.23,1180.54 2844.56,1179.9 2846.66,1178.61C2848.75,1177.32 2850.77,1175.95 2852.7,1174.5C2854.63,1173.05 2856.49,1171.68 2858.26,1170.39C2860.03,1169.11 2861.88,1168.46 2863.82,1168.46C2864.78,1168.46 2865.91,1169.11 2867.2,1170.39C2868.49,1171.68 2869.78,1173.13 2871.07,1174.74L2875.9,1180.54L2875.9,1212.44C2875.9,1221.47 2871.87,1225.98 2863.82,1225.98C2860.27,1225.98 2857.21,1225.25 2854.63,1223.8C2852.06,1222.35 2849.8,1220.82 2847.87,1219.21C2844.32,1217.92 2841.34,1216.47 2838.93,1214.86C2836.51,1213.25 2833.53,1212.44 2829.98,1212.44L2822.25,1212.44L2812.58,1212.44C2804.53,1212.44 2799.37,1213.89 2797.12,1216.79C2794.86,1219.69 2793.73,1225.49 2793.73,1234.19L2793.73,1246.28C2794.7,1250.79 2795.35,1255.3 2795.67,1259.81C2795.99,1264.32 2796.55,1268.51 2797.36,1272.38C2798.16,1276.24 2799.7,1279.55 2801.95,1282.29C2804.21,1285.02 2807.75,1286.88 2812.58,1287.84L2839.65,1287.84C2844.16,1287.84 2849.08,1286.96 2854.39,1285.18C2859.71,1283.41 2865.11,1281.08 2870.58,1278.18C2876.06,1276.24 2881.14,1274.47 2885.81,1272.86C2890.48,1271.25 2894.75,1270.44 2898.62,1270.44C2899.91,1271.41 2901.2,1272.54 2902.48,1273.83C2903.45,1274.79 2904.42,1275.76 2905.38,1276.73C2906.35,1277.69 2906.83,1278.66 2906.83,1279.63C2906.83,1281.88 2906.03,1283.98 2904.42,1285.91C2902.81,1287.84 2900.87,1289.78 2898.62,1291.71C2894.11,1295.9 2890.88,1300.17 2888.95,1304.52C2887.02,1308.87 2885.16,1312.9 2883.39,1316.6C2881.62,1320.31 2879.45,1323.37 2876.87,1325.79C2874.29,1328.2 2870.42,1329.41 2865.27,1329.41C2863.33,1329.41 2861.56,1329.17 2859.95,1328.68C2858.34,1328.2 2856.65,1327.56 2854.88,1326.75C2853.1,1325.95 2851.01,1325.3 2848.59,1324.82C2846.18,1324.34 2843.2,1324.09 2839.65,1324.09L2792.77,1325.54L2776.33,1329.41L2750.72,1329.41L2736.22,1329.41L2726.55,1332.31L2712.05,1333.28C2710.44,1333.28 2708.67,1332.63 2706.73,1331.34C2704.8,1330.06 2703.03,1328.52 2701.42,1326.75C2699.81,1324.98 2698.44,1323.21 2697.31,1321.43C2696.18,1319.66 2695.62,1318.29 2695.62,1317.33C2695.62,1309.27 2701.58,1305.24 2713.5,1305.24C2716.08,1304.28 2718.66,1303.15 2721.23,1301.86C2726.07,1299.61 2730.1,1297.99 2733.32,1297.03C2740.08,1295.74 2744.68,1293.64 2747.09,1290.74C2749.51,1287.84 2750.72,1281.08 2750.72,1270.44C2750.72,1268.83 2751.28,1267.14 2752.41,1265.37C2753.54,1263.6 2752.97,1261.74 2750.72,1259.81C2750.72,1258.2 2750.56,1256.51 2750.23,1254.74C2749.91,1252.96 2749.43,1251.27 2748.78,1249.66C2748.14,1247.73 2747.49,1245.63 2746.85,1243.38L2746.85,1234.19L2746.85,1216.79L2746.85,1204.71L2750.72,1170.88L2750.72,1162.66C2750.72,1160.73 2750.96,1159.44 2751.44,1158.79C2751.93,1158.15 2752.17,1156.86 2752.17,1154.93L2752.17,1129.31L2752.17,1115.78L2752.17,1101.28C2752.17,1098.38 2750.56,1096.04 2747.33,1094.27C2744.11,1092.5 2741.7,1091.61 2740.08,1091.61L2726.55,1091.61C2720.43,1091.61 2716,1089.03 2713.26,1083.88C2710.52,1078.72 2709.15,1072.76 2709.15,1065.99C2709.15,1064.06 2710.04,1062.29 2711.81,1060.68C2713.58,1059.07 2715.43,1058.26 2717.37,1058.26L2742.98,1058.26C2744.92,1058.26 2747.9,1058.02 2751.93,1057.54C2755.95,1057.05 2761.03,1056.81 2767.15,1056.81L2800.5,1056.81Z" style="fill-rule:nonzero;"/>
        </g>
        <g transform="matrix(0.295245,0,0,0.295245,807.635,-140.712)">
            <path d="M3056.53,1052.46C3060.72,1052.46 3064.27,1052.62 3067.17,1052.94C3070.07,1053.27 3072.81,1054.56 3075.38,1056.81C3079.57,1059.39 3082.23,1061.72 3083.36,1063.82C3084.49,1065.91 3086.34,1068.09 3088.92,1070.34C3091.17,1076.79 3094.56,1080.74 3099.07,1082.18C3103.58,1083.63 3107.77,1085.97 3111.63,1089.19C3115.5,1092.42 3119.29,1096.36 3122.99,1101.04C3126.7,1105.71 3130.48,1110.62 3134.35,1115.78C3138.22,1120.93 3141.92,1125.93 3145.47,1130.76C3149.01,1135.59 3152.56,1139.62 3156.1,1142.84C3160.93,1148.32 3165.04,1154.04 3168.43,1160C3171.81,1165.96 3177.21,1170.88 3184.62,1174.74C3186.55,1176.36 3190.26,1180.06 3195.73,1185.86C3201.21,1191.66 3207.25,1197.86 3213.86,1204.47C3220.47,1211.07 3226.83,1216.95 3232.95,1222.11C3239.07,1227.27 3243.91,1229.84 3247.45,1229.84C3249.71,1229.84 3251.24,1229.36 3252.04,1228.39C3252.85,1227.43 3253.25,1226.22 3253.25,1224.77C3253.25,1223.32 3253.01,1221.87 3252.53,1220.42C3252.04,1218.97 3251.8,1217.76 3251.8,1216.79L3251.8,1180.54C3251.8,1177.64 3252.69,1174.26 3254.46,1170.39C3256.23,1166.53 3257.12,1161.86 3257.12,1156.38L3257.12,1115.78C3255.83,1114.81 3254.06,1113.2 3251.8,1110.94C3249.55,1108.69 3247.29,1106.35 3245.03,1103.93C3242.78,1101.52 3240.6,1099.34 3238.51,1097.41C3236.41,1095.48 3234.88,1094.51 3233.92,1094.51L3224.73,1094.51C3222.8,1094.51 3220.55,1093.95 3217.97,1092.82C3215.39,1091.69 3212.97,1090.32 3210.72,1088.71C3208.46,1087.1 3206.61,1085.57 3205.16,1084.12C3203.71,1082.67 3202.98,1081.62 3202.98,1080.98L3202.98,1065.99C3202.98,1062.77 3203.71,1060.19 3205.16,1058.26C3206.61,1056.33 3208.46,1054.96 3210.72,1054.15C3212.97,1053.35 3215.39,1052.86 3217.97,1052.7C3220.55,1052.54 3222.8,1052.46 3224.73,1052.46L3233.92,1052.46C3236.17,1052.46 3239.15,1052.7 3242.86,1053.18C3246.57,1053.67 3250.43,1054.15 3254.46,1054.63C3258.49,1055.12 3262.35,1055.6 3266.06,1056.09C3269.76,1056.57 3273.07,1056.81 3275.97,1056.81L3343.15,1056.81C3349.6,1056.81 3355.64,1058.26 3361.28,1061.16C3366.91,1064.06 3369.73,1068.89 3369.73,1075.66C3369.73,1078.24 3369.57,1080.41 3369.25,1082.18C3368.93,1083.96 3367.8,1086.29 3365.87,1089.19C3358.46,1093.7 3351.29,1095.72 3344.36,1095.24C3337.43,1094.75 3330.74,1094.51 3324.3,1094.51L3310.77,1098.38L3302.55,1098.38C3299.97,1098.38 3297.8,1100.23 3296.03,1103.93C3294.25,1107.64 3293.37,1111.59 3293.37,1115.78L3293.37,1189.73C3293.37,1191.66 3294.01,1194.56 3295.3,1198.43C3296.59,1202.29 3297.23,1205.19 3297.23,1207.13L3297.23,1234.19L3289.02,1281.08C3289.02,1283.01 3289.42,1285.59 3290.23,1288.81C3291.03,1292.03 3292,1295.34 3293.13,1298.72C3294.25,1302.1 3295.22,1305.32 3296.03,1308.38C3296.83,1311.45 3297.23,1313.94 3297.23,1315.88C3297.23,1317.17 3297.15,1319.42 3296.99,1322.64C3296.83,1325.87 3296.51,1329.09 3296.03,1332.31C3295.54,1335.53 3294.74,1338.35 3293.61,1340.77C3292.48,1343.18 3290.95,1344.39 3289.02,1344.39C3287.73,1344.39 3285.55,1344.39 3282.49,1344.39C3279.43,1344.39 3276.29,1344.23 3273.07,1343.91C3269.85,1343.59 3267.03,1343.11 3264.61,1342.46C3262.19,1341.82 3260.98,1341.01 3260.98,1340.04C3256.47,1335.53 3252.69,1330.06 3249.63,1323.61C3246.57,1317.17 3242.78,1312.01 3238.27,1308.14C3234.72,1303.31 3231.34,1299.28 3228.12,1296.06C3224.89,1292.84 3221.75,1289.78 3218.69,1286.88C3215.63,1283.98 3212.73,1280.92 3209.99,1277.69C3207.25,1274.47 3204.92,1270.61 3202.98,1266.09C3199.44,1258.04 3193.96,1250.31 3186.55,1242.89C3179.14,1235.48 3171.33,1228.07 3163.11,1220.66C3154.89,1213.25 3146.84,1205.76 3138.94,1198.18C3131.05,1190.61 3124.68,1182.8 3119.85,1174.74C3119.85,1173.78 3119.37,1172.25 3118.4,1170.15C3117.43,1168.06 3116.14,1166.04 3114.53,1164.11C3112.92,1162.18 3111.07,1160.4 3108.98,1158.79C3106.88,1157.18 3104.71,1156.38 3102.45,1156.38C3096.33,1156.38 3093.27,1161.21 3093.27,1170.88L3093.27,1225.98L3097.13,1253.04C3097.13,1259.49 3096.89,1263.92 3096.41,1266.34C3095.93,1268.75 3095.68,1272.38 3095.68,1277.21C3095.68,1283.33 3097.54,1287.92 3101.24,1290.99C3104.95,1294.05 3109.54,1296.38 3115.02,1297.99C3120.49,1299.61 3126.38,1300.81 3132.66,1301.62C3138.94,1302.42 3144.82,1303.47 3150.3,1304.76C3155.78,1306.05 3160.37,1308.06 3164.08,1310.8C3167.78,1313.54 3169.63,1317.49 3169.63,1322.64C3169.63,1325.22 3168.83,1326.75 3167.22,1327.24C3165.61,1327.72 3163.67,1327.96 3161.42,1327.96L3106.32,1327.96L3075.38,1332.31C3072.81,1330.06 3069.58,1328.77 3065.72,1328.44C3061.85,1328.12 3058.79,1327.96 3056.53,1327.96L3047.35,1327.96C3040.58,1327.96 3035.59,1327.07 3032.37,1325.3C3029.14,1323.53 3025.12,1322.64 3020.28,1322.64L3002.88,1322.64L2999.02,1327.96L2989.35,1327.96C2989.35,1326.67 2989.27,1324.5 2989.11,1321.43C2988.95,1318.37 2988.87,1315.39 2988.87,1312.49C2988.55,1308.95 2988.38,1305.24 2988.38,1301.38C2988.38,1298.8 2989.83,1296.54 2992.73,1294.61C2995.63,1292.68 2998.21,1291.71 3000.47,1291.71C3005.62,1291.71 3009.09,1291.71 3010.86,1291.71C3012.63,1291.71 3013.76,1291.63 3014.24,1291.47C3014.73,1291.31 3015.05,1291.23 3015.21,1291.23C3015.37,1291.23 3016.34,1291.15 3018.11,1290.99C3019.88,1290.82 3022.94,1290.74 3027.29,1290.74C3031.64,1290.74 3038.33,1290.74 3047.35,1290.74C3049.61,1290.74 3051.54,1290.02 3053.15,1288.57C3054.76,1287.12 3056.05,1285.43 3057.02,1283.49C3057.98,1281.56 3058.63,1279.55 3058.95,1277.45C3059.27,1275.36 3059.43,1273.83 3059.43,1272.86C3058.79,1271.57 3058.31,1270.28 3057.98,1268.99C3057.02,1267.06 3056.53,1264.81 3056.53,1262.23C3056.53,1257.39 3056.29,1253.45 3055.81,1250.38C3055.33,1247.32 3054.68,1244.67 3053.88,1242.41C3053.07,1240.15 3052.43,1238.14 3051.94,1236.37C3051.46,1234.6 3051.22,1232.42 3051.22,1229.84C3051.22,1227.59 3051.46,1224.85 3051.94,1221.63C3052.43,1218.4 3052.99,1215.51 3053.63,1212.93C3054.6,1209.7 3055.57,1206.48 3056.53,1203.26L3056.53,1170.88C3056.53,1168.94 3056.29,1166.69 3055.81,1164.11C3055.33,1161.53 3053.8,1158.95 3051.22,1156.38C3051.22,1152.51 3052.02,1150.09 3053.63,1149.13C3054.6,1148.48 3055.57,1148.16 3056.53,1148.16C3056.21,1146.87 3055.57,1145.1 3054.6,1142.84C3053.63,1140.59 3052.59,1138.33 3051.46,1136.08C3050.33,1133.82 3049.37,1131.73 3048.56,1129.79C3047.75,1127.86 3047.35,1126.41 3047.35,1125.44C3047.35,1118.68 3044.77,1113.52 3039.62,1109.98C3034.46,1106.43 3028.74,1103.05 3022.46,1099.83C3016.18,1096.61 3010.46,1092.9 3005.3,1088.71C3000.14,1084.52 2997.57,1078.4 2997.57,1070.34C2998.86,1067.12 3000.14,1064.22 3001.43,1061.64C3002.72,1059.39 3004.09,1057.29 3005.54,1055.36C3006.99,1053.43 3008.85,1052.46 3011.1,1052.46L3056.53,1052.46Z" style="fill-rule:nonzero;"/>
        </g>
        <g transform="matrix(0.295245,0,0,0.295245,807.635,-140.712)">
            <path d="M1399.75,1501.96C1399.21,1501.16 1398.68,1500.23 1398.15,1499.16C1397.08,1497.03 1396.55,1495.29 1396.55,1493.96L1396.55,1475.16L1392.95,1452.76L1392.95,1445.16C1392.95,1442.23 1392.02,1440.29 1390.15,1439.36C1388.28,1438.43 1386.28,1437.69 1384.15,1437.16C1381.21,1436.63 1378.62,1436.09 1376.35,1435.56C1374.08,1435.03 1372.95,1433.43 1372.95,1430.76C1372.95,1428.36 1373.48,1426.03 1374.55,1423.76C1375.62,1421.49 1376.88,1419.36 1378.35,1417.36C1379.82,1415.36 1381.48,1413.76 1383.35,1412.56C1385.21,1411.36 1386.95,1410.76 1388.55,1410.76C1392.28,1412.63 1396.02,1414.09 1399.75,1415.16C1402.95,1416.49 1406.55,1417.56 1410.55,1418.36C1414.55,1419.16 1418.41,1419.56 1422.15,1419.56L1437.75,1419.56C1440.41,1419.56 1443.48,1419.23 1446.95,1418.56C1450.41,1417.89 1453.68,1417.63 1456.75,1417.76C1459.82,1417.89 1462.41,1418.83 1464.55,1420.56C1466.68,1422.29 1467.75,1425.69 1467.75,1430.76C1468.55,1433.43 1469.08,1435.96 1469.35,1438.36C1469.62,1440.49 1469.68,1442.49 1469.55,1444.36C1469.41,1446.23 1468.82,1447.56 1467.75,1448.36L1456.55,1448.36L1448.55,1448.36C1445.35,1448.36 1442.75,1450.03 1440.75,1453.36C1438.75,1456.69 1437.75,1460.23 1437.75,1463.96C1436.41,1467.96 1435.62,1471.16 1435.35,1473.56C1435.08,1475.96 1435.21,1477.83 1435.75,1479.16C1436.02,1480.76 1436.68,1481.96 1437.75,1482.76L1432.95,1497.16C1434.28,1499.29 1435.15,1501.49 1435.55,1503.76C1435.95,1506.03 1436.41,1508.09 1436.95,1509.96C1437.21,1512.36 1437.48,1514.49 1437.75,1516.36C1437.75,1517.16 1437.48,1518.36 1436.95,1519.96C1436.41,1521.56 1435.88,1523.29 1435.35,1525.16C1434.82,1527.03 1434.28,1528.89 1433.75,1530.76C1433.21,1532.63 1432.95,1534.09 1432.95,1535.16L1432.95,1542.76C1432.95,1543.83 1432.82,1545.16 1432.55,1546.76C1432.28,1548.36 1431.88,1550.09 1431.35,1551.96C1430.82,1554.09 1430.28,1556.23 1429.75,1558.36C1429.75,1560.23 1430.02,1561.89 1430.55,1563.36C1431.08,1564.83 1431.62,1566.23 1432.15,1567.56C1432.68,1568.63 1432.95,1569.89 1432.95,1571.36C1432.95,1572.83 1432.95,1574.49 1432.95,1576.36C1432.95,1580.09 1432.68,1582.63 1432.15,1583.96C1430.55,1585.56 1429.75,1588.23 1429.75,1591.96C1429.75,1595.69 1428.21,1599.49 1425.15,1603.36C1422.08,1607.23 1418.82,1612.23 1415.35,1618.36C1415.35,1621.83 1413.68,1624.83 1410.35,1627.36C1407.02,1629.89 1403.48,1632.89 1399.75,1636.36C1397.88,1638.49 1396.41,1640.16 1395.35,1641.36C1394.28,1642.56 1393.28,1643.56 1392.35,1644.36C1391.41,1645.16 1390.35,1645.83 1389.15,1646.36C1387.95,1646.89 1386.28,1647.56 1384.15,1648.36C1375.35,1652.36 1366.68,1654.69 1358.15,1655.36C1349.62,1656.03 1343.48,1656.36 1339.75,1656.36C1335.21,1656.36 1330.21,1656.09 1324.75,1655.56C1319.28,1655.03 1313.82,1654.09 1308.35,1652.76C1302.88,1651.43 1297.62,1649.83 1292.55,1647.96C1287.48,1646.09 1283.21,1643.69 1279.75,1640.76L1271.75,1629.56C1269.62,1626.63 1267.75,1623.43 1266.15,1619.96C1264.55,1616.49 1263.08,1613.29 1261.75,1610.36C1260.15,1606.89 1258.68,1603.29 1257.35,1599.56L1257.35,1572.76C1257.35,1569.03 1256.62,1565.23 1255.15,1561.36C1253.68,1557.49 1252.95,1552.49 1252.95,1546.36L1252.95,1523.96C1253.48,1521.29 1254.15,1518.63 1254.95,1515.96C1255.48,1513.83 1256.02,1511.69 1256.55,1509.56C1257.08,1507.43 1257.35,1505.96 1257.35,1505.16C1256.55,1501.43 1255.75,1498.09 1254.95,1495.16C1253.62,1489.29 1252.95,1485.16 1252.95,1482.76C1253.48,1480.63 1254.15,1478.49 1254.95,1476.36C1255.48,1474.49 1256.02,1472.76 1256.55,1471.16C1257.08,1469.56 1257.35,1468.23 1257.35,1467.16L1257.35,1445.16C1257.35,1443.29 1255.75,1441.69 1252.55,1440.36C1249.35,1439.03 1245.82,1437.89 1241.95,1436.96C1238.08,1436.03 1234.62,1435.09 1231.55,1434.16C1228.48,1433.23 1227.08,1432.09 1227.35,1430.76C1227.35,1427.29 1228.82,1423.83 1231.75,1420.36C1234.68,1416.89 1238.02,1415.16 1241.75,1415.16L1260.95,1410.76L1268.55,1410.76C1270.15,1410.76 1273.28,1411.49 1277.95,1412.96C1282.62,1414.43 1286.95,1415.16 1290.95,1415.16L1324.15,1415.16C1327.88,1415.16 1330.08,1415.96 1330.75,1417.56C1331.41,1419.16 1331.75,1420.49 1331.75,1421.56C1331.75,1427.43 1330.95,1431.49 1329.35,1433.76C1327.75,1436.03 1325.68,1437.49 1323.15,1438.16C1320.62,1438.83 1317.95,1439.16 1315.15,1439.16C1312.35,1439.16 1309.68,1439.76 1307.15,1440.96C1304.62,1442.16 1302.55,1444.43 1300.95,1447.76C1299.35,1451.09 1298.55,1456.49 1298.55,1463.96C1298.55,1464.76 1298.68,1466.03 1298.95,1467.76C1299.21,1469.49 1299.55,1471.36 1299.95,1473.36C1300.35,1475.36 1300.75,1477.23 1301.15,1478.96C1301.55,1480.69 1301.75,1481.96 1301.75,1482.76L1301.75,1580.76C1300.15,1584.23 1299.75,1586.43 1300.55,1587.36C1301.35,1588.29 1301.75,1589.83 1301.75,1591.96L1306.15,1602.76C1308.82,1606.76 1311.35,1609.96 1313.75,1612.36C1316.15,1614.76 1318.82,1616.69 1321.75,1618.16C1324.68,1619.63 1328.15,1620.63 1332.15,1621.16C1336.15,1621.69 1341.21,1621.96 1347.35,1621.96C1349.21,1621.96 1352.41,1621.16 1356.95,1619.56C1361.48,1617.96 1365.75,1616.09 1369.75,1613.96C1370.55,1612.09 1371.82,1610.29 1373.55,1608.56C1375.28,1606.83 1377.35,1604.43 1379.75,1601.36C1382.15,1598.29 1384.75,1594.29 1387.55,1589.36C1390.35,1584.43 1393.35,1577.83 1396.55,1569.56L1396.55,1553.96C1396.55,1552.09 1396.68,1548.63 1396.95,1543.56C1397.21,1538.49 1397.55,1533.16 1397.95,1527.56C1398.35,1521.96 1398.75,1516.69 1399.15,1511.76C1399.55,1506.83 1399.75,1503.56 1399.75,1501.96Z" style="fill-rule:nonzero;"/>
        </g>
        <g transform="matrix(0.295245,0,0,0.295245,807.635,-140.712)">
            <path d="M1581.76,1415.96C1585.23,1415.96 1588.16,1416.09 1590.56,1416.36C1592.96,1416.63 1595.23,1417.69 1597.36,1419.56C1600.83,1421.69 1603.03,1423.63 1603.96,1425.36C1604.9,1427.09 1606.43,1428.89 1608.56,1430.76C1610.43,1436.09 1613.23,1439.36 1616.96,1440.56C1620.7,1441.76 1624.16,1443.69 1627.36,1446.36C1630.56,1449.03 1633.7,1452.29 1636.76,1456.16C1639.83,1460.03 1642.96,1464.09 1646.16,1468.36C1649.36,1472.63 1652.43,1476.76 1655.36,1480.76C1658.3,1484.76 1661.23,1488.09 1664.16,1490.76C1668.16,1495.29 1671.56,1500.03 1674.36,1504.96C1677.16,1509.89 1681.63,1513.96 1687.76,1517.16C1689.36,1518.49 1692.43,1521.56 1696.96,1526.36C1701.5,1531.16 1706.5,1536.29 1711.96,1541.76C1717.43,1547.23 1722.7,1552.09 1727.76,1556.36C1732.83,1560.63 1736.83,1562.76 1739.76,1562.76C1741.63,1562.76 1742.9,1562.36 1743.56,1561.56C1744.23,1560.76 1744.56,1559.76 1744.56,1558.56C1744.56,1557.36 1744.36,1556.16 1743.96,1554.96C1743.56,1553.76 1743.36,1552.76 1743.36,1551.96L1743.36,1521.96C1743.36,1519.56 1744.1,1516.76 1745.56,1513.56C1747.03,1510.36 1747.76,1506.49 1747.76,1501.96L1747.76,1468.36C1746.7,1467.56 1745.23,1466.23 1743.36,1464.36C1741.5,1462.49 1739.63,1460.56 1737.76,1458.56C1735.9,1456.56 1734.1,1454.76 1732.36,1453.16C1730.63,1451.56 1729.36,1450.76 1728.56,1450.76L1720.96,1450.76C1719.36,1450.76 1717.5,1450.29 1715.36,1449.36C1713.23,1448.43 1711.23,1447.29 1709.36,1445.96C1707.5,1444.63 1705.96,1443.36 1704.76,1442.16C1703.56,1440.96 1702.96,1440.09 1702.96,1439.56L1702.96,1427.16C1702.96,1424.49 1703.56,1422.36 1704.76,1420.76C1705.96,1419.16 1707.5,1418.03 1709.36,1417.36C1711.23,1416.69 1713.23,1416.29 1715.36,1416.16C1717.5,1416.03 1719.36,1415.96 1720.96,1415.96L1728.56,1415.96C1730.43,1415.96 1732.9,1416.16 1735.96,1416.56C1739.03,1416.96 1742.23,1417.36 1745.56,1417.76C1748.9,1418.16 1752.1,1418.56 1755.16,1418.96C1758.23,1419.36 1760.96,1419.56 1763.36,1419.56L1818.96,1419.56C1824.3,1419.56 1829.3,1420.76 1833.96,1423.16C1838.63,1425.56 1840.96,1429.56 1840.96,1435.16C1840.96,1437.29 1840.83,1439.09 1840.56,1440.56C1840.3,1442.03 1839.36,1443.96 1837.76,1446.36C1831.63,1450.09 1825.7,1451.76 1819.96,1451.36C1814.23,1450.96 1808.7,1450.76 1803.36,1450.76L1792.16,1453.96L1785.36,1453.96C1783.23,1453.96 1781.43,1455.49 1779.96,1458.56C1778.5,1461.63 1777.76,1464.89 1777.76,1468.36L1777.76,1529.56C1777.76,1531.16 1778.3,1533.56 1779.36,1536.76C1780.43,1539.96 1780.96,1542.36 1780.96,1543.96L1780.96,1566.36L1774.16,1605.16C1774.16,1606.76 1774.5,1608.89 1775.16,1611.56C1775.83,1614.23 1776.63,1616.96 1777.56,1619.76C1778.5,1622.56 1779.3,1625.23 1779.96,1627.76C1780.63,1630.29 1780.96,1632.36 1780.96,1633.96C1780.96,1635.03 1780.9,1636.89 1780.76,1639.56C1780.63,1642.23 1780.36,1644.89 1779.96,1647.56C1779.56,1650.23 1778.9,1652.56 1777.96,1654.56C1777.03,1656.56 1775.76,1657.56 1774.16,1657.56C1773.1,1657.56 1771.3,1657.56 1768.76,1657.56C1766.23,1657.56 1763.63,1657.43 1760.96,1657.16C1758.3,1656.89 1755.96,1656.49 1753.96,1655.96C1751.96,1655.43 1750.96,1654.76 1750.96,1653.96C1747.23,1650.23 1744.1,1645.69 1741.56,1640.36C1739.03,1635.03 1735.9,1630.76 1732.16,1627.56C1729.23,1623.56 1726.43,1620.23 1723.76,1617.56C1721.1,1614.89 1718.5,1612.36 1715.96,1609.96C1713.43,1607.56 1711.03,1605.03 1708.76,1602.36C1706.5,1599.69 1704.56,1596.49 1702.96,1592.76C1700.03,1586.09 1695.5,1579.69 1689.36,1573.56C1683.23,1567.43 1676.76,1561.29 1669.96,1555.16C1663.16,1549.03 1656.5,1542.83 1649.96,1536.56C1643.43,1530.29 1638.16,1523.83 1634.16,1517.16C1634.16,1516.36 1633.76,1515.09 1632.96,1513.36C1632.16,1511.63 1631.1,1509.96 1629.76,1508.36C1628.43,1506.76 1626.9,1505.29 1625.16,1503.96C1623.43,1502.63 1621.63,1501.96 1619.76,1501.96C1614.7,1501.96 1612.16,1505.96 1612.16,1513.96L1612.16,1559.56L1615.36,1581.96C1615.36,1587.29 1615.16,1590.96 1614.76,1592.96C1614.36,1594.96 1614.16,1597.96 1614.16,1601.96C1614.16,1607.03 1615.7,1610.83 1618.76,1613.36C1621.83,1615.89 1625.63,1617.83 1630.16,1619.16C1634.7,1620.49 1639.56,1621.49 1644.76,1622.16C1649.96,1622.83 1654.83,1623.69 1659.36,1624.76C1663.9,1625.83 1667.7,1627.49 1670.76,1629.76C1673.83,1632.03 1675.36,1635.29 1675.36,1639.56C1675.36,1641.69 1674.7,1642.96 1673.36,1643.36C1672.03,1643.76 1670.43,1643.96 1668.56,1643.96L1622.96,1643.96L1597.36,1647.56C1595.23,1645.69 1592.56,1644.63 1589.36,1644.36C1586.16,1644.09 1583.63,1643.96 1581.76,1643.96L1574.16,1643.96C1568.56,1643.96 1564.43,1643.23 1561.76,1641.76C1559.1,1640.29 1555.76,1639.56 1551.76,1639.56L1537.36,1639.56L1534.16,1643.96L1526.16,1643.96C1526.16,1642.89 1526.1,1641.09 1525.96,1638.56C1525.83,1636.03 1525.76,1633.56 1525.76,1631.16C1525.5,1628.23 1525.36,1625.16 1525.36,1621.96C1525.36,1619.83 1526.56,1617.96 1528.96,1616.36C1531.36,1614.76 1533.5,1613.96 1535.36,1613.96C1539.63,1613.96 1542.5,1613.96 1543.96,1613.96C1545.43,1613.96 1546.36,1613.89 1546.76,1613.76C1547.16,1613.63 1547.43,1613.56 1547.56,1613.56C1547.7,1613.56 1548.5,1613.49 1549.96,1613.36C1551.43,1613.23 1553.96,1613.16 1557.56,1613.16C1561.16,1613.16 1566.7,1613.16 1574.16,1613.16C1576.03,1613.16 1577.63,1612.56 1578.96,1611.36C1580.3,1610.16 1581.36,1608.76 1582.16,1607.16C1582.96,1605.56 1583.5,1603.89 1583.76,1602.16C1584.03,1600.43 1584.16,1599.16 1584.16,1598.36C1583.63,1597.29 1583.23,1596.23 1582.96,1595.16C1582.16,1593.56 1581.76,1591.69 1581.76,1589.56C1581.76,1585.56 1581.56,1582.29 1581.16,1579.76C1580.76,1577.23 1580.23,1575.03 1579.56,1573.16C1578.9,1571.29 1578.36,1569.63 1577.96,1568.16C1577.56,1566.69 1577.36,1564.89 1577.36,1562.76C1577.36,1560.89 1577.56,1558.63 1577.96,1555.96C1578.36,1553.29 1578.83,1550.89 1579.36,1548.76C1580.16,1546.09 1580.96,1543.43 1581.76,1540.76L1581.76,1513.96C1581.76,1512.36 1581.56,1510.49 1581.16,1508.36C1580.76,1506.23 1579.5,1504.09 1577.36,1501.96C1577.36,1498.76 1578.03,1496.76 1579.36,1495.96C1580.16,1495.43 1580.96,1495.16 1581.76,1495.16C1581.5,1494.09 1580.96,1492.63 1580.16,1490.76C1579.36,1488.89 1578.5,1487.03 1577.56,1485.16C1576.63,1483.29 1575.83,1481.56 1575.16,1479.96C1574.5,1478.36 1574.16,1477.16 1574.16,1476.36C1574.16,1470.76 1572.03,1466.49 1567.76,1463.56C1563.5,1460.63 1558.76,1457.83 1553.56,1455.16C1548.36,1452.49 1543.63,1449.43 1539.36,1445.96C1535.1,1442.49 1532.96,1437.43 1532.96,1430.76C1534.03,1428.09 1535.1,1425.69 1536.16,1423.56C1537.23,1421.69 1538.36,1419.96 1539.56,1418.36C1540.76,1416.76 1542.3,1415.96 1544.16,1415.96L1581.76,1415.96Z" style="fill-rule:nonzero;"/>
        </g>
        <g transform="matrix(0.295245,0,0,0.295245,807.635,-140.712)">
            <path d="M1968.98,1415.16C1969.78,1415.16 1971.11,1415.36 1972.98,1415.76C1974.85,1416.16 1976.85,1416.56 1978.98,1416.96C1981.11,1417.36 1983.18,1417.69 1985.18,1417.96C1987.18,1418.23 1988.71,1418.36 1989.78,1418.36C1990.31,1418.36 1991.25,1418.89 1992.58,1419.96C1993.91,1421.03 1995.18,1422.36 1996.38,1423.96C1997.58,1425.56 1998.64,1427.36 1999.58,1429.36C2000.51,1431.36 2000.98,1433.29 2000.98,1435.16C2000.98,1436.23 1999.38,1437.16 1996.18,1437.96C1992.98,1438.76 1989.38,1439.56 1985.38,1440.36C1981.38,1441.16 1977.78,1442.09 1974.58,1443.16C1971.38,1444.23 1969.78,1445.56 1969.78,1447.16L1969.78,1475.16C1970.31,1477.29 1970.98,1479.29 1971.78,1481.16C1972.31,1482.76 1972.85,1484.36 1973.38,1485.96C1973.91,1487.56 1974.18,1488.76 1974.18,1489.56L1969.78,1508.36C1969.78,1509.16 1969.98,1510.63 1970.38,1512.76C1970.78,1514.89 1971.31,1517.16 1971.98,1519.56C1972.64,1521.96 1973.18,1524.23 1973.58,1526.36C1973.98,1528.49 1974.18,1529.96 1974.18,1530.76L1977.78,1550.76C1977.78,1556.36 1977.18,1561.56 1975.98,1566.36C1974.78,1571.16 1974.18,1574.49 1974.18,1576.36L1974.18,1587.56C1974.18,1589.16 1973.44,1590.56 1971.98,1591.76C1970.51,1592.96 1969.78,1596.36 1969.78,1601.96C1969.78,1603.03 1970.18,1604.29 1970.98,1605.76C1971.78,1607.23 1972.78,1608.56 1973.98,1609.76C1975.18,1610.96 1976.44,1611.96 1977.78,1612.76C1979.11,1613.56 1980.18,1613.96 1980.98,1613.96L1989.78,1616.36C1997.25,1619.83 2000.98,1625.43 2000.98,1633.16C2000.98,1636.36 1998.78,1638.96 1994.38,1640.96C1989.98,1642.96 1985.51,1643.96 1980.98,1643.96L1974.18,1643.96L1966.58,1643.96L1958.98,1643.96L1944.18,1639.56C1942.58,1639.56 1940.31,1639.96 1937.38,1640.76C1934.44,1641.56 1931.38,1642.49 1928.18,1643.56C1924.98,1644.63 1922.05,1645.56 1919.38,1646.36C1916.71,1647.16 1914.98,1647.56 1914.18,1647.56C1912.58,1647.56 1910.38,1646.69 1907.58,1644.96C1904.78,1643.23 1903.38,1641.43 1903.38,1639.56C1903.38,1636.63 1904.91,1634.03 1907.98,1631.76C1911.05,1629.49 1914.38,1627.23 1917.98,1624.96C1921.58,1622.69 1924.64,1620.23 1927.18,1617.56C1929.71,1614.89 1930.58,1611.56 1929.78,1607.56C1927.64,1603.56 1927.11,1600.56 1928.18,1598.56C1929.25,1596.56 1929.78,1594.63 1929.78,1592.76L1929.78,1581.96L1929.78,1555.16L1929.78,1497.16L1925.38,1486.36C1925.91,1483.43 1926.58,1480.63 1927.38,1477.96C1927.91,1475.83 1928.44,1473.76 1928.98,1471.76C1929.51,1469.76 1929.78,1468.23 1929.78,1467.16C1929.78,1461.83 1929.38,1457.63 1928.58,1454.56C1927.78,1451.49 1926.71,1449.03 1925.38,1447.16C1924.05,1445.83 1922.58,1444.96 1920.98,1444.56C1919.38,1444.16 1917.71,1443.89 1915.98,1443.76C1914.25,1443.63 1912.44,1443.43 1910.58,1443.16C1908.71,1442.89 1906.98,1442.36 1905.38,1441.56C1903.78,1440.49 1902.44,1438.76 1901.38,1436.36C1900.31,1433.96 1899.78,1430.23 1899.78,1425.16C1899.78,1424.09 1899.91,1423.03 1900.18,1421.96C1900.44,1421.16 1900.78,1420.36 1901.18,1419.56C1901.58,1418.76 1902.31,1418.36 1903.38,1418.36L1925.38,1418.36C1926.44,1418.36 1927.71,1418.49 1929.18,1418.76C1930.64,1419.03 1932.05,1419.43 1933.38,1419.96C1934.71,1420.49 1936.18,1421.03 1937.78,1421.56C1939.38,1421.56 1941.38,1421.43 1943.78,1421.16C1946.18,1420.89 1948.44,1420.49 1950.58,1419.96C1953.25,1419.43 1956.05,1418.89 1958.98,1418.36L1963.38,1418.36C1964.44,1418.36 1965.78,1417.83 1967.38,1416.76L1968.98,1415.16Z" style="fill-rule:nonzero;"/>
        </g>
        <g transform="matrix(0.295245,0,0,0.295245,807.635,-140.712)">
            <path d="M2182.19,1410.76C2186.19,1410.76 2189.19,1411.63 2191.19,1413.36C2193.19,1415.09 2194.73,1417.29 2195.79,1419.96C2196.86,1422.63 2197.46,1425.36 2197.59,1428.16C2197.73,1430.96 2197.79,1433.29 2197.79,1435.16L2197.79,1442.76C2196.19,1448.89 2193.46,1454.49 2189.59,1459.56C2185.73,1464.63 2180.73,1467.16 2174.59,1467.16C2170.59,1467.16 2166.33,1465.89 2161.79,1463.36C2157.26,1460.83 2152.19,1459.56 2146.59,1459.56C2140.73,1459.56 2134.99,1461.63 2129.39,1465.76C2123.79,1469.89 2118.73,1474.76 2114.19,1480.36C2109.66,1485.96 2105.99,1491.63 2103.19,1497.36C2100.39,1503.09 2098.99,1507.56 2098.99,1510.76L2098.99,1537.16C2098.99,1540.36 2099.53,1545.83 2100.59,1553.56C2101.66,1561.29 2103.39,1569.23 2105.79,1577.36C2108.19,1585.49 2111.33,1592.69 2115.19,1598.96C2119.06,1605.23 2123.93,1608.36 2129.79,1608.36L2137.79,1605.16C2143.93,1605.16 2149.66,1604.43 2154.99,1602.96C2160.33,1601.49 2165.26,1598.49 2169.79,1593.96C2175.66,1587.03 2181.26,1581.56 2186.59,1577.56C2188.19,1576.23 2190.06,1575.29 2192.19,1574.76C2194.33,1574.23 2196.19,1573.96 2197.79,1573.96C2198.33,1574.49 2198.99,1575.29 2199.79,1576.36C2201.39,1578.49 2202.19,1580.36 2202.19,1581.96C2202.19,1587.83 2200.06,1594.56 2195.79,1602.16C2191.53,1609.76 2186.39,1616.96 2180.39,1623.76C2174.39,1630.56 2168.26,1636.36 2161.99,1641.16C2155.73,1645.96 2150.59,1648.36 2146.59,1648.36L2143.39,1648.36C2139.66,1649.16 2136.19,1649.96 2132.99,1650.76C2130.06,1651.29 2127.26,1651.83 2124.59,1652.36C2121.93,1652.89 2120.06,1653.16 2118.99,1653.16C2116.86,1653.16 2113.86,1652.23 2109.99,1650.36C2106.13,1648.49 2102.06,1646.29 2097.79,1643.76C2093.53,1641.23 2089.66,1638.56 2086.19,1635.76C2082.73,1632.96 2080.59,1630.49 2079.79,1628.36C2078.73,1627.56 2077.33,1624.96 2075.59,1620.56C2073.86,1616.16 2072.13,1611.23 2070.39,1605.76C2068.66,1600.29 2067.19,1594.89 2065.99,1589.56C2064.79,1584.23 2064.19,1580.23 2064.19,1577.56L2064.19,1565.16C2063.39,1563.56 2062.59,1562.09 2061.79,1560.76C2060.46,1558.09 2059.79,1555.83 2059.79,1553.96C2060.33,1550.76 2060.99,1547.69 2061.79,1544.76C2062.33,1542.36 2062.86,1539.83 2063.39,1537.16C2063.93,1534.49 2064.19,1532.36 2064.19,1530.76L2064.19,1521.96C2064.19,1521.16 2063.93,1520.16 2063.39,1518.96C2062.86,1517.76 2062.33,1516.49 2061.79,1515.16C2060.99,1513.83 2060.33,1512.36 2059.79,1510.76L2064.19,1498.36L2064.19,1490.76C2066.33,1486.23 2068.33,1482.09 2070.19,1478.36C2071.79,1475.16 2073.46,1472.09 2075.19,1469.16C2076.93,1466.23 2078.46,1464.09 2079.79,1462.76C2080.59,1457.69 2082.59,1453.16 2085.79,1449.16C2088.99,1445.16 2092.79,1441.43 2097.19,1437.96C2101.59,1434.49 2106.33,1431.29 2111.39,1428.36C2116.46,1425.43 2121.53,1422.49 2126.59,1419.56C2129.53,1419.03 2132.46,1418.36 2135.39,1417.56C2137.53,1417.03 2139.73,1416.49 2141.99,1415.96C2144.26,1415.43 2145.79,1415.16 2146.59,1415.16L2169.79,1415.16L2182.19,1410.76Z" style="fill-rule:nonzero;"/>
        </g>
        <g transform="matrix(0.295245,0,0,0.295245,807.635,-140.712)">
            <path d="M2377.81,1415.96L2392.21,1419.56L2400.21,1419.56C2403.67,1420.63 2406.87,1421.69 2409.81,1422.76C2412.47,1423.83 2415.01,1424.83 2417.41,1425.76C2419.81,1426.69 2421.41,1427.56 2422.21,1428.36C2426.21,1430.49 2430.81,1432.29 2436.01,1433.76C2441.21,1435.23 2445.54,1437.83 2449.01,1441.56C2451.14,1443.43 2453.34,1446.63 2455.61,1451.16C2457.87,1455.69 2460.07,1458.89 2462.21,1460.76C2471.27,1468.49 2477.07,1475.89 2479.61,1482.96C2482.14,1490.03 2483.41,1496.36 2483.41,1501.96L2482.21,1528.36L2482.21,1539.56C2482.21,1542.49 2481.07,1546.89 2478.81,1552.76C2476.54,1558.63 2473.87,1564.76 2470.81,1571.16C2467.74,1577.56 2464.87,1583.49 2462.21,1588.96C2459.54,1594.43 2457.81,1597.96 2457.01,1599.56C2455.14,1605.16 2451.87,1609.76 2447.21,1613.36C2442.54,1616.96 2437.94,1619.83 2433.41,1621.96C2426.21,1627.56 2419.47,1632.63 2413.21,1637.16C2406.94,1641.69 2399.94,1643.96 2392.21,1643.96C2389.01,1643.96 2385.87,1643.63 2382.81,1642.96C2379.74,1642.29 2375.54,1641.96 2370.21,1641.96C2369.14,1641.96 2367.81,1642.03 2366.21,1642.16C2364.61,1642.29 2362.87,1642.49 2361.01,1642.76C2358.87,1643.03 2356.74,1643.16 2354.61,1643.16L2347.81,1643.16C2345.67,1643.16 2342.94,1642.76 2339.61,1641.96C2336.27,1641.16 2333.14,1640.09 2330.21,1638.76C2326.74,1637.43 2323.01,1635.83 2319.01,1633.96C2311.81,1630.76 2304.47,1627.23 2297.01,1623.36C2289.54,1619.49 2283.54,1613.03 2279.01,1603.96C2273.41,1590.63 2268.27,1576.76 2263.61,1562.36C2258.94,1547.96 2256.61,1534.09 2256.61,1520.76C2256.61,1518.09 2256.87,1515.69 2257.41,1513.56C2257.94,1511.43 2258.61,1509.23 2259.41,1506.96C2260.21,1504.69 2261.14,1502.36 2262.21,1499.96C2263.27,1497.56 2264.34,1494.49 2265.41,1490.76C2265.41,1486.76 2266.01,1483.03 2267.21,1479.56C2268.41,1476.09 2270.07,1472.36 2272.21,1468.36C2272.21,1467.56 2273.41,1465.03 2275.81,1460.76C2278.21,1456.49 2281.14,1451.96 2284.61,1447.16C2288.07,1442.36 2291.74,1438.03 2295.61,1434.16C2299.47,1430.29 2302.74,1428.36 2305.41,1428.36L2316.61,1423.96C2320.07,1423.96 2323.21,1423.83 2326.01,1423.56C2328.81,1423.29 2331.67,1422.36 2334.61,1420.76C2337.54,1419.43 2340.34,1418.29 2343.01,1417.36C2345.67,1416.43 2348.34,1415.96 2351.01,1415.96L2377.81,1415.96ZM2343.41,1447.16C2338.87,1447.16 2334.34,1450.23 2329.81,1456.36C2325.27,1462.49 2321.21,1469.49 2317.61,1477.36C2314.01,1485.23 2311.07,1492.76 2308.81,1499.96C2306.54,1507.16 2305.41,1511.83 2305.41,1513.96L2305.41,1545.16C2305.41,1548.89 2307.74,1554.56 2312.41,1562.16C2317.07,1569.76 2322.87,1577.36 2329.81,1584.96C2336.74,1592.56 2344.14,1599.29 2352.01,1605.16C2359.87,1611.03 2367.01,1613.96 2373.41,1613.96L2381.01,1613.96C2386.61,1613.96 2392.67,1612.49 2399.21,1609.56C2405.74,1606.63 2411.74,1602.63 2417.21,1597.56C2422.67,1592.49 2427.27,1586.56 2431.01,1579.76C2434.74,1572.96 2436.61,1565.83 2436.61,1558.36L2436.61,1547.16L2436.61,1520.76C2436.61,1515.16 2435.87,1510.69 2434.41,1507.36C2432.94,1504.03 2431.01,1500.83 2428.61,1497.76C2426.21,1494.69 2423.41,1491.23 2420.21,1487.36C2417.01,1483.49 2413.67,1478.23 2410.21,1471.56C2408.07,1469.96 2405.74,1467.96 2403.21,1465.56C2400.67,1463.16 2398.01,1460.89 2395.21,1458.76C2392.41,1456.63 2389.47,1454.76 2386.41,1453.16C2383.34,1451.56 2380.47,1450.76 2377.81,1450.76L2370.21,1450.76C2368.07,1450.76 2365.54,1450.63 2362.61,1450.36C2359.67,1450.09 2356.74,1449.69 2353.81,1449.16C2350.61,1448.63 2347.14,1447.96 2343.41,1447.16Z" style="fill-rule:nonzero;"/>
        </g>
        <g transform="matrix(0.295245,0,0,0.295245,807.635,-140.712)">
            <path d="M2673.82,1410.76C2679.16,1410.76 2684.16,1412.83 2688.82,1416.96C2693.49,1421.09 2697.69,1424.89 2701.42,1428.36C2703.55,1434.76 2706.89,1439.56 2711.42,1442.76C2713.02,1444.63 2714.62,1446.63 2716.22,1448.76C2717.82,1450.89 2718.89,1453.43 2719.42,1456.36C2720.49,1456.36 2721.55,1457.49 2722.62,1459.76C2723.69,1462.03 2724.62,1464.69 2725.42,1467.76C2726.22,1470.83 2726.89,1473.69 2727.42,1476.36C2727.95,1479.03 2728.22,1480.76 2728.22,1481.56C2728.22,1485.29 2727.55,1489.43 2726.22,1493.96C2724.89,1498.49 2723.22,1503.03 2721.22,1507.56C2719.22,1512.09 2717.09,1516.43 2714.82,1520.56C2712.55,1524.69 2710.62,1528.09 2709.02,1530.76C2707.95,1532.63 2706.55,1534.09 2704.82,1535.16C2703.09,1536.23 2701.42,1537.23 2699.82,1538.16C2698.22,1539.09 2696.82,1540.36 2695.62,1541.96C2694.42,1543.56 2693.82,1545.69 2693.82,1548.36C2693.82,1551.29 2694.62,1555.16 2696.22,1559.96C2697.82,1564.76 2699.82,1569.56 2702.22,1574.36C2704.62,1579.16 2707.09,1583.43 2709.62,1587.16C2712.16,1590.89 2714.22,1593.16 2715.82,1593.96C2719.02,1596.09 2721.89,1598.76 2724.42,1601.96C2726.95,1605.16 2729.62,1608.36 2732.42,1611.56C2735.22,1614.76 2738.22,1617.63 2741.42,1620.16C2744.62,1622.69 2748.36,1624.36 2752.62,1625.16C2754.22,1625.69 2756.76,1626.69 2760.22,1628.16C2763.69,1629.63 2766.36,1631.29 2768.22,1633.16C2769.82,1634.76 2770.69,1635.89 2770.82,1636.56C2770.95,1637.23 2770.76,1638.63 2770.22,1640.76C2769.42,1643.69 2767.49,1645.83 2764.42,1647.16C2761.36,1648.49 2758.02,1649.36 2754.42,1649.76C2750.82,1650.16 2747.55,1650.29 2744.62,1650.16C2741.69,1650.03 2739.95,1649.83 2739.42,1649.56C2737.55,1647.96 2735.09,1647.16 2732.02,1647.16C2728.95,1647.16 2726.49,1646.89 2724.62,1646.36C2717.42,1642.09 2712.36,1638.63 2709.42,1635.96C2706.49,1633.29 2703.02,1630.76 2699.02,1628.36C2697.42,1627.56 2695.42,1626.16 2693.02,1624.16C2690.62,1622.16 2688.02,1619.83 2685.22,1617.16C2682.42,1614.49 2679.62,1611.69 2676.82,1608.76C2674.02,1605.83 2671.42,1603.16 2669.02,1600.76C2665.82,1596.76 2663.09,1592.89 2660.82,1589.16C2658.55,1585.43 2656.55,1581.89 2654.82,1578.56C2653.09,1575.23 2651.42,1572.16 2649.82,1569.36C2648.22,1566.56 2646.49,1564.36 2644.62,1562.76C2640.89,1560.63 2638.16,1558.63 2636.42,1556.76C2634.69,1554.89 2631.95,1553.96 2628.22,1553.96C2625.02,1553.96 2622.55,1554.96 2620.82,1556.96C2619.09,1558.96 2617.76,1561.29 2616.82,1563.96C2615.89,1566.63 2615.29,1569.43 2615.02,1572.36C2614.76,1575.29 2614.62,1577.69 2614.62,1579.56L2619.02,1598.36L2619.02,1606.36C2619.02,1612.76 2621.09,1617.56 2625.22,1620.76C2629.36,1623.96 2633.82,1626.63 2638.62,1628.76C2643.42,1630.89 2647.89,1632.96 2652.02,1634.96C2656.16,1636.96 2658.22,1639.96 2658.22,1643.96C2658.22,1645.83 2657.29,1647.43 2655.42,1648.76C2653.55,1650.09 2651.82,1650.76 2650.22,1650.76L2635.82,1650.76L2613.42,1647.56L2604.62,1647.56L2585.82,1647.56L2579.02,1647.56L2563.42,1647.56C2562.62,1647.56 2560.02,1647.36 2555.62,1646.96C2551.22,1646.56 2546.55,1645.89 2541.62,1644.96C2536.69,1644.03 2532.22,1642.69 2528.22,1640.96C2524.22,1639.23 2522.22,1636.89 2522.22,1633.96C2522.22,1633.16 2522.62,1632.36 2523.42,1631.56C2524.22,1630.76 2525.16,1629.96 2526.22,1629.16C2527.29,1628.09 2528.62,1627.16 2530.22,1626.36C2531.02,1626.36 2532.22,1626.49 2533.82,1626.76C2535.42,1627.03 2537.02,1627.29 2538.62,1627.56C2540.49,1627.83 2542.49,1628.09 2544.62,1628.36L2552.62,1628.36C2557.95,1628.36 2562.42,1626.83 2566.02,1623.76C2569.62,1620.69 2571.42,1617.43 2571.42,1613.96L2571.42,1571.96L2571.42,1507.16L2574.62,1478.36C2573.82,1475.69 2573.29,1472.49 2573.02,1468.76C2572.76,1465.03 2572.29,1461.49 2571.62,1458.16C2570.95,1454.83 2569.76,1451.83 2568.02,1449.16C2566.29,1446.49 2563.69,1444.76 2560.22,1443.96L2544.62,1443.96C2541.69,1443.96 2538.76,1443.69 2535.82,1443.16C2532.89,1442.63 2530.16,1441.69 2527.62,1440.36C2525.09,1439.03 2523.02,1437.16 2521.42,1434.76C2519.82,1432.36 2519.02,1429.16 2519.02,1425.16C2519.02,1424.36 2519.62,1423.49 2520.82,1422.56C2522.02,1421.63 2523.29,1420.76 2524.62,1419.96C2526.22,1418.89 2528.09,1417.96 2530.22,1417.16L2597.82,1413.96L2639.02,1413.96C2639.82,1413.96 2641.29,1413.83 2643.42,1413.56C2645.55,1413.29 2647.69,1412.89 2649.82,1412.36C2652.49,1411.83 2655.29,1411.29 2658.22,1410.76L2673.82,1410.76ZM2635.82,1451.56C2634.76,1451.83 2633.55,1452.09 2632.22,1452.36C2630.89,1452.89 2629.42,1453.36 2627.82,1453.76C2626.22,1454.16 2624.49,1455.03 2622.62,1456.36C2620.76,1456.36 2618.95,1457.23 2617.22,1458.96C2615.49,1460.69 2614.62,1463.43 2614.62,1467.16L2614.62,1496.36C2614.62,1498.49 2614.09,1500.43 2613.02,1502.16C2611.95,1503.89 2611.42,1505.56 2611.42,1507.16L2613.02,1507.96C2613.55,1508.49 2613.95,1508.96 2614.22,1509.36C2614.49,1509.76 2614.62,1510.63 2614.62,1511.96C2613.82,1514.63 2614.09,1517.09 2615.42,1519.36C2616.76,1521.63 2618.62,1523.63 2621.02,1525.36C2623.42,1527.09 2626.02,1528.43 2628.82,1529.36C2631.62,1530.29 2633.95,1530.76 2635.82,1530.76C2638.22,1529.69 2640.62,1528.63 2643.02,1527.56C2645.16,1526.76 2647.09,1525.96 2648.82,1525.16C2650.55,1524.36 2652.09,1523.96 2653.42,1523.96L2661.42,1527.16C2664.89,1527.16 2667.82,1525.76 2670.22,1522.96C2672.62,1520.16 2674.55,1516.96 2676.02,1513.36C2677.49,1509.76 2678.62,1506.29 2679.42,1502.96C2680.22,1499.63 2680.89,1497.43 2681.42,1496.36L2679.02,1485.16C2679.02,1483.29 2678.82,1481.49 2678.42,1479.76C2678.02,1478.03 2676.76,1476.09 2674.62,1473.96C2674.62,1472.36 2674.42,1469.96 2674.02,1466.76C2673.62,1463.56 2672.36,1461.16 2670.22,1459.56C2669.42,1459.56 2667.49,1459.16 2664.42,1458.36C2661.36,1457.56 2658.02,1456.63 2654.42,1455.56C2650.82,1454.49 2647.22,1453.56 2643.62,1452.76C2640.02,1451.96 2637.42,1451.56 2635.82,1451.56Z" style="fill-rule:nonzero;"/>
        </g>
        <g transform="matrix(0.295245,0,0,0.295245,807.635,-140.712)">
            <path d="M2869.04,1415.96C2872.5,1415.96 2875.44,1416.09 2877.84,1416.36C2880.24,1416.63 2882.5,1417.69 2884.64,1419.56C2888.1,1421.69 2890.3,1423.63 2891.24,1425.36C2892.17,1427.09 2893.7,1428.89 2895.84,1430.76C2897.7,1436.09 2900.5,1439.36 2904.24,1440.56C2907.97,1441.76 2911.44,1443.69 2914.64,1446.36C2917.84,1449.03 2920.97,1452.29 2924.04,1456.16C2927.1,1460.03 2930.24,1464.09 2933.44,1468.36C2936.64,1472.63 2939.7,1476.76 2942.64,1480.76C2945.57,1484.76 2948.5,1488.09 2951.44,1490.76C2955.44,1495.29 2958.84,1500.03 2961.64,1504.96C2964.44,1509.89 2968.9,1513.96 2975.04,1517.16C2976.64,1518.49 2979.7,1521.56 2984.24,1526.36C2988.77,1531.16 2993.77,1536.29 2999.24,1541.76C3004.7,1547.23 3009.97,1552.09 3015.04,1556.36C3020.1,1560.63 3024.1,1562.76 3027.04,1562.76C3028.9,1562.76 3030.17,1562.36 3030.84,1561.56C3031.5,1560.76 3031.84,1559.76 3031.84,1558.56C3031.84,1557.36 3031.64,1556.16 3031.24,1554.96C3030.84,1553.76 3030.64,1552.76 3030.64,1551.96L3030.64,1521.96C3030.64,1519.56 3031.37,1516.76 3032.84,1513.56C3034.3,1510.36 3035.04,1506.49 3035.04,1501.96L3035.04,1468.36C3033.97,1467.56 3032.5,1466.23 3030.64,1464.36C3028.77,1462.49 3026.9,1460.56 3025.04,1458.56C3023.17,1456.56 3021.37,1454.76 3019.64,1453.16C3017.9,1451.56 3016.64,1450.76 3015.84,1450.76L3008.24,1450.76C3006.64,1450.76 3004.77,1450.29 3002.64,1449.36C3000.5,1448.43 2998.5,1447.29 2996.64,1445.96C2994.77,1444.63 2993.24,1443.36 2992.04,1442.16C2990.84,1440.96 2990.24,1440.09 2990.24,1439.56L2990.24,1427.16C2990.24,1424.49 2990.84,1422.36 2992.04,1420.76C2993.24,1419.16 2994.77,1418.03 2996.64,1417.36C2998.5,1416.69 3000.5,1416.29 3002.64,1416.16C3004.77,1416.03 3006.64,1415.96 3008.24,1415.96L3015.84,1415.96C3017.7,1415.96 3020.17,1416.16 3023.24,1416.56C3026.3,1416.96 3029.5,1417.36 3032.84,1417.76C3036.17,1418.16 3039.37,1418.56 3042.44,1418.96C3045.5,1419.36 3048.24,1419.56 3050.64,1419.56L3106.24,1419.56C3111.57,1419.56 3116.57,1420.76 3121.24,1423.16C3125.9,1425.56 3128.24,1429.56 3128.24,1435.16C3128.24,1437.29 3128.1,1439.09 3127.84,1440.56C3127.57,1442.03 3126.64,1443.96 3125.04,1446.36C3118.9,1450.09 3112.97,1451.76 3107.24,1451.36C3101.5,1450.96 3095.97,1450.76 3090.64,1450.76L3079.44,1453.96L3072.64,1453.96C3070.5,1453.96 3068.7,1455.49 3067.24,1458.56C3065.77,1461.63 3065.04,1464.89 3065.04,1468.36L3065.04,1529.56C3065.04,1531.16 3065.57,1533.56 3066.64,1536.76C3067.7,1539.96 3068.24,1542.36 3068.24,1543.96L3068.24,1566.36L3061.44,1605.16C3061.44,1606.76 3061.77,1608.89 3062.44,1611.56C3063.1,1614.23 3063.9,1616.96 3064.84,1619.76C3065.77,1622.56 3066.57,1625.23 3067.24,1627.76C3067.9,1630.29 3068.24,1632.36 3068.24,1633.96C3068.24,1635.03 3068.17,1636.89 3068.04,1639.56C3067.9,1642.23 3067.64,1644.89 3067.24,1647.56C3066.84,1650.23 3066.17,1652.56 3065.24,1654.56C3064.3,1656.56 3063.04,1657.56 3061.44,1657.56C3060.37,1657.56 3058.57,1657.56 3056.04,1657.56C3053.5,1657.56 3050.9,1657.43 3048.24,1657.16C3045.57,1656.89 3043.24,1656.49 3041.24,1655.96C3039.24,1655.43 3038.24,1654.76 3038.24,1653.96C3034.5,1650.23 3031.37,1645.69 3028.84,1640.36C3026.3,1635.03 3023.17,1630.76 3019.44,1627.56C3016.5,1623.56 3013.7,1620.23 3011.04,1617.56C3008.37,1614.89 3005.77,1612.36 3003.24,1609.96C3000.7,1607.56 2998.3,1605.03 2996.04,1602.36C2993.77,1599.69 2991.84,1596.49 2990.24,1592.76C2987.3,1586.09 2982.77,1579.69 2976.64,1573.56C2970.5,1567.43 2964.04,1561.29 2957.24,1555.16C2950.44,1549.03 2943.77,1542.83 2937.24,1536.56C2930.7,1530.29 2925.44,1523.83 2921.44,1517.16C2921.44,1516.36 2921.04,1515.09 2920.24,1513.36C2919.44,1511.63 2918.37,1509.96 2917.04,1508.36C2915.7,1506.76 2914.17,1505.29 2912.44,1503.96C2910.7,1502.63 2908.9,1501.96 2907.04,1501.96C2901.97,1501.96 2899.44,1505.96 2899.44,1513.96L2899.44,1559.56L2902.64,1581.96C2902.64,1587.29 2902.44,1590.96 2902.04,1592.96C2901.64,1594.96 2901.44,1597.96 2901.44,1601.96C2901.44,1607.03 2902.97,1610.83 2906.04,1613.36C2909.1,1615.89 2912.9,1617.83 2917.44,1619.16C2921.97,1620.49 2926.84,1621.49 2932.04,1622.16C2937.24,1622.83 2942.1,1623.69 2946.64,1624.76C2951.17,1625.83 2954.97,1627.49 2958.04,1629.76C2961.1,1632.03 2962.64,1635.29 2962.64,1639.56C2962.64,1641.69 2961.97,1642.96 2960.64,1643.36C2959.3,1643.76 2957.7,1643.96 2955.84,1643.96L2910.24,1643.96L2884.64,1647.56C2882.5,1645.69 2879.84,1644.63 2876.64,1644.36C2873.44,1644.09 2870.9,1643.96 2869.04,1643.96L2861.44,1643.96C2855.84,1643.96 2851.7,1643.23 2849.04,1641.76C2846.37,1640.29 2843.04,1639.56 2839.04,1639.56L2824.64,1639.56L2821.44,1643.96L2813.44,1643.96C2813.44,1642.89 2813.37,1641.09 2813.24,1638.56C2813.1,1636.03 2813.04,1633.56 2813.04,1631.16C2812.77,1628.23 2812.64,1625.16 2812.64,1621.96C2812.64,1619.83 2813.84,1617.96 2816.24,1616.36C2818.64,1614.76 2820.77,1613.96 2822.64,1613.96C2826.9,1613.96 2829.77,1613.96 2831.24,1613.96C2832.7,1613.96 2833.64,1613.89 2834.04,1613.76C2834.44,1613.63 2834.7,1613.56 2834.84,1613.56C2834.97,1613.56 2835.77,1613.49 2837.24,1613.36C2838.7,1613.23 2841.24,1613.16 2844.84,1613.16C2848.44,1613.16 2853.97,1613.16 2861.44,1613.16C2863.3,1613.16 2864.9,1612.56 2866.24,1611.36C2867.57,1610.16 2868.64,1608.76 2869.44,1607.16C2870.24,1605.56 2870.77,1603.89 2871.04,1602.16C2871.3,1600.43 2871.44,1599.16 2871.44,1598.36C2870.9,1597.29 2870.5,1596.23 2870.24,1595.16C2869.44,1593.56 2869.04,1591.69 2869.04,1589.56C2869.04,1585.56 2868.84,1582.29 2868.44,1579.76C2868.04,1577.23 2867.5,1575.03 2866.84,1573.16C2866.17,1571.29 2865.64,1569.63 2865.24,1568.16C2864.84,1566.69 2864.64,1564.89 2864.64,1562.76C2864.64,1560.89 2864.84,1558.63 2865.24,1555.96C2865.64,1553.29 2866.1,1550.89 2866.64,1548.76C2867.44,1546.09 2868.24,1543.43 2869.04,1540.76L2869.04,1513.96C2869.04,1512.36 2868.84,1510.49 2868.44,1508.36C2868.04,1506.23 2866.77,1504.09 2864.64,1501.96C2864.64,1498.76 2865.3,1496.76 2866.64,1495.96C2867.44,1495.43 2868.24,1495.16 2869.04,1495.16C2868.77,1494.09 2868.24,1492.63 2867.44,1490.76C2866.64,1488.89 2865.77,1487.03 2864.84,1485.16C2863.9,1483.29 2863.1,1481.56 2862.44,1479.96C2861.77,1478.36 2861.44,1477.16 2861.44,1476.36C2861.44,1470.76 2859.3,1466.49 2855.04,1463.56C2850.77,1460.63 2846.04,1457.83 2840.84,1455.16C2835.64,1452.49 2830.9,1449.43 2826.64,1445.96C2822.37,1442.49 2820.24,1437.43 2820.24,1430.76C2821.3,1428.09 2822.37,1425.69 2823.44,1423.56C2824.5,1421.69 2825.64,1419.96 2826.84,1418.36C2828.04,1416.76 2829.57,1415.96 2831.44,1415.96L2869.04,1415.96Z" style="fill-rule:nonzero;"/>
        </g>
        <g transform="matrix(0.295245,0,0,0.295245,807.635,-140.712)">
            <path d="M3218.25,1450.76C3218.25,1446.49 3218.98,1442.83 3220.45,1439.76C3221.92,1436.69 3223.92,1433.96 3226.45,1431.56C3228.98,1429.16 3231.85,1426.89 3235.05,1424.76C3238.25,1422.63 3241.58,1420.49 3245.05,1418.36C3252.25,1413.83 3258.85,1410.09 3264.85,1407.16C3270.85,1404.23 3278.25,1402.76 3287.05,1402.76C3292.65,1402.76 3297.58,1402.83 3301.85,1402.96C3306.12,1403.09 3310.52,1404.89 3315.05,1408.36C3318.78,1411.29 3321.38,1414.49 3322.85,1417.96C3324.32,1421.43 3325.05,1425.69 3325.05,1430.76C3325.05,1433.43 3324.58,1436.23 3323.65,1439.16C3322.72,1442.09 3321.38,1444.76 3319.65,1447.16C3317.92,1449.56 3315.78,1451.49 3313.25,1452.96C3310.72,1454.43 3307.98,1455.16 3305.05,1455.16C3302.12,1455.16 3299.78,1454.43 3298.05,1452.96C3296.32,1451.49 3294.72,1449.96 3293.25,1448.36C3291.78,1446.76 3290.18,1445.23 3288.45,1443.76C3286.72,1442.29 3284.52,1441.56 3281.85,1441.56C3278.38,1441.56 3274.85,1441.89 3271.25,1442.56C3267.65,1443.23 3264.38,1444.36 3261.45,1445.96C3258.52,1447.56 3256.12,1449.56 3254.25,1451.96C3252.38,1454.36 3251.45,1457.29 3251.45,1460.76C3251.45,1463.96 3252.52,1466.23 3254.65,1467.56C3256.78,1468.89 3259.38,1469.83 3262.45,1470.36C3265.52,1470.89 3268.78,1471.43 3272.25,1471.96C3275.72,1472.49 3278.92,1473.56 3281.85,1475.16C3289.05,1478.89 3295.25,1482.23 3300.45,1485.16C3305.65,1488.09 3311.58,1491.83 3318.25,1496.36C3320.65,1497.69 3322.78,1498.83 3324.65,1499.76C3326.52,1500.69 3328.32,1501.56 3330.05,1502.36C3331.78,1503.16 3333.58,1504.09 3335.45,1505.16C3337.32,1506.23 3339.45,1507.69 3341.85,1509.56C3349.58,1515.69 3355.78,1521.89 3360.45,1528.16C3365.12,1534.43 3367.45,1542.63 3367.45,1552.76L3367.45,1561.96C3367.45,1565.16 3367.98,1568.03 3369.05,1570.56C3370.12,1573.09 3370.65,1576.09 3370.65,1579.56C3370.65,1585.16 3369.52,1589.69 3367.25,1593.16C3364.98,1596.63 3362.78,1600.63 3360.65,1605.16C3360.12,1607.29 3360.12,1609.09 3360.65,1610.56C3361.18,1612.03 3360.78,1613.56 3359.45,1615.16C3358.38,1618.63 3356.65,1620.89 3354.25,1621.96C3351.85,1623.03 3349.58,1624.89 3347.45,1627.56C3345.05,1629.69 3342.78,1631.56 3340.65,1633.16C3338.52,1634.76 3336.38,1636.29 3334.25,1637.76C3332.12,1639.23 3329.92,1640.63 3327.65,1641.96C3325.38,1643.29 3322.65,1644.76 3319.45,1646.36C3314.38,1649.29 3309.85,1651.36 3305.85,1652.56C3301.85,1653.76 3297.18,1655.03 3291.85,1656.36C3289.98,1656.89 3288.38,1657.76 3287.05,1658.96C3285.72,1660.16 3283.98,1660.76 3281.85,1660.76C3279.45,1660.76 3277.58,1660.56 3276.25,1660.16C3274.92,1659.76 3273.45,1659.56 3271.85,1659.56C3267.85,1659.56 3264.72,1659.96 3262.45,1660.76C3260.18,1661.56 3257.32,1661.96 3253.85,1661.96C3251.72,1661.96 3250.05,1661.49 3248.85,1660.56C3247.65,1659.63 3245.98,1658.89 3243.85,1658.36C3240.92,1657.29 3238.32,1656.83 3236.05,1656.96C3233.78,1657.09 3231.18,1656.89 3228.25,1656.36C3225.32,1656.36 3222.92,1655.49 3221.05,1653.76C3219.18,1652.03 3216.78,1650.23 3213.85,1648.36C3210.92,1646.76 3208.12,1645.63 3205.45,1644.96C3202.78,1644.29 3199.98,1642.49 3197.05,1639.56C3194.12,1637.96 3192.52,1635.89 3192.25,1633.36C3191.98,1630.83 3191.05,1628.09 3189.45,1625.16C3187.32,1620.63 3185.45,1617.09 3183.85,1614.56C3182.25,1612.03 3181.45,1608.09 3181.45,1602.76C3181.45,1595.03 3184.38,1588.29 3190.25,1582.56C3196.12,1576.83 3203.18,1573.96 3211.45,1573.96C3216.52,1573.96 3221.32,1575.09 3225.85,1577.36C3230.38,1579.63 3232.65,1583.03 3232.65,1587.56C3232.65,1589.16 3232.45,1590.36 3232.05,1591.16C3231.65,1591.96 3231.45,1592.89 3231.45,1593.96C3231.45,1595.83 3231.85,1597.29 3232.65,1598.36C3233.45,1599.43 3233.85,1600.63 3233.85,1601.96C3233.85,1602.49 3233.65,1603.23 3233.25,1604.16C3232.85,1605.09 3232.65,1605.83 3232.65,1606.36C3232.65,1610.36 3233.72,1613.76 3235.85,1616.56C3237.98,1619.36 3240.72,1621.76 3244.05,1623.76C3247.38,1625.76 3251.18,1627.23 3255.45,1628.16C3259.72,1629.09 3263.98,1629.56 3268.25,1629.56C3276.78,1629.56 3284.58,1627.56 3291.65,1623.56C3298.72,1619.56 3305.05,1614.23 3310.65,1607.56C3313.85,1604.09 3316.52,1600.49 3318.65,1596.76C3320.78,1593.03 3321.85,1588.36 3321.85,1582.76C3321.85,1579.56 3321.05,1576.56 3319.45,1573.76C3317.85,1570.96 3317.05,1568.09 3317.05,1565.16C3317.05,1563.83 3317.25,1563.09 3317.65,1562.96C3318.05,1562.83 3318.25,1562.49 3318.25,1561.96C3318.25,1557.69 3317.12,1554.16 3314.85,1551.36C3312.58,1548.56 3309.72,1546.09 3306.25,1543.96C3302.78,1541.83 3298.98,1539.83 3294.85,1537.96C3290.72,1536.09 3286.65,1534.09 3282.65,1531.96C3281.58,1531.43 3280.72,1530.49 3280.05,1529.16C3279.38,1527.83 3278.38,1526.89 3277.05,1526.36C3274.38,1525.03 3271.72,1524.29 3269.05,1524.16C3266.38,1524.03 3263.85,1522.89 3261.45,1520.76C3259.32,1519.43 3257.85,1518.03 3257.05,1516.56C3256.25,1515.09 3254.78,1513.56 3252.65,1511.96C3249.72,1510.63 3247.12,1509.89 3244.85,1509.76C3242.58,1509.63 3239.98,1508.49 3237.05,1506.36C3235.45,1504.49 3234.05,1502.89 3232.85,1501.56C3231.65,1500.23 3230.52,1498.49 3229.45,1496.36C3227.32,1493.69 3224.72,1491.56 3221.65,1489.96C3218.58,1488.36 3217.05,1485.56 3217.05,1481.56L3217.05,1471.56C3217.05,1469.96 3216.92,1468.36 3216.65,1466.76C3216.38,1465.16 3216.25,1463.43 3216.25,1461.56C3216.25,1460.49 3216.38,1459.63 3216.65,1458.96C3216.92,1458.29 3217.05,1457.43 3217.05,1456.36C3217.05,1455.03 3217.25,1453.89 3217.65,1452.96C3218.05,1452.03 3218.25,1451.29 3218.25,1450.76Z" style="fill-rule:nonzero;"/>
        </g>
    </g>
</svg>
